<svg width="512" height="512" viewBox="0 0 512 512" fill="none" xmlns="http://www.w3.org/2000/svg">
<g clip-path="url(#clip0_416_2)">
<circle cx="256" cy="256" r="256" fill="#08243F"/>
<path d="M197.453 474C180.565 474 166.925 469.822 156.532 461.467C146.14 453.112 140.943 441.865 140.943 427.726C140.943 418.085 143.704 410.212 149.225 404.106C155.071 398.322 162.216 395.43 170.66 395.43C176.83 395.43 182.351 396.715 187.223 399.286C192.094 401.857 195.992 405.713 198.915 410.855C194.043 417.603 191.607 424.673 191.607 432.064C191.607 438.491 193.718 443.793 197.94 447.971C202.162 452.148 207.521 454.237 214.016 454.237C221.811 454.237 228.468 451.666 233.99 446.525C239.835 441.383 245.032 432.385 249.578 419.531L278.808 336.623L165.788 98.5029L133.149 93.6827V84.0422H254.45V93.6827L220.349 99.467L301.704 271.55L359.675 105.733L317.78 93.6827V84.0422H405.467V93.6827L372.341 105.733L263.219 419.531C256.399 438.491 248.117 452.309 238.374 460.985C228.956 469.662 215.315 474 197.453 474Z" fill="#D7ECFF"/>
<path fill-rule="evenodd" clip-rule="evenodd" d="M140 395.11L140.067 395.045C146.562 388.618 154.574 385.388 163.894 385.388C170.553 385.388 176.632 386.779 182.049 389.638C187.536 392.533 191.884 396.867 195.097 402.519L196.152 404.374L194.901 406.106C190.388 412.359 188.224 418.76 188.224 425.369C188.224 430.994 190.038 435.417 193.566 438.909C197.095 442.4 201.565 444.195 207.25 444.195C214.21 444.195 220.031 441.932 224.905 437.392L224.94 437.36L224.976 437.328C230.178 432.753 235.138 424.4 239.619 411.731L268.393 330.115L156.73 94.8541L123 89.8727V74H251.067V89.8103L218.527 95.3298L294.468 255.96L348.549 101.27L307.631 89.5008V74H402.084V89.3237L368.251 101.631L259.64 413.959C252.73 433.167 244.212 447.56 233.893 456.76C223.641 466.191 209.058 470.653 190.687 470.653C173.23 470.653 158.772 466.326 147.633 457.371C136.391 448.332 130.794 436.101 130.794 421.031C130.794 410.721 133.766 402.005 139.938 395.18L140 395.11ZM231.608 454.291C241.351 445.614 249.633 431.796 256.453 412.836L365.575 99.0385L398.701 86.9879V77.3474H311.014V86.9879L352.909 99.0385L294.938 264.855L213.583 92.7722L247.684 86.9879V77.3474H126.383V86.9879L159.022 91.8081L272.042 329.928L242.812 412.836C238.266 425.69 233.069 434.688 227.224 439.83C221.703 444.971 215.045 447.542 207.25 447.542C200.755 447.542 195.396 445.453 191.174 441.276C186.952 437.098 184.841 431.796 184.841 425.369C184.841 417.978 187.277 410.908 192.149 404.16C189.226 399.018 185.328 395.162 180.457 392.591C175.585 390.021 170.064 388.735 163.894 388.735C155.45 388.735 148.305 391.627 142.459 397.412C136.938 403.517 134.177 411.39 134.177 421.031C134.177 435.17 139.374 446.417 149.766 454.773C160.159 463.128 173.799 467.305 190.687 467.305C208.549 467.305 222.19 462.967 231.608 454.291Z" fill="#FF5677"/>
</g>
<defs>
<clipPath id="clip0_416_2">
<rect width="512" height="512" fill="white"/>
</clipPath>
</defs>
</svg>
