<svg width="64" height="64" viewBox="0 0 64 64" fill="none" xmlns="http://www.w3.org/2000/svg">
<g opacity="0.85" clip-path="url(#clip0_298_78)">
<path d="M64 38.1935V25.8064H59.1752C58.4785 22.7293 57.2769 19.8276 55.5964 17.1623L59.007 13.7517L50.2483 4.99303L46.8377 8.40361C44.1714 6.72206 41.2697 5.52155 38.1935 4.82477V0H25.8064V4.82477C22.7303 5.52155 19.8286 6.72206 17.1623 8.40361L13.7517 4.99303L4.99303 13.7517L8.40464 17.1623C6.72206 19.8297 5.52155 22.7303 4.82477 25.8064H0V38.1935H4.82581C4.98374 38.8841 5.17884 39.5726 5.39148 40.2581H4.12903C1.85187 40.2581 0 42.1099 0 44.3871V59.871C0 62.1481 1.85187 64 4.12903 64H59.871C62.1481 64 64 62.1481 64 59.871V44.3871C64 42.1099 62.1481 40.2581 59.871 40.2581H58.6085C58.8212 39.5726 59.0163 38.8841 59.1742 38.1935H64ZM59.871 42.3226C61.0095 42.3226 61.9355 43.2485 61.9355 44.3871V59.871C61.9355 61.0095 61.0095 61.9355 59.871 61.9355H4.12903C2.99045 61.9355 2.06452 61.0095 2.06452 59.871V44.3871C2.06452 43.2485 2.99045 42.3226 4.12903 42.3226H59.871ZM30.9677 33.0323V37.1943C28.095 37.2717 25.6279 37.6434 23.5716 38.1739C23.104 36.5141 22.8366 34.7954 22.7603 33.0323H30.9677ZM22.7592 30.9677C22.8418 29.1107 23.1195 27.3879 23.5634 25.825C25.6289 26.3577 28.0877 26.7345 30.9677 26.8108V30.9677H22.7592ZM30.9688 39.2578V40.2581H24.2746C24.2591 40.2178 24.2457 40.1775 24.2302 40.1373C26.1048 39.6645 28.3499 39.3321 30.9688 39.2578ZM30.9677 24.7463C28.3458 24.672 26.1037 24.3293 24.2199 23.8503C26.047 19.1535 29.1107 16.031 30.9677 14.4599V24.7463ZM22.2039 23.2599C19.808 22.433 18.1832 21.4441 17.2397 20.7608C19.9886 17.1603 24.0093 14.592 28.6359 13.7404C26.5796 15.649 23.8803 18.7995 22.2039 23.2599ZM21.5577 25.2325C21.0715 26.9719 20.7494 28.8826 20.6689 30.9667H13.471C13.6434 27.8741 14.5683 24.9858 16.0754 22.4754C17.1726 23.2723 18.9657 24.3458 21.5577 25.2325ZM20.6699 33.0323C20.7484 34.9977 21.0539 36.9146 21.5783 38.7664C20.1972 39.2382 19.0575 39.7595 18.1285 40.2581H15.3631C14.2472 38.0108 13.5907 35.5437 13.4503 33.0323H20.6699ZM43.3301 30.9688V30.9677C43.2485 28.8836 42.9275 26.9729 42.4413 25.2335C45.0333 24.3458 46.8263 23.2733 47.9236 22.4764C49.4307 24.9868 50.3566 27.8751 50.528 30.9688H43.3301ZM50.5476 33.0323C50.4072 35.5437 49.7507 38.0108 48.6348 40.2581H45.8704C44.9414 39.7595 43.8018 39.2382 42.4206 38.7664C42.945 36.9146 43.2506 34.9977 43.329 33.0323H50.5476ZM41.8003 23.2702C40.1239 18.8036 37.4225 15.6511 35.3641 13.7404C39.9938 14.592 44.0165 17.1623 46.7654 20.767C45.8261 21.4524 44.2054 22.4434 41.8003 23.2702ZM39.7832 23.8586C37.9025 24.3345 35.6604 24.673 33.0323 24.7463V14.4599C34.8914 16.031 37.9561 19.1577 39.7832 23.8586ZM40.4366 25.8261C40.8805 27.3889 41.1582 29.1107 41.2408 30.9688H33.0323V30.9677V26.8108C35.9123 26.7345 38.3711 26.3587 40.4366 25.8261ZM41.2397 33.0323C41.1623 34.7954 40.895 36.5141 40.4284 38.1739C38.3732 37.6434 35.905 37.2707 33.0323 37.1943V33.0323H41.2397ZM39.7708 40.1373C39.7554 40.1775 39.7419 40.2178 39.7254 40.2581H33.0323V39.2578C35.6501 39.3321 37.8952 39.6645 39.7708 40.1373ZM57.4875 36.129L57.3244 36.9641C57.1086 38.0666 56.7959 39.1701 56.4284 40.2581H50.913C52.0444 37.664 52.6452 34.8428 52.6452 32C52.6452 20.6163 43.3837 11.3548 32 11.3548C20.6163 11.3548 11.3548 20.6163 11.3548 32C11.3548 34.8428 11.9556 37.664 13.087 40.2581H7.57161C7.20413 39.169 6.89135 38.0666 6.67561 36.9641L6.51252 36.129H2.06452V27.871H6.51355L6.67561 27.0359C7.33729 23.6418 8.65135 20.4676 10.5817 17.601L11.0575 16.896L7.91226 13.7517L13.7517 7.91226L16.895 11.0565L17.601 10.5817C20.4666 8.65135 23.6418 7.33626 27.0369 6.67561L27.871 6.51355V2.06452H36.129V6.51355L36.9641 6.67561C40.3592 7.33729 43.5334 8.65135 46.4 10.5817L47.1061 11.0565L50.2493 7.91226L56.0888 13.7517L52.9435 16.896L53.4194 17.6021C55.3497 20.4666 56.6648 23.6408 57.3254 27.0369L57.4865 27.871H61.9355V36.129H57.4875Z" fill="#2AC3DE"/>
<path d="M59.8709 57.8064H57.8064V59.8709H59.8709V57.8064Z" fill="#2AC3DE"/>
<path d="M55.742 57.8064H53.6775V59.8709H55.742V57.8064Z" fill="#2AC3DE"/>
<path d="M51.6129 57.8064H49.5483V59.8709H51.6129V57.8064Z" fill="#2AC3DE"/>
</g>
<defs>
<clipPath id="clip0_298_78">
<rect width="64" height="64" fill="white"/>
</clipPath>
</defs>
</svg>
