<svg width="64" height="64" viewBox="0 0 64 64" fill="none" xmlns="http://www.w3.org/2000/svg">
<path d="M39.0733 41.377C39.2315 41.7646 39.6055 42 40 42C40.126 42 40.2529 41.9766 40.377 41.9268L52.377 37.0478C52.751 36.8955 52.9961 36.5332 53 36.1299C53.0039 35.7256 52.7638 35.3594 52.3926 35.2012L40.3926 30.0801C39.8888 29.8652 39.2969 30.0986 39.0801 30.6074C38.8633 31.1152 39.0996 31.7031 39.6074 31.9199L49.3994 36.0986L39.6231 40.0732C39.1113 40.2812 38.8652 40.8652 39.0733 41.377Z" fill="#2AC3DE"/>
<path d="M13.6231 37.0478L25.6231 41.9268C25.7471 41.9766 25.874 42 26 42C26.3945 42 26.7686 41.7646 26.9268 41.377C27.1348 40.8652 26.8888 40.2812 26.377 40.0732L16.6006 36.0986L26.3926 31.9199C26.9004 31.7031 27.1368 31.1152 26.9199 30.6074C26.7022 30.0986 26.1104 29.8643 25.6074 30.0801L13.6074 35.2012C13.2363 35.3594 12.9961 35.7256 13 36.1299C13.0039 36.5332 13.249 36.8955 13.6231 37.0478Z" fill="#2AC3DE"/>
<path d="M28.5938 45.914C28.7256 45.9726 28.8633 45.9999 28.999 45.9999C29.3828 45.9999 29.7481 45.7782 29.9141 45.4061L37.9141 27.4061C38.1377 26.9013 37.9111 26.3104 37.4063 26.0858C36.9024 25.8622 36.3115 26.0907 36.0859 26.5936L28.0859 44.5936C27.8623 45.0985 28.0889 45.6894 28.5938 45.914Z" fill="#2AC3DE"/>
<path d="M60 5H4C1.7908 5 0 6.7908 0 9V14V16V55C0 57.2091 1.7908 59 4 59H60C62.2092 59 64 57.2091 64 55V16V14V9C64 6.7908 62.2092 5 60 5ZM62 55C62 56.1028 61.1028 57 60 57H4C2.8972 57 2 56.1028 2 55V16H62V55ZM62 14H2V9C2 7.8972 2.8972 7 4 7H60C61.1028 7 62 7.8972 62 9V14Z" fill="#2AC3DE"/>
<path d="M6 9C5.035 9 4.25 9.785 4.25 10.75C4.25 11.7149 5.035 12.5 6 12.5C6.965 12.5 7.75 11.7149 7.75 10.75C7.75 9.785 6.965 9 6 9ZM6 11.5C5.5858 11.5 5.25 11.1642 5.25 10.75C5.25 10.3358 5.5858 10 6 10C6.4142 10 6.75 10.3358 6.75 10.75C6.75 11.1642 6.4142 11.5 6 11.5Z" fill="#2AC3DE"/>
<path d="M16 9C15.035 9 14.25 9.785 14.25 10.75C14.25 11.7149 15.035 12.5 16 12.5C16.965 12.5 17.75 11.7149 17.75 10.75C17.75 9.785 16.965 9 16 9ZM16 11.5C15.5858 11.5 15.25 11.1642 15.25 10.75C15.25 10.3358 15.5858 10 16 10C16.4142 10 16.75 10.3358 16.75 10.75C16.75 11.1642 16.4142 11.5 16 11.5Z" fill="#2AC3DE"/>
<path d="M11 9C10.035 9 9.25 9.785 9.25 10.75C9.25 11.7149 10.035 12.5 11 12.5C11.965 12.5 12.75 11.7149 12.75 10.75C12.75 9.785 11.965 9 11 9ZM11 11.5C10.5858 11.5 10.25 11.1642 10.25 10.75C10.25 10.3358 10.5858 10 11 10C11.4142 10 11.75 10.3358 11.75 10.75C11.75 11.1642 11.4142 11.5 11 11.5Z" fill="#2AC3DE"/>
</svg>
