<svg width="204" height="209" viewBox="0 0 204 209" fill="none" xmlns="http://www.w3.org/2000/svg">
<path d="M166.372 169.251C189.772 159.129 209.655 122.977 175.397 102.732C118.22 63.2513 144.309 104.178 159.352 122.977C129.964 86.2514 119.783 72.7417 203.22 91.2514" stroke="#FF5677" stroke-width="2"/>
<path d="M97.0001 130C28.3335 131.667 -41 170 35 200C126 226 181 174.455 157 157C146 149 128 128 20 139" stroke="#FF5677" stroke-width="2"/>
<path d="M66.966 94.0136C66.1029 94.3825 65.3298 94.3649 64.6467 93.9609C63.9468 93.5176 63.4124 92.8644 63.0435 92.0012C62.7585 91.3342 62.5827 90.5974 62.5163 89.7905C62.4449 88.4291 62.5191 87.0286 62.739 85.589C62.9422 84.1101 63.2154 82.5781 63.5588 80.993C63.5983 80.6513 63.6605 80.0911 63.7453 79.3125C63.8301 78.5338 63.8673 77.7523 63.8569 76.968C63.8857 76.1668 63.7854 75.6065 63.5561 75.2869C63.1758 74.6143 63.0446 74.0903 63.1627 73.7151C63.2639 73.3006 63.4715 73.0263 63.7854 72.8921C64.1777 72.7245 64.595 72.7781 65.0373 73.0531C65.3284 73.2999 65.5913 73.6979 65.8261 74.2472C66.0776 74.8357 66.2589 75.6398 66.3699 76.6595C66.5034 77.6233 66.4434 78.7857 66.1899 80.1469C65.9646 81.3568 65.7056 82.6507 65.4129 84.0286C65.1595 85.3897 64.9957 86.6893 64.9216 87.9273C64.87 89.1094 65.0119 90.0928 65.3473 90.8774C65.6491 91.5836 66.0354 91.8361 66.5062 91.6349C66.7416 91.5343 67.0444 91.2657 67.4146 90.8291C67.869 90.2637 68.5002 89.2979 69.3083 87.9317C70.1164 86.5655 70.9331 85.0565 71.7583 83.4046C72.6227 81.736 73.3778 80.1372 74.0237 78.6084C74.6695 77.0796 75.0656 75.8895 75.2121 75.0381C75.2574 74.6011 75.535 74.2737 76.0451 74.0557C76.3982 73.9048 76.7147 73.8855 76.9947 73.9978C77.314 74.0934 77.4426 74.34 77.3806 74.7377C77.6365 76.5307 77.7631 78.727 77.7605 81.3265C77.7579 83.926 77.6712 86.6543 77.5003 89.5114C78.1672 89.2263 78.8957 89.031 79.6858 88.9253C80.2069 88.8418 80.568 89.0355 80.7693 89.5063C80.9034 89.8201 80.8919 90.1731 80.7346 90.5651C80.6166 90.9403 80.3362 91.1529 79.8936 91.2029C79.5854 91.2418 79.2856 91.3003 78.9942 91.3785C78.7028 91.4566 78.4002 91.5628 78.0863 91.6969C77.8117 91.8143 77.5567 91.9233 77.3213 92.0239C77.1111 94.8977 76.8114 97.6706 76.4222 100.343C76.0497 103.054 75.6412 105.409 75.1966 107.409C74.7802 109.257 74.2013 111.105 73.4599 112.953C72.7578 114.785 71.8962 116.406 70.8751 117.817C69.8148 119.244 68.5785 120.26 67.1661 120.863C65.636 121.517 64.2997 121.648 63.1572 121.254C62.0147 120.861 61.1835 120.056 60.6637 118.84C60.1439 117.624 59.9185 116.119 59.9875 114.327C60.0173 112.551 60.2825 110.674 60.7831 108.697C61.396 106.44 62.3927 104.158 63.7732 101.851C65.1313 99.6002 66.7777 97.4813 68.7125 95.4944C70.6641 93.5467 72.8058 91.9353 75.1377 90.6603C75.257 88.9853 75.3426 87.3943 75.3946 85.8873C75.469 84.3243 75.5068 82.893 75.5081 81.5932C74.5592 83.7156 73.4619 85.7621 72.2162 87.7329C70.9705 89.7038 69.9045 91.2265 69.0182 92.3013C68.3563 93.141 67.6722 93.7118 66.966 94.0136ZM66.5212 118.703C67.7766 118.166 68.8842 117.067 69.8439 115.404C70.7811 113.797 71.5702 111.789 72.2113 109.381C72.9084 106.995 73.474 104.41 73.9082 101.626C74.3591 98.8811 74.7065 96.111 74.9502 93.3157C72.0519 95.1112 69.5229 97.4448 67.3631 100.317C65.2033 103.189 63.7465 106.131 62.9928 109.145C62.8409 109.766 62.686 110.598 62.5281 111.64C62.331 112.699 62.2291 113.763 62.2224 114.833C62.2157 115.903 62.3801 116.83 62.7154 117.615C63.0005 118.282 63.451 118.739 64.067 118.986C64.6438 119.25 65.4619 119.156 66.5212 118.703ZM89.342 86.1208C88.0081 86.6909 86.9072 86.7206 86.0393 86.2099C85.1547 85.66 84.4692 84.8161 83.983 83.6783C83.5805 82.7367 83.2819 81.658 83.087 80.4421C82.9146 79.1701 82.8291 77.8843 82.8304 76.5845C82.2156 75.0377 81.982 73.3511 82.1295 71.5249C82.3162 69.6819 82.8866 67.9765 83.8406 66.4088C84.8338 64.8243 86.272 63.6296 88.1552 62.8247C89.9992 62.0366 91.5006 62.0213 92.6596 62.7788C93.8578 63.5195 94.7671 64.6157 95.3875 66.0674C95.7564 66.9305 96.0356 67.8552 96.2251 68.8414C96.3978 69.7884 96.4949 70.7213 96.5164 71.6401C96.5379 72.5589 96.4893 73.5309 96.3706 74.556C96.2352 75.5419 96.0409 76.5529 95.7877 77.5891C96.8809 76.8899 97.7417 76.0812 98.3701 75.1631C99.0209 74.1889 99.5796 72.9989 100.046 71.5932C100.512 70.1875 101.018 68.44 101.564 66.3509C101.682 65.9756 101.878 65.7293 102.153 65.6119C102.467 65.4778 102.764 65.4669 103.044 65.5792C103.363 65.6748 103.59 65.8795 103.724 66.1933C103.824 66.4287 103.838 66.6781 103.765 66.9413C103.298 68.9969 102.744 70.904 102.104 72.6625C101.503 74.4043 100.627 75.9384 99.4772 77.2651C98.3274 78.5917 96.7324 79.691 94.6923 80.5629C94.1028 81.7892 93.3678 82.8922 92.4872 83.8717C91.6067 84.8513 90.5583 85.6009 89.342 86.1208ZM86.241 69.4197C85.9211 69.974 85.654 70.9233 85.4398 72.2677C85.2256 73.6121 85.1121 75.0294 85.0994 76.5196C85.6977 77.7023 86.6576 78.5912 87.9792 79.1864C89.3232 79.7256 90.9816 79.6432 92.9544 78.9393C93.7799 76.9624 94.2302 74.8676 94.3052 72.6547C94.3635 70.4026 94.0741 68.5311 93.4369 67.0402C93.0009 66.0202 92.4134 65.2969 91.6743 64.8703C90.9352 64.4438 90.0556 64.4485 89.0355 64.8845C88.3293 65.1863 87.693 65.5975 87.1267 66.1179C86.5603 66.6384 86.0863 67.2122 85.7047 67.8392C85.9847 67.9516 86.1834 68.1451 86.3008 68.4197C86.435 68.7336 86.415 69.0669 86.241 69.4197ZM85.9924 82.6803C86.2607 83.3081 86.5964 83.7678 86.9995 84.0595C87.425 84.2952 87.9124 84.2957 88.4617 84.061C89.5995 83.5747 90.606 82.727 91.4812 81.5177C90.226 81.7293 89.0803 81.7086 88.0441 81.4554C86.9912 81.1631 86.0812 80.7168 85.3143 80.1165C85.4813 81.1588 85.7074 82.0134 85.9924 82.6803ZM114.563 73.741C113.856 74.0428 113.184 74.0982 112.546 73.907C111.946 73.6991 111.496 73.2421 111.194 72.5359C110.557 71.045 110.292 69.3948 110.401 67.5854C110.492 65.7367 110.698 63.8853 111.02 62.0312C111.363 60.1211 111.581 58.4042 111.672 56.8804C111.228 57.5803 110.656 58.196 109.956 58.7275C109.255 59.259 108.532 59.6841 107.786 60.0027C106.727 60.4554 105.844 60.6702 105.138 60.6471C104.946 62.2604 104.645 63.9437 104.234 65.6968C103.807 67.4107 103.348 68.9985 102.86 70.4603C102.41 71.9052 101.989 73.0365 101.596 73.8541C101.422 74.2068 101.197 74.4419 100.923 74.5593C100.648 74.6767 100.371 74.6792 100.091 74.5669C99.8107 74.4545 99.6204 74.2807 99.5198 74.0453C99.436 73.8491 99.439 73.639 99.5288 73.415C99.9164 72.3678 100.33 71.0544 100.768 69.475C101.246 67.8787 101.671 66.2125 102.042 64.4761C102.453 62.7229 102.729 61.1433 102.87 59.7373C102.496 58.9694 102.217 58.0447 102.033 56.9632C101.888 55.865 101.839 54.7725 101.885 53.6857C101.97 52.5821 102.161 51.6187 102.459 50.7954C102.74 49.9329 103.175 49.3759 103.763 49.1244C104.391 48.8561 104.864 49.0947 105.183 49.8401C105.451 50.4679 105.599 51.356 105.626 52.5045C105.692 53.6363 105.671 54.7819 105.563 55.9415C105.478 57.0451 105.385 57.9666 105.283 58.706C105.86 58.645 106.423 58.4971 106.973 58.2623C107.914 57.8599 108.663 57.3312 109.218 56.6763C109.757 55.9821 110.225 55.3411 110.623 54.7533C111.005 54.1262 111.392 53.7288 111.784 53.5611C112.294 53.3431 112.687 53.3379 112.961 53.5455C113.258 53.697 113.49 53.969 113.658 54.3613C113.976 55.1068 114.132 56.0145 114.125 57.0846C114.102 58.1154 114.042 58.7904 113.947 59.1097C113.857 59.6586 113.721 60.482 113.541 61.5799C113.344 62.6386 113.172 63.7561 113.025 64.9325C112.878 66.1088 112.813 67.204 112.829 68.2181C112.856 68.7167 112.892 69.235 112.936 69.7728C113.003 70.2547 113.103 70.6526 113.238 70.9665C113.456 71.4765 113.78 71.6393 114.212 71.4548C114.604 71.2872 115.089 70.8479 115.667 70.1369C116.391 69.2245 116.977 68.2082 117.426 67.0882C117.898 65.9121 118.303 64.9041 118.64 64.0641C118.662 64.0081 118.755 63.7365 118.918 63.2492C119.12 62.7452 119.302 62.2496 119.465 61.7623C119.668 61.2583 119.769 61.0063 119.769 61.0063C119.842 60.7431 119.996 60.5611 120.231 60.4605C120.428 60.3767 120.655 60.4189 120.912 60.5873C121.192 60.6996 121.399 60.9127 121.533 61.2266C121.684 61.5797 121.712 61.9158 121.616 62.2351C121.38 63.3105 120.961 64.5566 120.36 65.9734C119.76 67.3902 119.201 68.5802 118.685 69.5433C118.129 70.5232 117.503 71.3937 116.808 72.1549C116.135 72.8602 115.386 73.3888 114.563 73.741ZM124.092 69.5985C123.229 69.9674 122.456 69.9498 121.773 69.5457C121.073 69.1024 120.539 68.4492 120.17 67.5861C119.885 66.9191 119.709 66.1822 119.643 65.3754C119.571 64.0139 119.645 62.6134 119.865 61.1738C120.069 59.695 120.342 58.163 120.685 56.5779C120.725 56.2361 120.787 55.676 120.872 54.8973C120.956 54.1187 120.994 53.3372 120.983 52.5528C121.012 51.7517 120.912 51.1914 120.682 50.8718C120.302 50.1991 120.171 49.6752 120.289 49.2999C120.39 48.8854 120.598 48.6111 120.912 48.477C121.304 48.3093 121.721 48.363 122.164 48.6379C122.455 48.8847 122.718 49.2827 122.952 49.832C123.204 50.4205 123.385 51.2246 123.496 52.2444C123.63 53.2081 123.57 54.3706 123.316 55.7317C123.091 56.9416 122.832 58.2355 122.539 59.6134C122.286 60.9745 122.122 62.2741 122.048 63.5122C121.996 64.6943 122.138 65.6776 122.474 66.4623C122.775 67.1685 123.162 67.421 123.633 67.2198C123.868 67.1192 124.171 66.8506 124.541 66.4139C124.995 65.8485 125.627 64.8828 126.435 63.5166C127.243 62.1504 128.059 60.6414 128.885 58.9895C129.749 57.3208 130.504 55.7221 131.15 54.1933C131.796 52.6645 132.192 51.4744 132.338 50.6229C132.384 50.186 132.661 49.8585 133.171 49.6405C133.524 49.4896 133.841 49.4703 134.121 49.5827C134.44 49.6782 134.569 49.9249 134.507 50.3226C134.763 52.1156 134.889 54.3119 134.887 56.9114C134.884 59.5109 134.797 62.2392 134.627 65.0962C135.294 64.8112 136.022 64.6158 136.812 64.5102C137.333 64.4267 137.694 64.6203 137.896 65.0911C138.03 65.405 138.018 65.7579 137.861 66.1499C137.743 66.5252 137.463 66.7378 137.02 66.7878C136.712 66.8267 136.412 66.8852 136.121 66.9633C135.829 67.0415 135.527 67.1476 135.213 67.2818C134.938 67.3992 134.683 67.5081 134.448 67.6088C134.237 70.4826 133.938 73.2555 133.548 75.9274C133.176 78.6386 132.767 80.994 132.323 82.9936C131.906 84.842 131.328 86.6902 130.586 88.5383C129.884 90.3696 129.022 91.9906 128.001 93.4014C126.941 94.829 125.705 95.8446 124.292 96.4482C122.762 97.1022 121.426 97.2325 120.283 96.8392C119.141 96.4459 118.31 95.6411 117.79 94.4248C117.27 93.2086 117.045 91.7041 117.114 89.9114C117.144 88.1355 117.409 86.259 117.909 84.2818C118.522 82.0246 119.519 79.7427 120.9 77.4358C122.258 75.185 123.904 73.0662 125.839 71.0792C127.79 69.1316 129.932 67.5202 132.264 66.2452C132.383 64.5702 132.469 62.9792 132.521 61.4722C132.595 59.9092 132.633 58.4778 132.634 57.1781C131.685 59.3004 130.588 61.347 129.342 63.3178C128.097 65.2886 127.031 66.8114 126.145 67.8862C125.483 68.7259 124.799 69.2966 124.092 69.5985ZM123.647 94.2878C124.903 93.7513 126.011 92.6515 126.97 90.9885C127.907 89.3816 128.697 87.3739 129.338 84.9655C130.035 82.5796 130.6 79.9946 131.035 77.2107C131.485 74.4659 131.833 71.6959 132.076 68.9005C129.178 70.696 126.649 73.0297 124.489 75.9016C122.33 78.7734 120.873 81.7161 120.119 84.7294C119.967 85.3511 119.812 86.1829 119.654 87.2248C119.457 88.2835 119.355 89.3478 119.349 90.4179C119.342 91.4879 119.506 92.4153 119.842 93.2C120.127 93.8669 120.577 94.324 121.193 94.5711C121.77 94.835 122.588 94.7406 123.647 94.2878ZM147.065 61.3112C145.849 61.831 144.65 61.9027 143.468 61.5261C142.326 61.1328 141.361 60.0142 140.573 58.1702C140.036 56.9147 139.721 55.3093 139.628 53.354C139.574 51.3819 139.761 49.3764 140.188 47.3375C140.599 45.2595 141.254 43.4253 142.152 41.8351C143.033 40.2057 144.16 39.0976 145.534 38.5107C146.436 38.125 147.245 38.1735 147.962 38.656C148.701 39.0825 149.263 39.747 149.649 40.6493C150.219 41.9833 150.341 43.4624 150.014 45.0868C149.688 46.7112 149.025 48.2007 148.027 49.5555C147.067 50.8936 145.94 51.8392 144.646 52.3926C143.586 52.8453 142.64 52.8556 141.805 52.4234C141.827 53.3422 141.899 54.2162 142.021 55.0455C142.144 55.8748 142.347 56.6229 142.632 57.2899C143.119 58.4276 143.698 59.1313 144.37 59.4009C145.064 59.6145 145.784 59.562 146.53 59.2434C147.432 58.8577 148.332 58.1948 149.229 57.2544C150.166 56.2974 150.99 55.2954 151.703 54.2484C152.399 53.1623 152.89 52.3028 153.176 51.67C153.676 50.6677 154.111 49.6232 154.482 48.5367C154.875 47.3942 155.195 46.3525 155.443 45.4116C155.538 45.0923 155.704 44.8824 155.939 44.7818C156.175 44.6812 156.421 44.715 156.679 44.8834C156.959 44.9957 157.166 45.2088 157.3 45.5227C157.417 45.7973 157.437 46.1139 157.358 46.4723C157.065 47.5253 156.666 48.763 156.161 50.1855C155.678 51.552 155.052 52.91 154.283 54.2594C153.873 55.0377 153.287 55.8915 152.524 56.8208C151.761 57.75 150.906 58.6259 149.958 59.4485C149.05 60.2544 148.085 60.8753 147.065 61.3112ZM143.723 50.5597C144.508 50.2243 145.242 49.6088 145.927 48.7131C146.65 47.8006 147.189 46.7815 147.543 45.6558C147.92 44.474 148.016 43.3425 147.832 42.261C147.838 42.1658 147.816 42.0593 147.765 41.9416C147.715 41.8239 147.673 41.7258 147.64 41.6473C147.338 40.9411 146.932 40.697 146.422 40.915C145.598 41.2671 144.869 41.9499 144.235 42.9633C143.584 43.9375 143.065 45.1107 142.677 46.4829C142.311 47.7991 142.066 49.1798 141.941 50.6251C142.149 50.6757 142.356 50.7264 142.563 50.777C142.754 50.7884 142.936 50.7802 143.109 50.7523C143.205 50.758 143.311 50.7357 143.429 50.6854C143.547 50.6351 143.645 50.5932 143.723 50.5597ZM168.873 50.5294C168.167 50.8312 167.494 50.8866 166.856 50.6955C166.257 50.4876 165.806 50.0305 165.504 49.3243C164.867 47.8334 164.603 46.1833 164.711 44.3738C164.802 42.5251 165.009 40.6737 165.33 38.8196C165.673 36.9095 165.891 35.1926 165.982 33.6689C165.539 34.3687 164.967 34.9844 164.266 35.5159C163.565 36.0475 162.842 36.4725 162.096 36.7911C161.037 37.2439 160.155 37.4587 159.449 37.4355C159.257 39.0488 158.955 40.7321 158.544 42.4852C158.117 44.1991 157.659 45.787 157.17 47.2487C156.72 48.6937 156.299 49.8249 155.906 50.6425C155.732 50.9953 155.508 51.2303 155.233 51.3477C154.958 51.4651 154.681 51.4676 154.401 51.3553C154.121 51.243 153.931 51.0691 153.83 50.8337C153.746 50.6375 153.749 50.4274 153.839 50.2034C154.227 49.1562 154.64 47.8428 155.078 46.2634C155.556 44.6672 155.981 43.0009 156.352 41.2645C156.763 39.5114 157.039 37.9318 157.181 36.5257C156.806 35.7578 156.527 34.8331 156.343 33.7517C156.198 32.6534 156.149 31.5609 156.195 30.4741C156.28 29.3705 156.472 28.4071 156.769 27.5838C157.05 26.7213 157.485 26.1643 158.074 25.9128C158.701 25.6445 159.174 25.8831 159.493 26.6285C159.761 27.2563 159.909 28.1444 159.936 29.2929C160.002 30.4247 159.981 31.5704 159.874 32.7299C159.788 33.8335 159.695 34.755 159.593 35.4945C160.171 35.4334 160.734 35.2855 161.283 35.0508C162.225 34.6483 162.973 34.1196 163.528 33.4647C164.067 32.7706 164.535 32.1295 164.934 31.5417C165.315 30.9146 165.702 30.5172 166.095 30.3495C166.605 30.1316 166.997 30.1263 167.271 30.3339C167.568 30.4855 167.8 30.7574 167.968 31.1498C168.286 31.8952 168.442 32.8029 168.436 33.873C168.412 34.9038 168.353 35.5788 168.257 35.8981C168.167 36.447 168.032 37.2705 167.851 38.3683C167.654 39.427 167.482 40.5445 167.335 41.7209C167.189 42.8972 167.123 43.9924 167.139 45.0065C167.166 45.5051 167.202 46.0234 167.246 46.5613C167.313 47.0431 167.414 47.441 167.548 47.7549C167.766 48.2649 168.091 48.4277 168.522 48.2433C168.914 48.0756 169.4 47.6363 169.977 46.9253C170.701 46.0129 171.287 44.9966 171.737 43.8766C172.208 42.7006 172.613 41.6925 172.95 40.8525C172.972 40.7965 173.065 40.5249 173.228 40.0376C173.43 39.5336 173.613 39.038 173.776 38.5507C173.978 38.0467 174.079 37.7947 174.079 37.7947C174.152 37.5315 174.306 37.3496 174.542 37.2489C174.738 37.1651 174.965 37.2074 175.222 37.3757C175.502 37.488 175.709 37.7011 175.844 38.015C175.994 38.3681 176.022 38.7043 175.927 39.0235C175.69 40.0989 175.272 41.345 174.671 42.7618C174.07 44.1787 173.511 45.3686 172.995 46.3317C172.439 47.3116 171.814 48.1821 171.118 48.9434C170.445 49.6486 169.697 50.1773 168.873 50.5294Z" fill="#FF5677"/>
</svg>
