<svg width="186" height="48" viewBox="0 0 186 48" fill="none" xmlns="http://www.w3.org/2000/svg">
<path d="M7.90831 42.9995C6.1145 42.9995 4.66565 42.5557 3.56176 41.6683C2.45787 40.7808 1.90593 39.5861 1.90593 38.0843C1.90593 37.0603 2.19915 36.224 2.78559 35.5755C3.40652 34.9611 4.16545 34.6539 5.06235 34.6539C5.71779 34.6539 6.30423 34.7904 6.82167 35.0635C7.33912 35.3365 7.75308 35.7461 8.06355 36.2923C7.5461 37.0091 7.28738 37.76 7.28738 38.5451C7.28738 39.2277 7.5116 39.7909 7.96006 40.2347C8.40851 40.6784 8.9777 40.9003 9.66763 40.9003C10.4955 40.9003 11.2027 40.6272 11.7892 40.0811C12.4101 39.5349 12.962 38.5792 13.445 37.2139L16.5497 28.4075L4.54491 3.11467L1.07801 2.60267V1.57867H13.9624V2.60267L10.3403 3.21707L18.9817 21.4955L25.1393 3.88267L20.6892 2.60267V1.57867H30.0033V2.60267L26.4847 3.88267L14.8938 37.2139C14.1694 39.2277 13.2898 40.6955 12.2549 41.6171C11.2545 42.5387 9.80562 42.9995 7.90831 42.9995Z" fill="#D7ECFF"/>
<path d="M44.3628 28.5611C41.8791 28.5611 39.6196 27.9979 37.5843 26.8715C35.549 25.7109 33.9277 24.0896 32.7203 22.0075C31.5474 19.8912 30.961 17.4848 30.961 14.7883C30.961 12.0917 31.5474 9.7024 32.7203 7.62027C33.9277 5.53813 35.549 3.93387 37.5843 2.80747C39.6196 1.64693 41.8791 1.06667 44.3628 1.06667C46.8466 1.06667 49.1061 1.64693 51.1414 2.80747C53.1767 3.93387 54.7808 5.53813 55.9537 7.62027C57.161 9.7024 57.7647 12.0917 57.7647 14.7883C57.7647 17.4848 57.161 19.8912 55.9537 22.0075C54.7808 24.0896 53.1767 25.7109 51.1414 26.8715C49.1061 27.9979 46.8466 28.5611 44.3628 28.5611ZM44.3628 27.4347C46.9156 27.4347 48.8301 26.5131 50.1065 24.6699C51.4174 22.8267 52.0728 20.3861 52.0728 17.3483V12.2283C52.0728 9.1904 51.4174 6.76693 50.1065 4.95787C48.8301 3.11467 46.9156 2.19307 44.3628 2.19307C41.8101 2.19307 39.8783 3.11467 38.5674 4.95787C37.2911 6.76693 36.6529 9.1904 36.6529 12.2283V17.3483C36.6529 20.3861 37.2911 22.8267 38.5674 24.6699C39.8783 26.5131 41.8101 27.4347 44.3628 27.4347Z" fill="#D7ECFF"/>
<path d="M59.9244 27.0251L63.5466 26.5131V3.06347L59.9244 2.55147V1.52747H68.721V5.46987C70.8943 2.5344 73.3435 1.06667 76.0688 1.06667C77.3796 1.06667 78.5353 1.408 79.5357 2.09067C80.5361 2.7392 81.0363 3.67787 81.0363 4.90667C81.0363 5.79413 80.743 6.54507 80.1566 7.15947C79.5702 7.73973 78.794 8.02987 77.8281 8.02987C76.7242 8.02987 75.8273 7.6032 75.1374 6.74987C75.5168 6.272 75.7066 5.76 75.7066 5.21387C75.7066 4.6336 75.4996 4.1728 75.0856 3.83147C74.7062 3.456 74.1887 3.26827 73.5333 3.26827C72.8089 3.26827 72.0672 3.6096 71.3083 4.29227C70.5493 4.9408 69.6869 5.9648 68.721 7.36427V26.5131L72.8606 27.0251V28.0491H59.9244V27.0251Z" fill="#D7ECFF"/>
<path d="M88.9615 42.9995C87.1677 42.9995 85.7188 42.5557 84.6149 41.6683C83.5111 40.7808 82.9591 39.5861 82.9591 38.0843C82.9591 37.0603 83.2523 36.224 83.8388 35.5755C84.4597 34.9611 85.2186 34.6539 86.1155 34.6539C86.771 34.6539 87.3574 34.7904 87.8749 35.0635C88.3923 35.3365 88.8063 35.7461 89.1167 36.2923C88.5993 37.0091 88.3406 37.76 88.3406 38.5451C88.3406 39.2277 88.5648 39.7909 89.0132 40.2347C89.4617 40.6784 90.0309 40.9003 90.7208 40.9003C91.5487 40.9003 92.2559 40.6272 92.8423 40.0811C93.4633 39.5349 94.0152 38.5792 94.4982 37.2139L97.6029 28.4075L85.5981 3.11467L82.1312 2.60267V1.57867H95.0156V2.60267L91.3935 3.21707L100.035 21.4955L106.192 3.88267L101.742 2.60267V1.57867H111.056V2.60267L107.538 3.88267L95.947 37.2139C95.2226 39.2277 94.3429 40.6955 93.3081 41.6171C92.3077 42.5387 90.8588 42.9995 88.9615 42.9995Z" fill="#D7ECFF"/>
<path d="M124.597 28.5611C122.044 28.5611 119.733 27.9979 117.663 26.8715C115.593 25.7109 113.955 24.0896 112.747 22.0075C111.54 19.9253 110.936 17.5189 110.936 14.7883C110.936 12.0576 111.523 9.66827 112.695 7.62027C113.903 5.53813 115.507 3.93387 117.508 2.80747C119.543 1.64693 121.803 1.06667 124.286 1.06667C126.46 1.06667 128.409 1.54453 130.133 2.50027C131.858 3.456 133.204 4.7872 134.17 6.49387C135.135 8.1664 135.636 10.0949 135.67 12.2795H116.628V17.3483C116.628 20.352 117.301 22.7925 118.646 24.6699C120.026 26.5131 122.01 27.4347 124.597 27.4347C126.977 27.4347 129.081 26.7691 130.91 25.4379C132.738 24.1067 133.859 22.3829 134.273 20.2667H135.463C134.98 22.7925 133.756 24.8064 131.789 26.3083C129.823 27.8101 127.425 28.5611 124.597 28.5611ZM129.978 10.9995C129.978 8.02987 129.512 5.82827 128.581 4.39467C127.65 2.92693 126.201 2.19307 124.235 2.19307C121.923 2.19307 120.129 2.9952 118.853 4.59947C117.577 6.20373 116.852 8.33707 116.68 10.9995H129.978Z" fill="#D7ECFF"/>
<path d="M138.036 27.0251L141.658 26.5131V3.06347L138.036 2.55147V1.52747H146.832V5.46987C149.005 2.5344 151.455 1.06667 154.18 1.06667C155.491 1.06667 156.646 1.408 157.647 2.09067C158.647 2.7392 159.147 3.67787 159.147 4.90667C159.147 5.79413 158.854 6.54507 158.268 7.15947C157.681 7.73973 156.905 8.02987 155.939 8.02987C154.835 8.02987 153.938 7.6032 153.248 6.74987C153.628 6.272 153.818 5.76 153.818 5.21387C153.818 4.6336 153.611 4.1728 153.197 3.83147C152.817 3.456 152.3 3.26827 151.644 3.26827C150.92 3.26827 150.178 3.6096 149.419 4.29227C148.66 4.9408 147.798 5.9648 146.832 7.36427V26.5131L150.972 27.0251V28.0491H138.036V27.0251Z" fill="#D7ECFF"/>
<path fill-rule="evenodd" clip-rule="evenodd" d="M1.80577 34.6199L1.81282 34.6129C2.50275 33.9303 3.35375 33.5872 4.34368 33.5872C5.05104 33.5872 5.69672 33.735 6.2721 34.0386C6.85488 34.3462 7.31678 34.8065 7.65806 35.4068L7.77007 35.6039L7.63728 35.7878C7.15782 36.452 6.92804 37.1319 6.92804 37.834C6.92804 38.4315 7.12066 38.9013 7.49547 39.2721C7.87028 39.643 8.3451 39.8336 8.94896 39.8336C9.68818 39.8336 10.3065 39.5932 10.8242 39.111L10.8279 39.1076L10.8318 39.1042C11.3843 38.6182 11.9111 37.731 12.3872 36.3853L15.4434 27.7162L3.5828 2.7271L0 2.19798V0.512H13.6031V2.19135L10.1468 2.77762L18.2131 19.8396L23.9575 3.40862L19.6112 2.15847V0.512H29.644V2.13966L26.0502 3.44698L14.5137 36.622C13.7798 38.6622 12.875 40.191 11.7789 41.1682C10.69 42.17 9.14097 42.6439 7.18964 42.6439C5.33533 42.6439 3.79966 42.1843 2.61649 41.2331C1.42236 40.2731 0.827915 38.9738 0.827915 37.3732C0.827915 36.278 1.14356 35.3522 1.79912 34.6273L1.80577 34.6199ZM11.5362 40.906C12.5711 39.9844 13.4507 38.5166 14.1752 36.5028L25.766 3.17155L29.2846 1.89156V0.867555H19.9706V1.89156L24.4206 3.17155L18.263 20.7844L9.62164 2.50596L13.2438 1.89156V0.867555H0.359338V1.89156L3.82623 2.40356L15.831 27.6964L12.7263 36.5028C12.2434 37.8681 11.6914 38.8238 11.0705 39.37C10.484 39.9161 9.77687 40.1892 8.94896 40.1892C8.25903 40.1892 7.68983 39.9673 7.24138 39.5236C6.79293 39.0798 6.5687 38.5166 6.5687 37.834C6.5687 37.0489 6.82742 36.298 7.34487 35.5812C7.0344 35.035 6.62044 34.6254 6.103 34.3524C5.58555 34.0793 4.99911 33.9428 4.34368 33.9428C3.44677 33.9428 2.68785 34.25 2.06691 34.8644C1.48047 35.5129 1.18725 36.3492 1.18725 37.3732C1.18725 38.875 1.7392 40.0697 2.84308 40.9572C3.94697 41.8446 5.39582 42.2884 7.18964 42.2884C9.08694 42.2884 10.5358 41.8276 11.5362 40.906ZM36.6862 26.4684C34.594 25.2755 32.9278 23.6081 31.6899 21.4733L31.6882 21.4703L31.6865 21.4673C30.4813 19.2927 29.883 16.8263 29.883 14.0772C29.883 11.3281 30.4813 8.87774 31.6877 6.73605L31.6899 6.73219C32.9279 4.59726 34.5947 2.94624 36.6882 1.78717C38.7807 0.594469 41.102 0 43.6442 0C46.1863 0 48.5076 0.594451 50.6001 1.78711C52.6938 2.94633 54.3439 4.59791 55.5476 6.73389C56.7893 8.87587 57.4054 11.3271 57.4054 14.0772C57.4054 16.8278 56.7891 19.2953 55.5483 21.4704C54.3447 23.6068 52.6949 25.2751 50.6021 26.4684L50.5981 26.4707C48.5058 27.6287 46.1852 28.2055 43.6442 28.2055C41.1031 28.2055 38.7826 27.6287 36.6902 26.4707L36.6862 26.4684ZM55.235 21.2964C56.4424 19.1801 57.046 16.7737 57.046 14.0772C57.046 11.3806 56.4424 8.99129 55.235 6.90916C54.0621 4.82702 52.458 3.22276 50.4227 2.09635C48.3874 0.935822 46.1279 0.355556 43.6442 0.355556C41.1604 0.355556 38.9009 0.935822 36.8656 2.09635C34.8303 3.22276 33.209 4.82702 32.0016 6.90916C30.8287 8.99129 30.2423 11.3806 30.2423 14.0772C30.2423 16.7737 30.8287 19.1801 32.0016 21.2964C33.209 23.3785 34.8303 24.9998 36.8656 26.1604C38.9009 27.2868 41.1604 27.85 43.6442 27.85C46.1279 27.85 48.3874 27.2868 50.4227 26.1604C52.458 24.9998 54.0621 23.3785 55.235 21.2964ZM49.0936 4.45085L49.0914 4.44773C47.8916 2.7151 46.0964 1.83751 43.6442 1.83751C41.1924 1.83751 39.378 2.715 38.1433 4.45038C36.9223 6.18106 36.2935 8.52542 36.2935 11.5172V16.6372C36.2935 19.6274 36.9217 21.99 38.1439 23.756C39.3785 25.4908 41.1928 26.368 43.6442 26.368C46.0964 26.368 47.8916 25.4904 49.0914 23.7578L49.0939 23.7541C50.3497 21.9885 50.9948 19.6268 50.9948 16.6372V11.5172C50.9948 8.52705 50.3495 6.1841 49.0958 4.45393L49.0936 4.45085ZM58.8464 26.0056L62.4685 25.4936V2.66073L58.8464 2.14873V0.4608H68.3617V3.72419C70.4211 1.27105 72.75 0 75.3501 0C76.7263 0 77.9532 0.359222 79.0176 1.08451C80.1215 1.80167 80.6769 2.85387 80.6769 4.19556C80.6769 5.16879 80.352 6.00852 79.6992 6.69249L79.6956 6.69618L79.692 6.69977C79.0271 7.35771 78.1537 7.67431 77.1094 7.67431C75.8963 7.67431 74.8962 7.1985 74.1381 6.26087L73.9601 6.04075L74.1361 5.81909C74.4718 5.39639 74.6285 4.96021 74.6285 4.50276C74.6285 4.01742 74.4611 3.66078 74.1369 3.3935L74.1244 3.38318L74.1129 3.37177C73.8151 3.0772 73.3972 2.91271 72.8146 2.91271C72.2107 2.91271 71.5515 3.19642 70.8313 3.84424L70.8279 3.84729L70.8244 3.85025C70.1157 4.45591 69.2946 5.42117 68.3617 6.7633V25.4881L72.5013 26.0001V27.6935H58.8464V26.0056ZM68.0023 25.802V6.65316C68.9682 5.25369 69.8307 4.22969 70.5896 3.58116C71.3485 2.89849 72.0902 2.55715 72.8146 2.55715C73.47 2.55715 73.9875 2.74489 74.3669 3.12036C74.7809 3.46169 74.9879 3.92249 74.9879 4.50276C74.9879 5.04889 74.7981 5.56089 74.4187 6.03876C75.1086 6.89209 76.0055 7.31875 77.1094 7.31875C78.0753 7.31875 78.8515 7.02862 79.4379 6.44835C80.0244 5.83395 80.3176 5.08302 80.3176 4.19556C80.3176 2.96675 79.8174 2.02809 78.817 1.37955C77.8166 0.696889 76.6609 0.355556 75.3501 0.355556C72.774 0.355556 70.4446 1.66702 68.3617 4.28994C68.2411 4.44181 68.1213 4.59808 68.0023 4.75876V0.816356H59.2058V1.84035L62.8279 2.35235V25.802L59.2058 26.314V27.338H72.1419V26.314L68.0023 25.802ZM82.859 34.6199L82.866 34.6129C83.5559 33.9303 84.4069 33.5872 85.3969 33.5872C86.1042 33.5872 86.7499 33.735 87.3253 34.0386C87.9081 34.3462 88.37 34.8065 88.7113 35.4068L88.8232 35.6039L88.6905 35.7878C88.211 36.452 87.9812 37.1319 87.9812 37.834C87.9812 38.4315 88.1739 38.9013 88.5487 39.2721C88.9235 39.643 89.3983 39.8336 90.0021 39.8336C90.7414 39.8336 91.3597 39.5932 91.8774 39.111L91.8811 39.1076L91.8849 39.1042C92.4374 38.6183 92.9642 37.7312 93.4402 36.3856M93.4403 36.3853L96.4966 27.7162L84.636 2.7271L81.0532 2.19798V0.512H94.6563V2.19135L91.2 2.77762L99.2663 19.8396L105.011 3.40862L100.664 2.15847V0.512H110.697V2.13966L107.103 3.44698L95.5681 36.6184L95.5669 36.622C94.833 38.6622 93.9282 40.1911 92.832 41.1683C91.7431 42.1701 90.1941 42.6439 88.2428 42.6439C86.3885 42.6439 84.8528 42.1843 83.6697 41.2331C82.4755 40.2731 81.8811 38.9738 81.8811 37.3732C81.8811 36.278 82.1967 35.3522 82.8523 34.6273L82.859 34.6199M92.5894 40.906C93.6243 39.9844 94.5039 38.5166 95.2284 36.5028L106.819 3.17155L110.338 1.89156V0.867555H101.024V1.89156L105.474 3.17155L99.3162 20.7844L90.6748 2.50596L94.2969 1.89156V0.867555H81.4125V1.89156L84.8794 2.40356L96.8842 27.6964L93.7795 36.5028C93.2966 37.8681 92.7446 38.8238 92.1237 39.37C91.5372 39.9161 90.8301 40.1892 90.0021 40.1892C89.3122 40.1892 88.743 39.9673 88.2946 39.5236C87.8461 39.0798 87.6219 38.5166 87.6219 37.834C87.6219 37.0489 87.8806 36.298 88.3981 35.5812C88.0876 35.035 87.6736 34.6254 87.1562 34.3524C86.6387 34.0793 86.0523 33.9428 85.3969 33.9428C84.5 33.9428 83.741 34.25 83.1201 34.8644C82.5337 35.5129 82.2404 36.3492 82.2404 37.3732C82.2404 38.875 82.7924 40.0697 83.8963 40.9572C85.0002 41.8446 86.449 42.2884 88.2428 42.2884C90.1401 42.2884 91.589 41.8276 92.5894 40.906ZM116.771 26.4719L116.767 26.4697C114.64 25.2771 112.956 23.6095 111.717 21.4733C110.474 19.3303 109.858 16.8612 109.858 14.0772C109.858 11.295 110.456 8.84334 111.664 6.73386L111.665 6.7322C112.903 4.59826 114.551 2.9471 116.611 1.7876C118.704 0.594612 121.025 0 123.568 0C125.796 0 127.807 0.490588 129.59 1.47893C131.372 2.46633 132.765 3.8441 133.763 5.60703C134.763 7.33816 135.275 9.32671 135.311 11.5628L135.316 11.9239H116.269V16.6372C116.269 19.5879 116.929 21.9492 118.218 23.7501C119.522 25.4893 121.391 26.368 123.878 26.368C126.186 26.368 128.214 25.7244 129.978 24.4404C131.737 23.1597 132.806 21.5126 133.202 19.488L133.258 19.2H135.178L135.098 19.6217C134.599 22.2288 133.329 24.3209 131.29 25.8786C129.252 27.4351 126.775 28.2055 123.878 28.2055C121.27 28.2055 118.898 27.6295 116.771 26.4719ZM117.927 23.9588C116.582 22.0814 115.909 19.6409 115.909 16.6372V11.5684H134.951C134.95 11.4491 134.946 11.3306 134.942 11.2128C134.861 9.17398 134.364 7.36396 133.451 5.78275C132.485 4.07609 131.14 2.74489 129.415 1.78916C127.69 0.833422 125.741 0.355556 123.568 0.355556C121.084 0.355556 118.824 0.935822 116.789 2.09635C114.788 3.22276 113.184 4.82702 111.977 6.90916C110.804 8.95716 110.217 11.3465 110.217 14.0772C110.217 16.8078 110.821 19.2142 112.029 21.2964C113.236 23.3785 114.874 24.9998 116.944 26.1604C119.014 27.2868 121.325 27.85 123.878 27.85C126.707 27.85 129.104 27.099 131.071 25.5972C132.944 24.1664 134.144 22.2711 134.671 19.9111C134.697 19.7937 134.722 19.6752 134.744 19.5556H133.554C133.14 21.6718 132.019 23.3956 130.191 24.7268C128.363 26.058 126.258 26.7236 123.878 26.7236C121.291 26.7236 119.307 25.802 117.927 23.9588ZM127.56 3.87583L127.558 3.87264C126.701 2.52272 125.377 1.83751 123.516 1.83751C121.3 1.83751 119.616 2.60072 118.417 4.10829C117.257 5.56618 116.559 7.49924 116.348 9.9328H128.898C128.862 7.17129 128.4 5.16874 127.56 3.87583ZM129.257 9.9328C129.259 10.0501 129.26 10.1686 129.26 10.2884H115.961C115.969 10.1688 115.978 10.0503 115.988 9.9328C116.2 7.43538 116.915 5.42056 118.134 3.88835C119.411 2.28409 121.205 1.48196 123.516 1.48196C125.482 1.48196 126.931 2.21582 127.862 3.68356C128.756 5.05934 129.221 7.14242 129.257 9.9328ZM136.958 26.0056L140.58 25.4936V2.66073L136.958 2.14873V0.4608H146.473V3.72419C148.532 1.27105 150.861 0 153.461 0C154.837 0 156.064 0.359172 157.128 1.08436C158.232 1.80153 158.788 2.85378 158.788 4.19556C158.788 5.16879 158.463 6.00852 157.81 6.69249L157.807 6.69618L157.803 6.69977C157.138 7.35771 156.265 7.67431 155.221 7.67431C154.007 7.67431 153.007 7.1985 152.249 6.26087L152.071 6.04075L152.247 5.81909C152.583 5.39639 152.74 4.96021 152.74 4.50276C152.74 4.01742 152.572 3.66078 152.248 3.3935L152.235 3.38318L152.224 3.37177C151.926 3.0772 151.508 2.91271 150.926 2.91271C150.322 2.91271 149.663 3.19642 148.942 3.84424L148.939 3.84729L148.936 3.85025C148.227 4.45591 147.406 5.42118 146.473 6.7633V25.4881L150.612 26.0001V27.6935H136.958V26.0056ZM146.113 25.802V6.65316C147.079 5.25369 147.942 4.22969 148.701 3.58116C149.46 2.89849 150.201 2.55715 150.926 2.55715C151.581 2.55715 152.099 2.74489 152.478 3.12036C152.892 3.46169 153.099 3.92249 153.099 4.50276C153.099 5.04889 152.909 5.56089 152.53 6.03876C153.22 6.89209 154.117 7.31875 155.221 7.31875C156.186 7.31875 156.963 7.02862 157.549 6.44835C158.135 5.83395 158.429 5.08302 158.429 4.19556C158.429 2.96675 157.928 2.02809 156.928 1.37955C155.928 0.696889 154.772 0.355556 153.461 0.355556C150.885 0.355556 148.556 1.66702 146.473 4.28994C146.352 4.44181 146.232 4.59808 146.113 4.75876V0.816356H137.317V1.84035L140.939 2.35235V25.802L137.317 26.314V27.338H150.253V26.314L146.113 25.802ZM49.3878 23.9588C48.1115 25.802 46.1969 26.7236 43.6442 26.7236C41.0914 26.7236 39.1596 25.802 37.8488 23.9588C36.5724 22.1156 35.9342 19.675 35.9342 16.6372V11.5172C35.9342 8.47929 36.5724 6.05582 37.8488 4.24675C39.1596 2.40356 41.0914 1.48196 43.6442 1.48196C46.1969 1.48196 48.1115 2.40356 49.3878 4.24675C50.6987 6.05582 51.3541 8.47929 51.3541 11.5172V16.6372C51.3541 19.675 50.6987 22.1156 49.3878 23.9588Z" fill="#FF5677"/>
<path d="M99.2153 45.1541C98.632 45.1541 98.0896 45.0558 97.588 44.8591C97.0864 44.674 96.684 44.3964 96.3807 44.0262C96.0891 43.6676 95.9433 43.2338 95.9433 42.7247C95.9433 42.1695 96.1007 41.6894 96.4157 41.2845C96.7306 40.8796 97.1389 40.5383 97.6405 40.2606C98.1421 39.983 98.6845 39.7574 99.2678 39.5839C99.8627 39.4104 100.44 39.2773 101 39.1848C101.56 39.0922 102.044 39.0344 102.452 39.0112C102.522 39.0112 102.621 39.0112 102.75 39.0112C102.89 38.9997 103.053 38.9939 103.24 38.9939C103.636 38.9939 104.109 39.0055 104.657 39.0286C105.217 39.0517 105.748 39.098 106.249 39.1674C106.634 38.427 106.973 37.6751 107.264 36.9116C107.567 36.148 107.871 35.3961 108.174 34.6557C108.489 33.9037 108.862 33.1865 109.294 32.5039C108.746 32.5502 108.197 32.6081 107.649 32.6775C107.101 32.7353 106.57 32.8741 106.057 33.0939C104.995 33.5451 104.214 34.0715 103.712 34.673C103.211 35.2746 102.931 35.8125 102.872 36.2869C102.861 36.3447 102.855 36.4025 102.855 36.4604C102.855 36.5067 102.855 36.5529 102.855 36.5992C102.855 36.9578 102.936 37.2239 103.1 37.3974C103.275 37.5594 103.491 37.6404 103.747 37.6404C104.05 37.6404 104.365 37.542 104.692 37.3454C105.03 37.1487 105.328 36.8826 105.584 36.5471C105.841 36.2001 105.987 35.8183 106.022 35.4019V35.2457C106.022 35.13 106.01 35.0548 105.987 35.0201C105.975 34.9738 105.958 34.9449 105.934 34.9333C105.806 34.8524 105.742 34.7656 105.742 34.673C105.742 34.5921 105.783 34.5226 105.864 34.4648C105.946 34.407 106.034 34.378 106.127 34.378C106.255 34.378 106.378 34.4417 106.494 34.5689C106.611 34.6846 106.669 34.8928 106.669 35.1936C106.669 35.7952 106.512 36.3273 106.197 36.7901C105.882 37.2528 105.491 37.6115 105.024 37.866C104.57 38.1205 104.126 38.2477 103.695 38.2477C103.286 38.2477 102.936 38.1205 102.645 37.866C102.353 37.5999 102.207 37.1834 102.207 36.6166C102.207 36.5471 102.207 36.4777 102.207 36.4083C102.219 36.3389 102.231 36.2695 102.242 36.2001C102.324 35.587 102.656 34.9391 103.24 34.2566C103.823 33.5625 104.68 32.984 105.812 32.5213C106.442 32.2552 107.095 32.0933 107.772 32.0354C108.46 31.9776 109.142 31.9082 109.819 31.8272C109.994 31.6652 110.18 31.5322 110.379 31.4281C110.589 31.3239 110.799 31.2719 111.009 31.2719C111.172 31.2719 111.3 31.3124 111.394 31.3934C111.487 31.4743 111.534 31.5727 111.534 31.6884C111.534 31.8272 111.44 31.966 111.254 32.1048C111.079 32.2436 110.77 32.342 110.326 32.3998C110.245 32.4114 110.163 32.423 110.081 32.4345C109.871 32.7122 109.65 33.0708 109.416 33.5104C109.183 33.9384 108.967 34.3723 108.769 34.8119C108.396 35.6448 108.075 36.4257 107.807 37.1545C107.538 37.8833 107.235 38.589 106.897 39.2715C107.177 39.341 107.416 39.4219 107.614 39.5145C107.824 39.5955 107.964 39.6938 108.034 39.8095C108.081 39.8905 108.104 39.9714 108.104 40.0524C108.104 40.2028 108.034 40.278 107.894 40.278C107.777 40.278 107.667 40.2317 107.562 40.1392C107.527 40.116 107.422 40.0813 107.247 40.0351C107.083 39.9772 106.868 39.9194 106.599 39.8615C106.214 40.5556 105.777 41.2208 105.287 41.8571C104.797 42.4934 104.249 43.0602 103.642 43.5577C103.047 44.0551 102.382 44.4427 101.647 44.7203C100.913 45.0095 100.102 45.1541 99.2153 45.1541ZM96.5732 42.7247C96.5732 43.2222 96.8065 43.6444 97.2731 43.9915C97.7513 44.3501 98.3988 44.5294 99.2153 44.5294C100.277 44.5294 101.222 44.3039 102.05 43.8527C102.89 43.4131 103.631 42.8289 104.272 42.1C104.914 41.3828 105.468 40.5961 105.934 39.7401H105.917C105.567 39.6938 105.205 39.6591 104.832 39.6359C104.459 39.6128 104.085 39.6012 103.712 39.6012C102.861 39.6012 102.003 39.6649 101.14 39.7921C100.288 39.9194 99.4953 40.1334 98.7604 40.4342C98.1188 40.6887 97.5939 41.001 97.1856 41.3712C96.7773 41.753 96.5732 42.2042 96.5732 42.7247Z" fill="#FF5677"/>
<path d="M110.942 41.6662C110.546 41.6662 110.266 41.5563 110.102 41.3365C109.939 41.1051 109.857 40.8217 109.857 40.4862C109.857 40.2086 109.898 39.9078 109.98 39.5839C110.073 39.2484 110.19 38.9187 110.33 38.5948C110.342 38.1436 110.464 37.6982 110.697 37.2586C110.942 36.819 111.269 36.4546 111.677 36.1654C112.097 35.8762 112.587 35.7316 113.147 35.7316C113.695 35.7316 114.074 35.8877 114.284 36.2001C114.506 36.5124 114.617 36.8826 114.617 37.3107C114.617 37.5652 114.588 37.8255 114.529 38.0915C114.471 38.3461 114.395 38.589 114.302 38.8204C114.209 39.0517 114.092 39.2889 113.952 39.5318C113.812 39.7632 113.654 39.9946 113.479 40.2259C113.829 40.1681 114.133 40.0582 114.389 39.8962C114.658 39.7227 114.926 39.4856 115.194 39.1848C115.463 38.884 115.777 38.5022 116.139 38.0395C116.209 37.9585 116.285 37.918 116.367 37.918C116.46 37.918 116.536 37.9469 116.594 38.0048C116.664 38.0626 116.699 38.1378 116.699 38.2304C116.699 38.2998 116.676 38.3634 116.629 38.4212C116.291 38.884 115.947 39.3005 115.597 39.6707C115.258 40.0408 114.873 40.3301 114.442 40.5383C114.01 40.7465 113.491 40.8506 112.885 40.8506C112.605 41.0936 112.301 41.2902 111.975 41.4406C111.648 41.591 111.304 41.6662 110.942 41.6662ZM111.957 37.1718C111.817 37.276 111.648 37.4842 111.45 37.7965C111.251 38.1089 111.071 38.4502 110.907 38.8204C110.931 39.179 111.076 39.5029 111.345 39.7921C111.625 40.0698 112.051 40.2259 112.622 40.2606C113.042 39.8557 113.38 39.3814 113.637 38.8377C113.894 38.2824 114.022 37.785 114.022 37.3454C114.022 37.0446 113.952 36.8017 113.812 36.6166C113.672 36.4315 113.45 36.3389 113.147 36.3389C112.937 36.3389 112.733 36.3736 112.535 36.443C112.336 36.5124 112.155 36.605 111.992 36.7207C112.051 36.7785 112.08 36.8479 112.08 36.9289C112.08 37.0215 112.039 37.1024 111.957 37.1718ZM110.47 40.4515C110.47 40.6366 110.505 40.787 110.575 40.9027C110.657 41.0068 110.779 41.0589 110.942 41.0589C111.281 41.0589 111.625 40.9548 111.975 40.7465C111.636 40.6655 111.351 40.5383 111.117 40.3648C110.884 40.1797 110.703 39.9714 110.575 39.7401C110.505 40.0177 110.47 40.2549 110.47 40.4515Z" fill="#FF5677"/>
<path d="M118.613 41.2671C118.403 41.2671 118.228 41.2093 118.088 41.0936C117.96 40.9779 117.896 40.8159 117.896 40.6077C117.896 40.1681 118.006 39.7285 118.228 39.2889C118.45 38.8377 118.7 38.3981 118.98 37.9701C119.272 37.5305 119.511 37.1256 119.698 36.7554C119.511 36.8826 119.301 36.9752 119.068 37.033C118.835 37.0909 118.607 37.1198 118.385 37.1198C118.071 37.1198 117.826 37.0793 117.651 36.9983C117.429 37.3801 117.172 37.7676 116.881 38.161C116.589 38.5427 116.303 38.8898 116.023 39.2021C115.755 39.5145 115.528 39.7516 115.341 39.9136C115.259 39.983 115.178 40.0177 115.096 40.0177C115.014 40.0177 114.944 39.9888 114.886 39.9309C114.828 39.8731 114.798 39.8095 114.798 39.7401C114.798 39.6822 114.822 39.6302 114.868 39.5839C115.078 39.3641 115.323 39.0807 115.603 38.7336C115.895 38.3865 116.181 38.0163 116.461 37.623C116.752 37.2297 116.992 36.8653 117.178 36.5298C117.166 36.2984 117.196 36.0381 117.266 35.7489C117.347 35.4597 117.452 35.1821 117.581 34.916C117.721 34.6499 117.872 34.4301 118.036 34.2566C118.199 34.0715 118.368 33.9789 118.543 33.9789C118.73 33.9789 118.823 34.0888 118.823 34.3086C118.823 34.4937 118.765 34.7309 118.648 35.0201C118.543 35.3093 118.415 35.5927 118.263 35.8704C118.123 36.1365 118.001 36.3563 117.896 36.5298C118.047 36.5761 118.205 36.5992 118.368 36.5992C118.648 36.5992 118.893 36.5471 119.103 36.443C119.313 36.3273 119.499 36.2174 119.663 36.1133C119.826 35.9976 119.966 35.9398 120.083 35.9398C120.234 35.9398 120.334 35.9803 120.38 36.0613C120.439 36.1307 120.468 36.2232 120.468 36.3389C120.468 36.5587 120.409 36.8017 120.293 37.0677C120.176 37.3222 120.089 37.4842 120.03 37.5536C119.949 37.6809 119.826 37.8717 119.663 38.1263C119.499 38.3692 119.336 38.6295 119.173 38.9071C119.01 39.1848 118.875 39.4508 118.77 39.7054C118.724 39.8326 118.677 39.9656 118.63 40.1045C118.595 40.2317 118.578 40.3416 118.578 40.4342C118.578 40.5846 118.642 40.6598 118.77 40.6598C118.887 40.6598 119.056 40.6019 119.278 40.4862C119.558 40.3358 119.814 40.145 120.048 39.9136C120.293 39.6707 120.503 39.4624 120.678 39.2889C120.689 39.2773 120.742 39.2195 120.835 39.1154C120.94 39.0112 121.039 38.9071 121.133 38.803C121.238 38.6989 121.29 38.6468 121.29 38.6468C121.337 38.589 121.395 38.5601 121.465 38.5601C121.523 38.5601 121.576 38.5948 121.623 38.6642C121.681 38.722 121.71 38.7972 121.71 38.8898C121.71 38.9939 121.681 39.0807 121.623 39.1501C121.448 39.393 121.208 39.6591 120.905 39.9483C120.602 40.2375 120.334 40.4747 120.1 40.6598C119.855 40.8449 119.604 40.9953 119.348 41.1109C119.103 41.2151 118.858 41.2671 118.613 41.2671Z" fill="#FF5677"/>
<path d="M121.874 41.2498C121.547 41.2498 121.302 41.1572 121.139 40.9721C120.987 40.7754 120.911 40.5325 120.911 40.2433C120.911 39.9194 121.005 39.5434 121.191 39.1154C121.39 38.6758 121.646 38.2246 121.961 37.7618C122.276 37.2991 122.62 36.8711 122.994 36.4777C123.379 36.0728 123.764 35.7489 124.148 35.506C124.533 35.2515 124.889 35.1242 125.216 35.1242C126.126 35.1242 126.581 35.5349 126.581 36.3563C126.581 36.5067 126.546 36.6166 126.476 36.686C126.406 36.7438 126.336 36.7727 126.266 36.7727C126.172 36.7727 126.114 36.7265 126.091 36.6339C126.044 36.2637 125.927 36.0208 125.741 35.9051C125.554 35.7894 125.379 35.7316 125.216 35.7316C124.983 35.7316 124.708 35.8472 124.393 36.0786C124.078 36.31 123.758 36.605 123.431 36.9636C123.104 37.3222 122.795 37.7098 122.504 38.1263C122.224 38.5312 121.996 38.9245 121.821 39.3062C121.646 39.6764 121.559 39.983 121.559 40.2259C121.559 40.3416 121.576 40.4457 121.611 40.5383C121.658 40.6308 121.728 40.6771 121.821 40.6771C121.996 40.6771 122.224 40.5846 122.504 40.3995C122.784 40.2144 123.087 39.9772 123.414 39.688C123.74 39.3988 124.061 39.0922 124.376 38.7683C124.703 38.4444 124.988 38.1378 125.233 37.8486C125.49 37.5594 125.682 37.3222 125.811 37.1371C125.869 37.0446 125.945 36.9983 126.038 36.9983C126.225 36.9983 126.318 37.1082 126.318 37.328C126.318 37.3512 126.312 37.3801 126.301 37.4148C126.301 37.4379 126.295 37.4668 126.283 37.5015C126.167 37.9412 125.992 38.4617 125.758 39.0633C125.537 39.6649 125.286 40.2896 125.006 40.9374C125.111 40.949 125.222 40.9721 125.338 41.0068C125.49 41.0415 125.566 41.1341 125.566 41.2845C125.566 41.3654 125.525 41.4464 125.443 41.5274C125.373 41.6084 125.28 41.6315 125.163 41.5968C125.082 41.5737 125 41.5563 124.918 41.5448C124.848 41.5332 124.79 41.5274 124.743 41.5274C124.393 42.2794 124.032 43.0024 123.659 43.6965C123.285 44.4022 122.935 44.998 122.609 45.4838C122.317 45.9003 121.99 46.2994 121.629 46.6812C121.267 47.0745 120.882 47.3927 120.474 47.6356C120.066 47.8785 119.652 48 119.232 48C118.765 48 118.403 47.8843 118.147 47.6529C117.89 47.4216 117.762 47.115 117.762 46.7332C117.762 46.3862 117.855 45.9986 118.042 45.5706C118.217 45.1426 118.462 44.7145 118.777 44.2865C119.162 43.7659 119.64 43.2569 120.212 42.7595C120.795 42.262 121.436 41.8455 122.136 41.51C122.836 41.1861 123.565 40.9952 124.323 40.9374C124.51 40.5094 124.685 40.1045 124.848 39.7227C125.012 39.3294 125.152 38.9708 125.268 38.6468C124.545 39.4682 123.88 40.1103 123.274 40.573C122.679 41.0242 122.212 41.2498 121.874 41.2498ZM118.409 46.6638C118.409 46.8721 118.473 47.0456 118.602 47.1844C118.73 47.3232 118.958 47.3927 119.284 47.3927C119.681 47.3927 120.089 47.2191 120.509 46.8721C120.929 46.5366 121.343 46.0854 121.751 45.5186C122.171 44.9517 122.574 44.327 122.959 43.6444C123.344 42.9619 123.699 42.2678 124.026 41.5621C123.384 41.6547 122.766 41.8513 122.171 42.1521C121.576 42.4645 121.028 42.8346 120.526 43.2627C120.037 43.7023 119.622 44.1592 119.284 44.6336C119.191 44.7608 119.074 44.9401 118.934 45.1715C118.794 45.4144 118.672 45.6632 118.567 45.9177C118.462 46.1837 118.409 46.4325 118.409 46.6638Z" fill="#FF5677"/>
<path d="M128.41 41.6315C128.049 41.6315 127.739 41.5216 127.483 41.3018C127.238 41.082 127.115 40.7003 127.115 40.1565C127.115 39.7863 127.209 39.3525 127.395 38.8551C127.594 38.3576 127.856 37.8775 128.183 37.4148C128.509 36.9405 128.871 36.5529 129.268 36.2521C129.664 35.9398 130.067 35.7836 130.475 35.7836C130.743 35.7836 130.942 35.882 131.07 36.0786C131.21 36.2637 131.28 36.4893 131.28 36.7554C131.28 37.1487 131.151 37.5305 130.895 37.9007C130.638 38.2709 130.312 38.5716 129.915 38.803C129.53 39.0344 129.145 39.1501 128.76 39.1501C128.445 39.1501 128.206 39.0517 128.043 38.8551C127.949 39.0864 127.874 39.312 127.815 39.5318C127.757 39.7516 127.728 39.9599 127.728 40.1565C127.728 40.492 127.798 40.7292 127.938 40.868C128.089 40.9952 128.276 41.0589 128.498 41.0589C128.766 41.0589 129.063 40.9895 129.39 40.8506C129.728 40.7118 130.043 40.5499 130.335 40.3648C130.627 40.1681 130.842 40.0061 130.982 39.8789C131.216 39.6822 131.437 39.4682 131.647 39.2368C131.869 38.9939 132.061 38.7683 132.225 38.5601C132.283 38.4907 132.347 38.456 132.417 38.456C132.487 38.456 132.545 38.4907 132.592 38.5601C132.65 38.6179 132.68 38.6931 132.68 38.7857C132.68 38.8666 132.65 38.9476 132.592 39.0286C132.405 39.26 132.172 39.526 131.892 39.8268C131.624 40.116 131.321 40.3879 130.982 40.6424C130.796 40.7928 130.557 40.9432 130.265 41.0936C129.973 41.244 129.664 41.3712 129.338 41.4753C129.023 41.5795 128.713 41.6315 128.41 41.6315ZM128.725 38.5948C128.958 38.5948 129.209 38.5196 129.478 38.3692C129.758 38.2188 130.002 38.0221 130.212 37.7792C130.434 37.5247 130.58 37.2528 130.65 36.9636C130.662 36.9405 130.667 36.9116 130.667 36.8769C130.667 36.8421 130.667 36.8132 130.667 36.7901C130.667 36.5819 130.592 36.4777 130.44 36.4777C130.195 36.4777 129.938 36.5703 129.67 36.7554C129.402 36.9289 129.145 37.1661 128.9 37.4668C128.667 37.7561 128.457 38.0742 128.27 38.4212C128.317 38.456 128.364 38.4907 128.41 38.5254C128.457 38.5485 128.504 38.5659 128.55 38.5774C128.574 38.589 128.603 38.5948 128.638 38.5948C128.673 38.5948 128.702 38.5948 128.725 38.5948Z" fill="#FF5677"/>
<path d="M149.437 44.3386C149.006 44.3386 148.627 44.2113 148.3 43.9568C147.973 43.7023 147.81 43.2858 147.81 42.7074C147.822 42.1752 147.933 41.5737 148.143 40.9027C148.364 40.2317 148.644 39.5318 148.983 38.803C149.332 38.0742 149.706 37.3512 150.102 36.6339C150.511 35.9051 150.907 35.2168 151.292 34.5689C151.677 33.9211 152.015 33.3484 152.307 32.851C152.435 32.6428 152.523 32.4692 152.57 32.3304C152.616 32.18 152.639 32.0586 152.639 31.966C152.639 31.7462 152.505 31.6363 152.237 31.6363C152.062 31.6363 151.846 31.6826 151.59 31.7751C151.345 31.8561 151.088 31.9602 150.82 32.0875C150.563 32.2032 150.33 32.3246 150.12 32.4519C149.91 32.5676 149.758 32.6601 149.665 32.7295C148.522 33.5972 147.484 34.5921 146.55 35.7142C146.375 35.9109 146.136 36.2059 145.833 36.5992C145.541 36.981 145.215 37.409 144.853 37.8833C144.503 38.3461 144.147 38.8204 143.786 39.3062C143.436 39.7806 143.109 40.2202 142.806 40.6251C142.514 41.03 142.275 41.3539 142.088 41.5968C141.913 41.8513 141.826 41.9786 141.826 41.9786C141.744 42.0827 141.645 42.1348 141.529 42.1348C141.342 42.1348 141.249 42.0422 141.249 41.8571C141.249 41.7993 141.266 41.7356 141.301 41.6662C141.301 41.6662 141.359 41.5621 141.476 41.3539C141.604 41.1341 141.768 40.8449 141.966 40.4862C142.164 40.1276 142.38 39.7401 142.613 39.3236C142.858 38.9071 143.092 38.4907 143.313 38.0742C143.535 37.6577 143.733 37.2817 143.908 36.9463C144.363 36.0555 144.684 35.2804 144.871 34.621C145.069 33.9616 145.168 33.4121 145.168 32.9725C145.168 32.2899 145.011 31.8214 144.696 31.5669C144.381 31.3124 144.019 31.1851 143.611 31.1851C142.829 31.1851 142.094 31.3297 141.406 31.6189C140.718 31.8966 140.082 32.2668 139.499 32.7295C138.927 33.1923 138.432 33.7013 138.012 34.2566C137.603 34.8119 137.282 35.3729 137.049 35.9398C136.828 36.4951 136.717 37.0041 136.717 37.4668C136.717 37.9527 136.857 38.3518 137.137 38.6642C137.417 38.965 137.854 39.1154 138.449 39.1154C138.962 39.1154 139.435 39.0112 139.866 38.803C140.298 38.5948 140.671 38.3345 140.986 38.0221C141.301 37.6982 141.54 37.3685 141.704 37.033C141.879 36.686 141.966 36.3794 141.966 36.1133C141.966 35.6622 141.727 35.4366 141.249 35.4366H141.231C141.126 35.4366 141.044 35.4134 140.986 35.3672C140.939 35.3093 140.916 35.2515 140.916 35.1936C140.916 35.0201 141.056 34.9333 141.336 34.9333C141.768 34.9333 142.083 35.049 142.281 35.2804C142.479 35.5002 142.578 35.7778 142.578 36.1133C142.578 36.4604 142.479 36.8421 142.281 37.2586C142.083 37.6751 141.797 38.0742 141.424 38.456C141.062 38.8261 140.619 39.1327 140.094 39.3757C139.581 39.607 139.009 39.7227 138.379 39.7227C137.562 39.7227 136.968 39.5145 136.594 39.098C136.221 38.6815 136.034 38.1552 136.034 37.5189C136.034 36.6513 136.332 35.7142 136.927 34.7077C137.347 34.0021 137.889 33.3369 138.554 32.7122C139.231 32.0759 140 31.5611 140.864 31.1678C141.727 30.7744 142.648 30.5778 143.628 30.5778C144.456 30.5778 145.028 30.7744 145.343 31.1678C145.67 31.5611 145.833 32.0586 145.833 32.6601C145.833 33.1113 145.769 33.5914 145.64 34.1004C145.512 34.5978 145.349 35.0895 145.151 35.5754C144.964 36.0613 144.771 36.5067 144.573 36.9116C144.386 37.3165 144.229 37.6404 144.101 37.8833C144.509 37.3396 144.888 36.8364 145.238 36.3736C145.588 35.9109 145.856 35.5638 146.043 35.3325C146.37 34.9623 146.772 34.5342 147.25 34.0483C147.729 33.5509 148.248 33.0766 148.808 32.6254C149.379 32.1627 149.957 31.7809 150.54 31.4801C151.135 31.1793 151.712 31.029 152.272 31.029C152.96 31.029 153.304 31.3124 153.304 31.8792C153.304 32.2379 153.159 32.6543 152.867 33.1286C152.774 33.2906 152.605 33.5798 152.36 33.9963C152.115 34.4012 151.823 34.8928 151.485 35.4713C151.158 36.0381 150.82 36.6513 150.47 37.3107C150.12 37.9701 149.793 38.6295 149.49 39.2889C149.187 39.9483 148.942 40.573 148.755 41.163C148.568 41.7414 148.475 42.2389 148.475 42.6553C148.475 42.9793 148.545 43.2395 148.685 43.4362C148.837 43.6329 149.082 43.7312 149.42 43.7312C149.712 43.7312 150.015 43.656 150.33 43.5056C150.645 43.3668 150.884 43.2106 151.047 43.0371C151.106 42.9445 151.193 42.8983 151.31 42.8983C151.391 42.8983 151.461 42.9214 151.52 42.9677C151.578 43.0255 151.607 43.0949 151.607 43.1759C151.607 43.2685 151.578 43.3437 151.52 43.4015C151.263 43.6907 150.942 43.9163 150.557 44.0783C150.184 44.2518 149.811 44.3386 149.437 44.3386Z" fill="#FF5677"/>
<path d="M152.772 41.6662C152.376 41.6662 152.096 41.5563 151.932 41.3365C151.769 41.1051 151.688 40.8217 151.688 40.4862C151.688 40.2086 151.728 39.9078 151.81 39.5839C151.903 39.2484 152.02 38.9187 152.16 38.5948C152.172 38.1436 152.294 37.6982 152.527 37.2586C152.772 36.819 153.099 36.4546 153.507 36.1654C153.927 35.8762 154.417 35.7316 154.977 35.7316C155.525 35.7316 155.904 35.8877 156.114 36.2001C156.336 36.5124 156.447 36.8826 156.447 37.3107C156.447 37.5652 156.418 37.8255 156.359 38.0915C156.301 38.3461 156.225 38.589 156.132 38.8204C156.039 39.0517 155.922 39.2889 155.782 39.5318C155.642 39.7632 155.484 39.9946 155.31 40.2259C155.659 40.1681 155.963 40.0582 156.219 39.8962C156.488 39.7227 156.756 39.4856 157.024 39.1848C157.293 38.884 157.608 38.5022 157.969 38.0395C158.039 37.9585 158.115 37.918 158.197 37.918C158.29 37.918 158.366 37.9469 158.424 38.0048C158.494 38.0626 158.529 38.1378 158.529 38.2304C158.529 38.2998 158.506 38.3634 158.459 38.4212C158.121 38.884 157.777 39.3005 157.427 39.6707C157.088 40.0408 156.703 40.3301 156.272 40.5383C155.84 40.7465 155.321 40.8506 154.715 40.8506C154.435 41.0936 154.131 41.2902 153.805 41.4406C153.478 41.591 153.134 41.6662 152.772 41.6662ZM153.787 37.1718C153.647 37.276 153.478 37.4842 153.28 37.7965C153.081 38.1089 152.901 38.4502 152.737 38.8204C152.761 39.179 152.907 39.5029 153.175 39.7921C153.455 40.0698 153.881 40.2259 154.452 40.2606C154.872 39.8557 155.21 39.3814 155.467 38.8377C155.724 38.2824 155.852 37.785 155.852 37.3454C155.852 37.0446 155.782 36.8017 155.642 36.6166C155.502 36.4315 155.28 36.3389 154.977 36.3389C154.767 36.3389 154.563 36.3736 154.365 36.443C154.166 36.5124 153.986 36.605 153.822 36.7207C153.881 36.7785 153.91 36.8479 153.91 36.9289C153.91 37.0215 153.869 37.1024 153.787 37.1718ZM152.3 40.4515C152.3 40.6366 152.335 40.787 152.405 40.9027C152.487 41.0068 152.609 41.0589 152.772 41.0589C153.111 41.0589 153.455 40.9548 153.805 40.7465C153.466 40.6655 153.181 40.5383 152.947 40.3648C152.714 40.1797 152.533 39.9714 152.405 39.7401C152.335 40.0177 152.3 40.2549 152.3 40.4515Z" fill="#FF5677"/>
<path d="M158.133 41.2498C157.807 41.2498 157.562 41.1572 157.398 40.9721C157.247 40.7754 157.171 40.5325 157.171 40.2433C157.171 39.9194 157.264 39.5434 157.451 39.1154C157.649 38.6758 157.906 38.2246 158.221 37.7618C158.536 37.2991 158.88 36.8711 159.253 36.4777C159.638 36.0728 160.023 35.7489 160.408 35.506C160.793 35.2515 161.149 35.1242 161.475 35.1242C162.385 35.1242 162.84 35.5349 162.84 36.3563C162.84 36.5067 162.805 36.6166 162.735 36.686C162.665 36.7438 162.595 36.7727 162.525 36.7727C162.432 36.7727 162.374 36.7265 162.35 36.6339C162.304 36.2637 162.187 36.0208 162 35.9051C161.814 35.7894 161.639 35.7316 161.475 35.7316C161.242 35.7316 160.968 35.8472 160.653 36.0786C160.338 36.31 160.017 36.605 159.691 36.9636C159.364 37.3222 159.055 37.7098 158.763 38.1263C158.483 38.5312 158.256 38.9245 158.081 39.3062C157.906 39.6764 157.818 39.983 157.818 40.2259C157.818 40.3416 157.836 40.4457 157.871 40.5383C157.917 40.6308 157.987 40.6771 158.081 40.6771C158.256 40.6771 158.483 40.5846 158.763 40.3995C159.043 40.2144 159.346 39.9772 159.673 39.688C160 39.3988 160.32 39.0922 160.635 38.7683C160.962 38.4444 161.248 38.1378 161.493 37.8486C161.749 37.5594 161.942 37.3222 162.07 37.1371C162.129 37.0446 162.204 36.9983 162.298 36.9983C162.484 36.9983 162.578 37.1082 162.578 37.328C162.578 37.3512 162.572 37.3801 162.56 37.4148C162.56 37.4379 162.554 37.4668 162.543 37.5015C162.426 37.9412 162.251 38.4617 162.018 39.0633C161.796 39.6649 161.545 40.2896 161.265 40.9374C161.37 40.949 161.481 40.9721 161.598 41.0068C161.749 41.0415 161.825 41.1341 161.825 41.2845C161.825 41.3654 161.784 41.4464 161.703 41.5274C161.633 41.6084 161.539 41.6315 161.423 41.5968C161.341 41.5737 161.26 41.5563 161.178 41.5448C161.108 41.5332 161.05 41.5274 161.003 41.5274C160.653 42.2794 160.291 43.0024 159.918 43.6965C159.545 44.4022 159.195 44.998 158.868 45.4838C158.577 45.9003 158.25 46.2994 157.888 46.6812C157.527 47.0745 157.142 47.3927 156.734 47.6356C156.325 47.8785 155.911 48 155.491 48C155.025 48 154.663 47.8843 154.406 47.6529C154.15 47.4216 154.021 47.115 154.021 46.7332C154.021 46.3862 154.115 45.9986 154.301 45.5706C154.476 45.1426 154.721 44.7145 155.036 44.2865C155.421 43.7659 155.899 43.2569 156.471 42.7595C157.054 42.262 157.696 41.8455 158.396 41.51C159.096 41.1861 159.825 40.9952 160.583 40.9374C160.77 40.5094 160.945 40.1045 161.108 39.7227C161.271 39.3294 161.411 38.9708 161.528 38.6468C160.805 39.4682 160.14 40.1103 159.533 40.573C158.938 41.0242 158.472 41.2498 158.133 41.2498ZM154.669 46.6638C154.669 46.8721 154.733 47.0456 154.861 47.1844C154.99 47.3232 155.217 47.3927 155.544 47.3927C155.94 47.3927 156.349 47.2191 156.769 46.8721C157.188 46.5366 157.603 46.0854 158.011 45.5186C158.431 44.9517 158.833 44.327 159.218 43.6444C159.603 42.9619 159.959 42.2678 160.286 41.5621C159.644 41.6547 159.026 41.8513 158.431 42.1521C157.836 42.4645 157.288 42.8346 156.786 43.2627C156.296 43.7023 155.882 44.1592 155.544 44.6336C155.45 44.7608 155.334 44.9401 155.194 45.1715C155.054 45.4144 154.931 45.6632 154.826 45.9177C154.721 46.1837 154.669 46.4325 154.669 46.6638Z" fill="#FF5677"/>
<path d="M163.34 41.4059C163.153 41.4059 163.013 41.3423 162.92 41.215C162.827 41.0878 162.78 40.9316 162.78 40.7465C162.78 40.4457 162.862 40.1334 163.025 39.8095C163.188 39.474 163.387 39.1385 163.62 38.803C163.853 38.4675 164.11 38.1205 164.39 37.7618C164.448 37.6924 164.53 37.571 164.635 37.3974C164.751 37.2239 164.856 37.0446 164.95 36.8595C165.043 36.6744 165.084 36.5298 165.072 36.4257C165.061 36.229 165.101 36.0844 165.195 35.9919C165.288 35.8877 165.393 35.8357 165.51 35.8357C165.626 35.8357 165.714 35.882 165.772 35.9745C165.842 36.0786 165.877 36.2059 165.877 36.3563C165.877 36.5182 165.819 36.7207 165.702 36.9636C165.597 37.195 165.41 37.49 165.142 37.8486C164.932 38.1263 164.699 38.427 164.442 38.7509C164.197 39.0633 163.987 39.3699 163.812 39.6707C163.637 39.9714 163.55 40.2259 163.55 40.4342C163.55 40.5846 163.614 40.6598 163.742 40.6598C163.824 40.6598 163.941 40.6251 164.092 40.5556C164.279 40.4631 164.536 40.2838 164.862 40.0177C165.2 39.7516 165.55 39.4508 165.912 39.1154C166.285 38.7683 166.624 38.4328 166.927 38.1089C167.242 37.785 167.469 37.5305 167.609 37.3454C167.679 37.2413 167.767 37.1892 167.872 37.1892C167.953 37.1892 168.029 37.2181 168.099 37.276C168.169 37.3338 168.204 37.409 168.204 37.5015C168.204 37.5478 168.187 37.5999 168.152 37.6577C168.082 37.785 167.988 37.9643 167.872 38.1957C167.755 38.427 167.638 38.6758 167.522 38.9418C167.417 39.2079 167.324 39.4566 167.242 39.688C167.172 39.9078 167.137 40.0756 167.137 40.1912C167.137 40.3185 167.178 40.3821 167.259 40.3821C167.318 40.3821 167.388 40.3532 167.469 40.2954C167.563 40.2259 167.644 40.1681 167.714 40.1218C168.006 39.8905 168.274 39.6475 168.519 39.393C168.776 39.1269 169.009 38.8782 169.219 38.6468C169.266 38.589 169.324 38.5601 169.394 38.5601C169.452 38.5601 169.505 38.5948 169.552 38.6642C169.61 38.722 169.639 38.7972 169.639 38.8898C169.639 38.9939 169.61 39.0807 169.552 39.1501C169.365 39.393 169.12 39.6649 168.817 39.9656C168.513 40.2549 168.245 40.4862 168.012 40.6598C167.86 40.7639 167.679 40.868 167.469 40.9721C167.271 41.0647 167.084 41.1109 166.909 41.1109C166.758 41.1109 166.635 41.0704 166.542 40.9895C166.46 40.8969 166.419 40.7407 166.419 40.5209C166.419 40.3358 166.449 40.1218 166.507 39.8789C166.577 39.6359 166.659 39.3872 166.752 39.1327C166.355 39.526 165.906 39.9194 165.405 40.3127C164.915 40.706 164.466 41.001 164.057 41.1977C163.766 41.3365 163.527 41.4059 163.34 41.4059Z" fill="#FF5677"/>
<path d="M170.172 41.6315C169.81 41.6315 169.501 41.5216 169.245 41.3018C169 41.082 168.877 40.7003 168.877 40.1565C168.877 39.7863 168.97 39.3525 169.157 38.8551C169.355 38.3576 169.618 37.8775 169.944 37.4148C170.271 36.9405 170.633 36.5529 171.029 36.2521C171.426 35.9398 171.828 35.7836 172.237 35.7836C172.505 35.7836 172.703 35.882 172.832 36.0786C172.971 36.2637 173.041 36.4893 173.041 36.7554C173.041 37.1487 172.913 37.5305 172.657 37.9007C172.4 38.2709 172.073 38.5716 171.677 38.803C171.292 39.0344 170.907 39.1501 170.522 39.1501C170.207 39.1501 169.968 39.0517 169.804 38.8551C169.711 39.0864 169.635 39.312 169.577 39.5318C169.519 39.7516 169.489 39.9599 169.489 40.1565C169.489 40.492 169.559 40.7292 169.699 40.868C169.851 40.9952 170.038 41.0589 170.259 41.0589C170.528 41.0589 170.825 40.9895 171.152 40.8506C171.49 40.7118 171.805 40.5499 172.097 40.3648C172.388 40.1681 172.604 40.0061 172.744 39.8789C172.977 39.6822 173.199 39.4682 173.409 39.2368C173.631 38.9939 173.823 38.7683 173.986 38.5601C174.045 38.4907 174.109 38.456 174.179 38.456C174.249 38.456 174.307 38.4907 174.354 38.5601C174.412 38.6179 174.441 38.6931 174.441 38.7857C174.441 38.8666 174.412 38.9476 174.354 39.0286C174.167 39.26 173.934 39.526 173.654 39.8268C173.386 40.116 173.082 40.3879 172.744 40.6424C172.557 40.7928 172.318 40.9432 172.027 41.0936C171.735 41.244 171.426 41.3712 171.099 41.4753C170.784 41.5795 170.475 41.6315 170.172 41.6315ZM170.487 38.5948C170.72 38.5948 170.971 38.5196 171.239 38.3692C171.519 38.2188 171.764 38.0221 171.974 37.7792C172.196 37.5247 172.342 37.2528 172.412 36.9636C172.423 36.9405 172.429 36.9116 172.429 36.8769C172.429 36.8421 172.429 36.8132 172.429 36.7901C172.429 36.5819 172.353 36.4777 172.202 36.4777C171.957 36.4777 171.7 36.5703 171.432 36.7554C171.163 36.9289 170.907 37.1661 170.662 37.4668C170.429 37.7561 170.219 38.0742 170.032 38.4212C170.079 38.456 170.125 38.4907 170.172 38.5254C170.219 38.5485 170.265 38.5659 170.312 38.5774C170.335 38.589 170.364 38.5948 170.399 38.5948C170.434 38.5948 170.464 38.5948 170.487 38.5948Z" fill="#FF5677"/>
<path d="M176.813 41.2671C176.603 41.2671 176.428 41.2093 176.288 41.0936C176.16 40.9779 176.095 40.8159 176.095 40.6077C176.095 40.1681 176.206 39.7285 176.428 39.2889C176.649 38.8377 176.9 38.3981 177.18 37.9701C177.472 37.5305 177.711 37.1256 177.898 36.7554C177.711 36.8826 177.501 36.9752 177.268 37.033C177.034 37.0909 176.807 37.1198 176.585 37.1198C176.27 37.1198 176.025 37.0793 175.85 36.9983C175.629 37.3801 175.372 37.7676 175.08 38.161C174.789 38.5427 174.503 38.8898 174.223 39.2021C173.955 39.5145 173.727 39.7516 173.541 39.9136C173.459 39.983 173.377 40.0177 173.296 40.0177C173.214 40.0177 173.144 39.9888 173.086 39.9309C173.027 39.8731 172.998 39.8095 172.998 39.7401C172.998 39.6822 173.022 39.6302 173.068 39.5839C173.278 39.3641 173.523 39.0807 173.803 38.7336C174.095 38.3865 174.381 38.0163 174.661 37.623C174.952 37.2297 175.191 36.8653 175.378 36.5298C175.366 36.2984 175.395 36.0381 175.465 35.7489C175.547 35.4597 175.652 35.1821 175.78 34.916C175.92 34.6499 176.072 34.4301 176.235 34.2566C176.399 34.0715 176.568 33.9789 176.743 33.9789C176.929 33.9789 177.023 34.0888 177.023 34.3086C177.023 34.4937 176.964 34.7309 176.848 35.0201C176.743 35.3093 176.614 35.5927 176.463 35.8704C176.323 36.1365 176.2 36.3563 176.095 36.5298C176.247 36.5761 176.404 36.5992 176.568 36.5992C176.848 36.5992 177.093 36.5471 177.303 36.443C177.513 36.3273 177.699 36.2174 177.863 36.1133C178.026 35.9976 178.166 35.9398 178.283 35.9398C178.434 35.9398 178.533 35.9803 178.58 36.0613C178.638 36.1307 178.667 36.2232 178.667 36.3389C178.667 36.5587 178.609 36.8017 178.493 37.0677C178.376 37.3222 178.288 37.4842 178.23 37.5536C178.148 37.6809 178.026 37.8717 177.863 38.1263C177.699 38.3692 177.536 38.6295 177.373 38.9071C177.209 39.1848 177.075 39.4508 176.97 39.7054C176.924 39.8326 176.877 39.9656 176.83 40.1045C176.795 40.2317 176.778 40.3416 176.778 40.4342C176.778 40.5846 176.842 40.6598 176.97 40.6598C177.087 40.6598 177.256 40.6019 177.478 40.4862C177.758 40.3358 178.014 40.145 178.248 39.9136C178.493 39.6707 178.702 39.4624 178.877 39.2889C178.889 39.2773 178.942 39.2195 179.035 39.1154C179.14 39.0112 179.239 38.9071 179.332 38.803C179.437 38.6989 179.49 38.6468 179.49 38.6468C179.537 38.589 179.595 38.5601 179.665 38.5601C179.723 38.5601 179.776 38.5948 179.822 38.6642C179.881 38.722 179.91 38.7972 179.91 38.8898C179.91 38.9939 179.881 39.0807 179.822 39.1501C179.647 39.393 179.408 39.6591 179.105 39.9483C178.802 40.2375 178.533 40.4747 178.3 40.6598C178.055 40.8449 177.804 40.9953 177.548 41.1109C177.303 41.2151 177.058 41.2671 176.813 41.2671Z" fill="#FF5677"/>
<path d="M179.811 41.458C179.484 41.458 179.24 41.3654 179.076 41.1803C178.925 40.9837 178.849 40.7407 178.849 40.4515C178.849 40.1276 178.942 39.7516 179.129 39.3236C179.327 38.884 179.584 38.4328 179.899 37.9701C180.214 37.5073 180.558 37.0793 180.931 36.686C181.316 36.2811 181.701 35.9571 182.086 35.7142C182.471 35.4597 182.827 35.3325 183.153 35.3325C183.375 35.3325 183.591 35.3672 183.801 35.4366C184.011 35.4944 184.18 35.6159 184.308 35.801C184.448 35.9861 184.518 36.2579 184.518 36.6166C184.518 36.7438 184.483 36.8364 184.413 36.8942C184.343 36.952 184.279 36.981 184.22 36.981C184.092 36.981 184.028 36.9347 184.028 36.8421C183.97 36.472 183.847 36.229 183.661 36.1133C183.486 35.9976 183.316 35.9398 183.153 35.9398C182.92 35.9398 182.646 36.0555 182.331 36.2869C182.016 36.5182 181.695 36.8132 181.368 37.1718C181.042 37.5305 180.733 37.918 180.441 38.3345C180.161 38.7394 179.934 39.1327 179.759 39.5145C179.584 39.8847 179.496 40.1912 179.496 40.4342C179.496 40.5499 179.514 40.654 179.549 40.7465C179.595 40.8391 179.665 40.8853 179.759 40.8853C179.934 40.8853 180.161 40.7928 180.441 40.6077C180.721 40.4226 181.018 40.1855 181.333 39.8962C181.66 39.5955 181.981 39.2831 182.296 38.9592C182.611 38.6353 182.896 38.3287 183.153 38.0395C183.41 37.7503 183.608 37.5189 183.748 37.3454C183.818 37.2413 183.906 37.1892 184.011 37.1892C184.092 37.1892 184.168 37.2181 184.238 37.276C184.308 37.3338 184.343 37.409 184.343 37.5015C184.343 37.5478 184.325 37.5999 184.29 37.6577C184.209 37.785 184.11 37.9643 183.993 38.1957C183.888 38.427 183.777 38.6758 183.661 38.9418C183.556 39.2079 183.462 39.4566 183.381 39.688C183.311 39.9078 183.276 40.0756 183.276 40.1912C183.276 40.3069 183.316 40.3648 183.398 40.3648C183.456 40.3648 183.526 40.3358 183.608 40.278C183.701 40.2202 183.783 40.1681 183.853 40.1218C184.133 39.8905 184.401 39.6475 184.658 39.393C184.915 39.1269 185.148 38.8782 185.358 38.6468C185.404 38.589 185.463 38.5601 185.533 38.5601C185.591 38.5601 185.644 38.5948 185.69 38.6642C185.749 38.722 185.778 38.7972 185.778 38.8898C185.778 38.9939 185.749 39.0807 185.69 39.1501C185.504 39.393 185.259 39.6649 184.955 39.9656C184.652 40.2549 184.384 40.4862 184.15 40.6598C183.999 40.7639 183.818 40.868 183.608 40.9721C183.41 41.0647 183.217 41.1109 183.031 41.1109C182.891 41.1109 182.774 41.0704 182.681 40.9895C182.587 40.8969 182.541 40.7407 182.541 40.5209C182.541 40.3474 182.57 40.1507 182.628 39.9309C182.687 39.7111 182.757 39.4856 182.838 39.2542C182.512 39.6012 182.162 39.9425 181.788 40.278C181.415 40.6135 181.053 40.8969 180.703 41.1283C180.365 41.3481 180.068 41.458 179.811 41.458Z" fill="#FF5677"/>
</svg>
