<svg width="64" height="64" viewBox="0 0 64 64" fill="none" xmlns="http://www.w3.org/2000/svg">
<g opacity="0.85" clip-path="url(#clip0_298_86)">
<path d="M20.6453 49.5483H12.3872V51.6129H20.6453V49.5483Z" fill="#2AC3DE"/>
<path d="M60.387 36.1291C59.7635 36.1291 59.1762 36.288 58.6642 36.5667C58.1945 35.1164 56.8309 34.0645 55.2257 34.0645C54.2151 34.0645 53.3016 34.4805 52.6451 35.1515C51.9886 34.4805 51.075 34.0645 50.0644 34.0645C49.5101 34.0645 48.9857 34.1905 48.516 34.4134V23.6976C50.436 22.4692 51.6128 20.3716 51.6128 18.0645C51.6128 14.3649 48.6027 11.3549 44.9031 11.3549C41.2035 11.3549 38.1935 14.3649 38.1935 18.0645C38.1935 20.3727 39.3702 22.4692 41.2902 23.6976V36.1291H40.5707C39.4869 36.1291 38.4371 36.447 37.5349 37.0488C36.0082 38.0656 35.0967 39.7688 35.0967 41.6031V51.488C35.0967 53.1758 35.7542 54.7623 36.9475 55.9556C37.7506 56.7587 38.1935 57.8281 38.1935 58.9636V64H40.258V58.9636C40.258 57.2759 39.6004 55.6893 38.4071 54.496C37.604 53.6929 37.1612 52.6235 37.1612 51.488V41.6031C37.1612 40.4604 37.7289 39.4003 38.6796 38.7665C39.2412 38.3918 39.8956 38.1936 40.5707 38.1936H41.2902V44.3871H43.3547V20.1291C43.3547 19.2754 44.0495 18.5807 44.9031 18.5807C45.7568 18.5807 46.4515 19.2754 46.4515 20.1291V40.2581H48.516V37.6774C48.516 36.8238 49.2107 36.1291 50.0644 36.1291C50.9181 36.1291 51.6128 36.8238 51.6128 37.6774V40.2581H53.6773V37.6774C53.6773 36.8238 54.372 36.1291 55.2257 36.1291C56.0794 36.1291 56.7741 36.8238 56.7741 37.6774V40.2581H58.8386V39.742C58.8386 38.8883 59.5333 38.1936 60.387 38.1936C61.2407 38.1936 61.9354 38.8883 61.9354 39.742V50.5951C61.9354 51.1381 61.8332 51.6707 61.6309 52.1745L60.322 55.4457C60.0226 56.1951 59.8709 56.9858 59.8709 57.792V64H61.9354V57.792C61.9354 57.2491 62.0376 56.7164 62.2399 56.2127L63.5488 52.9414C63.8482 52.192 63.9999 51.4013 63.9999 50.5951V39.742C63.9999 37.7497 62.3793 36.1291 60.387 36.1291ZM44.9031 16.5161C42.9109 16.5161 41.2902 18.1368 41.2902 20.1291V20.9807C40.6327 20.1703 40.258 19.1494 40.258 18.0645C40.258 15.5035 42.3421 13.4194 44.9031 13.4194C47.4642 13.4194 49.5483 15.5035 49.5483 18.0645C49.5483 19.1494 49.1736 20.1703 48.516 20.9807V20.1291C48.516 18.1368 46.8954 16.5161 44.9031 16.5161Z" fill="#2AC3DE"/>
<path d="M36.129 16.5161H33.0323V5.16129C33.0323 2.31535 30.7169 0 27.871 0H5.16129C2.31535 0 0 2.31535 0 5.16129V50.5806C0 53.4266 2.31535 55.7419 5.16129 55.7419H27.871C30.7169 55.7419 33.0323 53.4266 33.0323 50.5806V18.5806H36.129V16.5161ZM30.9677 50.5806C30.9677 52.288 29.5783 53.6774 27.871 53.6774H5.16129C3.45394 53.6774 2.06452 52.288 2.06452 50.5806V47.4839H30.9677V50.5806ZM30.9677 16.5161H28.9032V10.3226H4.12903V38.1935H28.9032V18.5806H30.9677V45.4194H2.06452V8.25806H30.9677V16.5161ZM17.5484 21.6774V18.5806H26.8387V36.129H6.19355V12.3871H26.8387V16.5161H15.4839V21.6774H17.5484ZM30.9677 6.19355H2.06452V5.16129C2.06452 3.45394 3.45394 2.06452 5.16129 2.06452H27.871C29.5783 2.06452 30.9677 3.45394 30.9677 5.16129V6.19355Z" fill="#2AC3DE"/>
<path d="M24.7742 23.7419H8.25806V25.8065H24.7742V23.7419Z" fill="#2AC3DE"/>
<path d="M24.7742 27.871H8.25806V29.9355H24.7742V27.871Z" fill="#2AC3DE"/>
<path d="M24.7742 32H8.25806V34.0645H24.7742V32Z" fill="#2AC3DE"/>
</g>
<defs>
<clipPath id="clip0_298_86">
<rect width="64" height="64" fill="white"/>
</clipPath>
</defs>
</svg>
