<?xml version="1.0" encoding="UTF-8" standalone="no"?>
<!DOCTYPE svg PUBLIC "-//W3C//DTD SVG 1.1//EN" "http://www.w3.org/Graphics/SVG/1.1/DTD/svg11.dtd">
<svg width="100%" height="100%" viewBox="0 0 337 126" version="1.1" xmlns="http://www.w3.org/2000/svg" xmlns:xlink="http://www.w3.org/1999/xlink" xml:space="preserve" xmlns:serif="http://www.serif.com/" style="fill-rule:evenodd;clip-rule:evenodd;stroke-linejoin:round;stroke-miterlimit:2;">
    <g transform="matrix(1,0,0,1,-676.729,-229.672)">
        <g>
            <g>
                <path d="M1011.73,354.083L678.065,354.083C681.727,343.623 691.465,334.891 701.57,330.881C706.105,315.538 713.456,307.715 715.888,306.842C718.33,305.969 722.338,304.231 722.338,304.231C722.338,304.231 726.09,299.607 731.41,297.255C736.728,294.902 750.503,279.943 754.263,274.24C758.023,268.547 763.601,262.158 770.569,270.409L771.673,271.808C771.673,271.808 772.894,268.663 775.861,268.146C778.829,267.62 779.256,268.146 782.481,264.573C782.811,264.208 783.123,263.851 783.417,263.504L783.426,263.495C786.134,260.358 788.104,257.606 791.551,255.414C793.85,253.952 798.145,252.643 801.95,251.065C804.498,250.014 806.833,248.829 808.196,247.395C808.418,247.163 808.667,246.887 808.944,246.575C811.368,243.893 815.715,238.645 820.126,234.983L820.135,234.983C821.266,234.039 822.407,233.21 823.512,232.55C825.125,231.597 826.675,231.009 828.074,231.009C831.032,231.009 831.442,234.163 833.536,237.442C834.284,238.609 835.247,239.794 836.61,240.863C836.958,241.14 837.26,241.282 837.545,241.38C838.73,241.799 839.577,241.442 842.392,246.7C844.308,250.272 848.032,255.618 851.008,259.717C853.467,263.103 855.41,265.642 855.41,265.642C855.41,265.642 856.034,265.188 856.96,264.52L856.969,264.511C859.437,262.72 864.08,259.441 865.033,259.253C866.333,258.986 872.258,258.817 873.835,259.779C875.306,260.67 882.354,268.689 885.25,270.908C885.445,271.068 885.624,271.184 885.775,271.282C885.775,271.282 893.705,266.658 894.748,264.742C895.798,262.827 898.499,255.155 900.415,253.676C902.33,252.188 906.776,249.836 906.776,249.836C906.776,249.836 913.494,257.507 917.415,266.311C921.334,267.968 922.377,270.231 924.908,275.203C927.438,280.174 936.411,286.447 943.217,288.104C943.217,288.104 948.875,282.438 950.185,282.001C951.496,281.564 953.936,279.996 957.251,285.404C960.556,290.804 967.007,302.833 971.542,306.495C976.078,310.156 977.994,311.199 980.783,313.293C983.571,315.387 989.06,326.016 993.417,330.81C997.774,335.604 1011.29,351.731 1011.73,354.083Z" style="fill:url(#_Linear1);fill-rule:nonzero;"/>
                <path d="M922.468,304.185C926.129,302.049 928.047,302.252 932.696,298.301C937.344,294.35 941.47,291.677 945.364,287.842C949.256,284.006 951.333,280.322 953.724,281.757C956.114,283.193 958.089,286.798 958.089,286.798L966.631,301.497L966.631,302.717L960.181,295.279C960.181,295.279 962.564,301.09 964.307,303.415C966.05,305.739 969.304,309.807 969.304,309.807C969.304,309.807 963.203,306.757 961.634,304.185C960.065,301.613 957.915,299.347 957.915,299.347C957.915,299.347 959.724,303.996 960.708,305.1L958.641,304.555C958.641,304.555 960.145,306.407 960.319,307.562C955.808,307.497 952.823,309.066 952.823,309.066C952.823,309.066 958.67,308.703 965.237,311.608C971.803,314.514 980.635,319.685 984.703,325.206C981.74,319.627 976.917,312.944 976.917,312.944C976.917,312.944 981.972,316.547 984.18,320.963C986.388,325.38 990.339,334.677 990.339,334.677L989.293,327.123L993.245,331.772C993.245,331.772 994,336.537 995.918,339.268C997.835,341.999 1002.95,344.672 1004.4,346.938C1005.85,349.205 1007.31,351.761 1007.31,351.761C1007.31,351.761 1002.89,345.544 999.462,345.253C996.035,344.962 993.652,341.302 992.664,339.616C991.676,337.931 986.272,333.631 986.272,333.631L991.501,340.895C991.501,340.895 977.905,330.377 973.836,329.447C978.427,332.934 982.669,340.837 982.669,340.837C982.669,340.837 971.396,331.714 968.201,329.796C965.004,327.878 959.949,325.903 957.682,325.961C955.417,326.019 950.709,320.731 950.709,320.731C950.709,320.731 956.404,324.044 961.286,324.16C966.167,324.276 968.549,324.102 968.549,324.102C968.549,324.102 959.542,320.44 956.579,320.44C953.615,320.44 948.85,315.734 946.061,314.979C943.272,314.223 941.238,312.305 939.552,312.305C937.868,312.305 935.079,305.449 935.079,305.449C935.079,305.449 938.39,309.865 939.611,310.446C940.831,311.027 943.612,312.332 944.259,312.073C944.477,311.986 944.783,309.654 944.717,308.848C944.652,308.042 942.691,306.909 942.691,306.909C942.691,306.909 944.673,307.715 946.155,307.911C947.637,308.107 948.945,307.846 948.945,307.846C948.945,307.846 946.133,307.192 945.501,306.538C944.87,305.884 942.712,304.86 942.712,304.86C942.712,304.86 946.657,305.339 948.421,303.705C950.187,302.071 952.823,298.802 956.266,298.628C953.542,297.909 948.705,300.35 947.899,300.328C950.513,298.65 951.996,297.953 951.93,295.991C951.865,294.03 952.322,292.636 953.433,291.285C954.544,289.934 954.13,287.842 954.13,287.842L951.037,292.265C951.037,292.265 952.104,288.669 952.736,287.558C953.368,286.447 952.492,285.719 953.716,284.965C954,284.791 954.087,283.658 952.431,284.377C950.775,285.096 943.388,292.2 938.419,295.744C933.452,299.289 928.164,303.445 922.468,304.185Z" style="fill:rgb(8,36,63);fill-rule:nonzero;"/>
                <path d="M922.338,285.27C921.292,284.094 918.59,280.825 917.936,277.033C917.936,277.033 920.028,279.518 922.338,282.35C924.648,285.183 928.788,288.626 928.788,288.626C928.788,288.626 923.384,286.447 922.338,285.27ZM912.489,266.094C912.183,264.7 910.397,262.303 910.397,262.303C913.491,262.957 913.317,264.133 912.489,266.094ZM928.221,285.314L935.369,287.537C935.369,287.537 930.095,285.096 927.655,282.045C925.214,278.995 924.561,276.99 923.558,274.724C922.556,272.457 919.288,269.755 919.288,269.755C919.288,269.755 920.769,275.464 921.771,276.51C918.372,273.765 917.152,268.404 915.496,265.397C913.839,262.39 912.489,257.475 912.489,257.475L906.481,249.994L900.896,253.02C900.896,253.02 897.587,258.315 897.514,258.476C897.441,258.637 895.991,264.057 893.908,265.721C891.826,267.385 890.567,269.014 890.567,269.014C895.187,268.753 897.104,266.53 899.065,263.087C901.027,259.645 902.552,256.332 905.254,255.155C902.944,258.38 904.644,262.39 904.644,262.39C904.644,262.39 905.036,259.862 908.348,258.642C906.78,261.475 905.952,261.692 905.952,263.785C905.952,265.877 906.343,266.356 905.646,266.051C904.949,265.746 901.332,263.087 901.332,263.087C901.332,263.087 904.862,267.838 907.607,269.93C910.353,272.022 915.583,278.646 915.583,278.646L908.217,273.503C908.217,273.503 910.963,277.818 913.404,280.171C915.844,282.524 921.641,287.188 921.641,287.188C921.641,287.188 913.97,284.529 911.443,282.524C908.915,280.52 912.401,287.798 912.401,287.798C912.401,287.798 906.387,286.839 904.775,285.794C903.162,284.747 900.503,282.132 900.503,282.132C900.503,282.132 903.467,287.057 904.818,287.537C906.169,288.016 908.13,288.408 910.833,289.542C913.535,290.674 921.51,292.505 927.219,292.156C923.036,294.553 915.452,293.943 915.452,293.943C915.452,293.943 921.162,294.814 921.728,295.12C922.294,295.425 924.299,297.43 924.779,297.604C925.258,297.778 928.527,294.553 928.527,294.553C928.527,294.553 927.175,299.478 925.345,300.48C929.833,298.214 930.401,292.81 932.449,292.243C934.498,291.677 936.676,291.372 938.419,290.544C935.02,290.631 928.221,285.314 928.221,285.314Z" style="fill:rgb(8,36,63);fill-rule:nonzero;"/>
                <path d="M960.708,349.325C960.708,349.325 953.153,348.505 950.016,347.81C946.871,347.115 946.176,346.18 941.356,341.538C936.536,336.886 933.042,332.298 929.791,329.91C926.539,327.531 923.339,328.172 920.96,323.058C918.804,318.443 914.911,316.189 914.171,315.806C914.742,316.153 917.103,317.846 918.573,322.47C920.256,327.763 923.402,330.551 925.665,331.656C927.928,332.761 932.169,336.94 935.021,346.705C933.978,343.275 926.306,335.434 926.306,335.434C926.306,335.434 923.865,337.171 922.583,337.528C921.308,337.876 916.015,337.813 912.122,337.76C908.228,337.697 904.166,340.37 897.073,339.381C902.366,336.191 914.679,333.982 914.679,333.982L885.044,332.529C885.044,332.529 888.769,329.856 891.442,329.794C894.115,329.741 907.997,330.32 916.542,329.794C907.132,329.099 897.893,327.121 893.999,326.48C890.105,325.847 885.455,322.301 881.035,317.997C885.036,318.96 892.03,323.513 892.466,323.789C892.181,323.495 888.368,319.664 882.951,314.808C888.127,313.64 893.937,313.872 893.937,313.872C887.022,311.083 881.445,311.377 878.077,312.019C874.7,312.651 859.597,315.788 857.797,316.376C855.989,316.955 848.79,321.606 844.896,324.216C841.002,326.836 835.709,329.794 833.678,334.267C831.647,338.749 825.891,348.452 825.891,348.452C825.891,348.452 831.416,332.529 830.016,332.646C823.227,333.207 808.632,345.734 807.278,346.91C808.267,345.841 816.588,337.056 822.808,333.34C829.437,329.393 837.456,327.299 840.307,325.143C843.15,322.996 853.958,316.429 856.808,315.209C859.651,313.988 884.813,308.642 887.084,308.009C889.268,307.395 900.12,310.46 900.869,310.665C900.432,310.451 896.77,308.651 891.263,306.147C885.392,303.474 876.152,302.458 869.443,302.138C862.939,301.826 856.069,306.085 855.659,306.343C855.935,306.085 859.482,302.77 862.36,300.658C865.344,298.449 873.479,296.123 875.404,296.034C877.257,295.945 883.841,299.01 884.243,299.197C883.869,298.805 877.88,292.64 875.368,291.677C872.785,290.688 864.186,292.372 864.186,292.372L868.953,288.425L882.086,288.158L867.732,284.932L868.401,279.328C868.401,279.328 869.879,277.323 870.806,276.45C871.742,275.577 873.016,275.407 874.584,276.45C873.658,274.534 869.354,272.476 869.354,272.476C869.354,272.476 869.505,268.698 869.968,268.084C870.432,267.478 872.811,264.885 873.453,265.09C874.049,265.286 878.184,268.493 878.736,268.983C878.21,268.306 873.658,262.408 872.41,261.784C871.074,261.116 867.384,261.196 866.627,261.401C865.87,261.606 862.76,263.495 861.451,267.184C860.15,270.872 857.503,273.456 857.326,274.855C857.156,276.245 857.62,278.517 858.84,279.47C856.924,279.47 856.22,276.913 855.356,276.913C854.483,276.913 851.462,279.417 849.075,282.375C846.696,285.342 840.423,291.909 840.423,291.909L842.455,287.204C842.455,287.204 837.634,292.372 835.13,296.337C832.636,300.302 828.279,304.748 828.279,304.748C828.279,304.748 830.711,303.938 833.678,302.833C836.645,301.728 842.455,298.128 842.455,298.128C842.455,298.128 836.583,305.336 832.11,306.673C827.637,308.009 825.312,308.989 821.471,313.115C823.333,311.662 826.239,311.377 826.239,311.377C826.239,311.377 808.285,324.974 807.589,325.321C806.895,325.669 805.202,325.437 803.927,325.847C802.645,326.248 797.94,329.509 787.711,336.539C787.711,336.539 798.929,324.627 801.023,322.007C803.117,319.396 804.337,319.45 808.632,317.071C812.936,314.692 820.135,308.473 820.313,308.356C820.259,308.356 812.178,312.304 812.178,312.304C812.178,312.304 816.536,308.526 819.788,306.263C823.048,304 831.468,296.56 833.625,294.76C835.772,292.951 840.592,286.1 844.192,283.543C847.8,280.985 851.864,277.385 853.841,275.577C855.792,273.804 859.482,267.807 859.588,267.629C859.312,267.772 855,270.044 853.084,271.514C851.195,272.957 848.541,276.566 848.335,276.842C848.513,276.459 851.347,270.364 853.316,269.01C855.293,267.665 856.871,264.707 856.96,264.52L856.969,264.511C859.437,262.72 864.08,259.441 865.033,259.253C866.333,258.986 872.258,258.817 873.835,259.779C875.306,260.67 882.354,268.689 885.25,270.908L885.427,271.674C885.427,271.674 882.416,273.242 879.583,272.111C882.372,274.677 886.47,273.679 888.341,274.989C890.221,276.29 893.447,280.959 896.449,284.487C899.46,288.015 901.858,291.374 904.076,293.423C906.303,295.464 909.485,299.046 911.052,301.398C912.558,303.661 916.514,306.325 916.827,306.53C916.542,306.397 911.944,304.213 909.921,302.227C907.889,300.24 904.263,295.963 904.041,295.695C904.129,295.945 905.689,299.865 908.478,302.485C905.778,302.004 899.283,298.217 899.283,298.217C899.283,298.217 904.86,304.053 910.963,307.278C916.969,310.451 929.336,322.274 929.719,322.639C929.568,322.372 926.984,318.113 922.876,312.536C926.075,315.324 933.738,323.228 935.199,326.248C936.651,329.277 937.346,329.215 940.714,333.108C944.082,337.002 952.92,345.315 952.92,345.315L945.071,333.34L960.708,349.325Z" style="fill:rgb(8,36,63);fill-rule:nonzero;"/>
                <path d="M851.623,265.633L849.315,264.261L847.4,268.012L847.159,270.32C846.508,267.228 844.548,264.261 844.548,264.261C844.548,264.261 845.021,270.017 845.244,271.888C845.458,273.768 843.844,276.468 843.239,278.687C842.624,280.914 841.234,281.832 839.318,283.961C837.394,286.1 833.696,288.452 831.21,291.241C828.804,293.94 822.852,296.836 822.478,297.014C822.772,296.756 827.54,292.595 829.178,290.483C826.648,291.356 820.028,292.221 818.13,292.809C816.303,293.379 812.375,296.8 812.125,297.014C812.321,296.747 816.294,291.374 817.988,291.098C819.734,290.804 824.786,290.046 826.185,288.078C827.575,286.1 829.785,285.342 831.762,284.816C833.741,284.3 835.042,282.901 835.042,282.901C835.042,282.901 830.952,282.963 826.185,281.707C830.248,280.406 836.53,280.317 839.693,281.395C838.445,279.159 833.073,277.991 832.52,277.697C831.967,277.412 829.375,272.734 829.927,272.414C830.48,272.093 833.242,271.309 835.042,271.255C836.841,271.193 839.514,271.95 839.514,271.95C835.424,267.994 825.338,269.189 823.165,269.83C820.982,270.471 817.961,273.26 814.825,273.928C811.688,274.597 809.71,273.928 805.843,274.624C809.015,272.476 812.321,272.352 814.209,271.924C816.099,271.487 818.629,268.93 822.959,264.6C819.003,266.89 812.321,267.442 812.321,267.442C812.321,267.442 818.95,264.885 821.596,263.174C824.234,261.463 827.78,260.064 830.747,259.922C833.705,259.779 836.236,262.248 836.236,262.248C836.236,262.248 834.836,259.396 832.574,258.292C830.31,257.187 823.949,258.06 818.077,260.448C820.866,257.65 825.891,255.476 833.536,256.696C829.616,253.097 818.745,252.856 814.272,254.05C816.161,252.366 819.734,251.992 821.302,251.092C822.871,250.183 822.933,246.236 824.465,246.495C826.006,246.762 828.653,246.762 830.711,248.33C832.707,249.845 835.469,251.876 835.647,252.01C835.452,251.769 832.315,248.009 831.496,246.236C830.658,244.41 829.143,242.022 827.611,240.48C829.696,240.943 830.952,244.347 832.983,244.873C831.673,243.617 829.206,235.081 828.475,234.876C827.753,234.671 827.112,234.76 826.328,235.847C825.543,236.934 825.151,237.246 824.323,237.246C823.494,237.246 822.497,238.155 818.531,243.126C814.557,248.098 811.332,250.709 807.982,251.885C804.623,253.061 798.742,255.636 794.688,258.122C796.345,257.382 800.792,257.294 805.754,255.502C803.669,257.204 798.002,259.859 794.109,260.064C794.225,261.348 790.331,265.357 786.669,266.863C783.007,268.377 780.396,269.883 778.24,272.04L783.417,263.504L783.426,263.495C786.134,260.358 788.104,257.606 791.551,255.414C793.85,253.952 798.145,252.643 801.95,251.065C802.494,251.065 803.054,251.021 803.633,250.94C811.216,249.872 815.056,245.541 819.502,239.963C812.267,246.726 808.953,246.584 808.953,246.584L808.944,246.575C811.368,243.893 815.715,238.645 820.126,234.983L820.135,234.983C822.078,234.939 824.759,235.019 827.254,233.566C825.632,233.798 823.512,232.55 823.512,232.55C825.125,231.597 826.675,231.009 828.074,231.009C831.032,231.009 831.442,234.163 833.536,237.442C833.447,238.422 833.5,239.242 833.91,239.785C836.003,242.574 837.572,248.268 842.917,252.74C840.182,248.499 837.545,241.38 837.545,241.38C838.73,241.799 839.577,241.442 842.392,246.7C844.308,250.272 848.032,255.618 851.008,259.717L851.623,265.633Z" style="fill:rgb(8,36,63);fill-rule:nonzero;"/>
                <path d="M789.806,299.304C788.586,298.432 787.583,296.689 786.451,296.34C790.155,296.95 794.382,301.134 794.382,301.134C794.382,301.134 791.027,300.175 789.806,299.304ZM809.913,308.528C797.826,299.754 797.477,299.986 794.746,297.895C792.015,295.802 787.714,292.258 785.506,289.934C783.298,287.609 779.753,284.355 779.753,284.355L789.051,290.108C789.051,290.108 782.572,282.83 778.213,279.561C773.856,276.293 771.982,275.639 771.154,274.419C770.326,273.198 769.323,269.711 767.406,268.361C765.488,267.01 763.2,266.229 760.4,267.535C757.6,268.84 755.79,272.651 754.263,274.506C752.738,276.36 747.862,282.296 745.708,284.581C743.552,286.866 730.819,297.53 730.819,297.53L724.725,301.323L723.535,302.921L727.339,303.531C727.339,303.531 724.609,304.867 722.458,305.739C720.308,306.611 716.589,308.645 713.394,313.467C710.198,318.291 705.026,325.554 703.399,330.086C705.142,330.697 706.74,330.319 706.74,330.319C706.74,330.319 702.789,332.789 700.203,333.573C697.617,334.357 694.014,337.263 694.014,337.263C699.592,334.91 703.777,335.215 705.782,333.253C707.786,331.293 709.224,331.293 711.97,328.765C714.715,326.237 721.252,317.608 726.918,316.649C722.081,316.649 715.761,320.484 713.844,323.709C711.926,326.934 708.004,327.893 708.004,327.893C708.004,327.893 712.537,320.005 715.239,315.472C717.941,310.94 722.953,306.93 724.827,306.102C726.701,305.274 735.678,302.093 735.678,302.093L730.187,302.093C730.187,302.093 736.027,298.911 739.993,295.773C743.958,292.636 747.837,290.413 752.021,284.791L745.746,289.367C745.746,289.367 754.418,279.735 757.382,275.682C760.345,271.629 763.658,267.576 767.885,272.239C767.885,272.239 765.793,271.934 765.357,272.327C764.921,272.719 766.491,277.164 769.542,280.127C766.882,279.082 764.704,276.423 764.704,276.423L763.571,281.348C763.571,281.348 765.967,280.738 767.231,281.304C768.496,281.871 773.812,285.794 773.681,285.706C773.55,285.619 768.539,282.481 764.311,285.488C769.105,285.488 772.679,286.447 781.046,292.113C775.207,290.282 769.149,288.365 764.224,290.239C759.299,292.113 755.203,297.081 755.203,297.081C755.203,297.081 761.042,292.854 768.583,293.42C776.122,293.986 783.966,298.868 783.966,298.868C783.966,298.868 774,297.662 771.27,298.243C768.539,298.824 767.841,299.696 762.728,301.613C757.615,303.531 755.929,305.216 755.173,305.391C754.418,305.564 744.017,308.005 736.637,317.477C742.099,312.828 752.617,308.586 752.617,308.586C752.617,308.586 747.561,315.676 746.98,320.963C750.467,314.049 758.253,306.727 759.416,306.32C760.578,305.914 764.82,305.681 770.573,305.158C776.326,304.635 780.161,303.996 781.207,304.577C782.252,305.158 788.47,308.761 788.47,308.761C788.47,308.761 785.333,307.715 778.069,311.782C784.635,311.259 792.538,310.272 796.024,311.957L789.981,313.235L799.685,315.269C799.685,315.269 795.269,323.985 795.501,323.985C795.734,323.985 804.333,313.7 808.75,310.969C804.508,307.134 798.697,305.914 798.697,305.914C798.697,305.914 807.239,306.843 809.913,308.528Z" style="fill:rgb(8,36,63);fill-rule:nonzero;"/>
                <path d="M849.078,329.331C852.738,325.234 855.528,323.869 859.537,322.648C863.546,321.428 872.496,318.755 872.496,318.755C872.496,318.755 864.244,323.753 861.977,325.554C859.711,327.356 850.24,337.989 850.53,337.524C850.821,337.06 858.491,325.67 858.491,325.67C858.491,325.67 851.983,327.588 849.078,329.331Z" style="fill:rgb(8,36,63);fill-rule:nonzero;"/>
                <path d="M965.178,332.934C969.42,337.118 976.219,341.534 979.822,342.696C975.463,338.338 971.455,334.445 965.178,332.934Z" style="fill:rgb(8,36,63);fill-rule:nonzero;"/>
                <path d="M680.019,352.747L1009.51,352.747C1006.5,348.246 996.96,336.697 992.427,331.709C990.243,329.305 987.882,325.638 985.6,322.092C983.45,318.752 981.226,315.297 979.981,314.362C979.005,313.629 978.133,313.025 977.21,312.384C975.545,311.23 973.658,309.92 970.704,307.534C966.874,304.443 961.97,296.063 958.388,289.945C957.533,288.483 956.761,287.164 956.112,286.103C953.666,282.113 952.203,282.668 951.031,283.115C950.879,283.172 950.739,283.225 950.607,283.269C949.88,283.587 946.689,286.52 944.164,289.048C943.833,289.379 943.353,289.511 942.902,289.403C935.706,287.651 926.382,281.045 923.716,275.809L923.463,275.313C921.178,270.814 920.232,268.953 916.894,267.542C916.582,267.409 916.332,267.164 916.194,266.854C913.124,259.96 908.24,253.707 906.454,251.53C905.068,252.292 902.514,253.737 901.234,254.731C900.168,255.554 898.307,259.942 897.307,262.299C896.726,263.669 896.267,264.75 895.919,265.385C894.789,267.463 888.384,271.308 886.448,272.437C886.012,272.691 885.472,272.678 885.049,272.405C884.864,272.285 884.646,272.141 884.405,271.944C882.831,270.739 880.21,268.02 877.675,265.389C875.9,263.547 873.69,261.254 873.143,260.922C872.095,260.282 866.754,260.264 865.301,260.563C864.789,260.731 862.196,262.372 857.801,265.558C857.781,265.574 857.761,265.589 857.741,265.604L856.196,266.723C855.61,267.149 854.79,267.032 854.348,266.454C854.328,266.429 852.368,263.863 849.926,260.502C847.046,256.536 843.197,251.031 841.214,247.331C838.999,243.195 838.25,242.981 837.588,242.792C837.428,242.746 837.266,242.699 837.099,242.64C836.619,242.475 836.195,242.241 835.778,241.909C834.473,240.887 833.37,239.66 832.411,238.164C831.78,237.176 831.298,236.211 830.874,235.359C829.76,233.127 829.264,232.345 828.074,232.345C827.02,232.345 825.714,232.801 824.191,233.701C823.178,234.306 822.1,235.084 820.991,236.009C820.959,236.035 820.926,236.061 820.893,236.084C817.414,238.989 813.994,242.875 811.489,245.719C810.913,246.375 810.39,246.968 809.936,247.471C809.654,247.789 809.393,248.078 809.16,248.32C807.846,249.703 805.778,250.932 802.459,252.301C801.168,252.836 799.83,253.338 798.535,253.823C796.039,254.759 793.681,255.643 792.268,256.541C789.601,258.237 787.85,260.322 785.822,262.736C785.375,263.268 784.918,263.812 784.438,264.368C784.427,264.38 784.417,264.393 784.405,264.404C784.112,264.751 783.801,265.106 783.473,265.469C780.548,268.709 779.523,268.965 777.284,269.279C776.935,269.328 776.545,269.382 776.094,269.462C773.923,269.84 772.926,272.273 772.917,272.298C772.74,272.741 772.338,273.059 771.867,273.127C771.391,273.193 770.92,273.01 770.625,272.636L769.52,271.237C767.515,268.864 765.523,267.696 763.638,267.811C760.348,268.005 757.349,271.994 755.378,274.977C751.535,280.807 737.527,296.011 731.949,298.478C727.003,300.665 723.412,305.031 723.375,305.075C723.241,305.24 723.067,305.373 722.871,305.458C722.706,305.529 718.792,307.223 716.337,308.101C714.701,308.689 707.458,315.676 702.852,331.26C702.735,331.654 702.445,331.972 702.063,332.124C692.218,336.03 683.763,343.995 680.019,352.747ZM1011.73,355.419L678.066,355.419C677.632,355.419 677.226,355.21 676.975,354.856C676.725,354.503 676.661,354.05 676.804,353.642C680.289,343.686 689.539,334.421 700.473,329.884C705.042,314.877 712.441,306.66 715.436,305.585C717.437,304.868 720.565,303.539 721.521,303.128C722.426,302.078 725.994,298.188 730.869,296.033C735.692,293.899 749.148,279.571 753.148,273.504C755.627,269.748 759.043,265.404 763.481,265.143C766.23,264.974 768.933,266.434 771.516,269.46C772.343,268.381 773.675,267.17 775.631,266.83C776.115,266.744 776.536,266.685 776.913,266.632C778.635,266.391 779.098,266.326 781.49,263.677C781.809,263.323 782.112,262.978 782.396,262.641C782.412,262.623 782.427,262.605 782.444,262.587C782.905,262.052 783.345,261.529 783.775,261.017C785.855,258.541 787.82,256.203 790.834,254.286C792.482,253.238 794.966,252.307 797.596,251.32C798.87,250.843 800.188,250.349 801.438,249.831C803.274,249.073 805.87,247.902 807.227,246.474C807.444,246.248 807.681,245.985 807.945,245.688C808.4,245.183 808.915,244.599 809.484,243.953C812.066,241.019 815.603,237.001 819.272,233.955C819.303,233.929 819.335,233.904 819.368,233.881C820.553,232.899 821.716,232.066 822.826,231.403C824.798,230.237 826.513,229.672 828.074,229.672C831.023,229.672 832.164,231.957 833.266,234.167C833.68,234.998 834.109,235.857 834.663,236.723C835.455,237.96 836.363,238.971 837.434,239.812C837.664,239.994 837.832,240.065 837.98,240.116C838.103,240.16 838.214,240.191 838.323,240.222C839.833,240.653 841.012,241.293 843.571,246.069C845.482,249.635 849.258,255.032 852.089,258.932C853.583,260.988 854.895,262.744 855.685,263.793L856.127,263.473C856.146,263.457 856.166,263.442 856.184,263.429C863.366,258.219 864.39,258.018 864.775,257.942C865.815,257.73 872.373,257.322 874.532,258.638C875.333,259.125 876.9,260.733 879.6,263.535C881.842,265.861 884.371,268.484 885.854,269.683C889.325,267.607 893.077,265.017 893.574,264.104C893.859,263.583 894.317,262.504 894.846,261.255C896.623,257.068 898.1,253.774 899.597,252.618C901.579,251.079 905.964,248.752 906.151,248.654C906.698,248.364 907.373,248.489 907.782,248.955C908.056,249.269 914.445,256.613 918.422,265.294C922.277,267.076 923.571,269.623 925.847,274.102L926.098,274.597C928.349,279.017 936.449,284.793 942.819,286.616C945.064,284.391 948.472,281.163 949.762,280.733C949.862,280.7 949.967,280.659 950.081,280.616C952.408,279.732 955.215,279.526 958.391,284.707C959.049,285.781 959.831,287.116 960.695,288.595C963.976,294.2 968.933,302.67 972.382,305.455C975.262,307.779 977.027,309.004 978.734,310.188C979.677,310.843 980.57,311.461 981.585,312.224C983.214,313.448 985.362,316.783 987.848,320.646C989.967,323.939 992.37,327.671 994.406,329.911C995.915,331.572 1012.43,350.567 1013.04,353.839C1013.11,354.229 1013.01,354.632 1012.75,354.938C1012.5,355.243 1012.12,355.419 1011.73,355.419Z" style="fill:rgb(8,36,63);fill-rule:nonzero;"/>
            </g>
        </g>
    </g>
    <defs>
        <linearGradient id="_Linear1" x1="0" y1="0" x2="1" y2="0" gradientUnits="userSpaceOnUse" gradientTransform="matrix(333.665,0,0,123.074,678.065,292.546)"><stop offset="0" style="stop-color:rgb(255,86,119);stop-opacity:1"/><stop offset="1" style="stop-color:black;stop-opacity:1"/></linearGradient>
    </defs>
</svg>
