<?xml version="1.0" encoding="UTF-8" standalone="no"?>
<!DOCTYPE svg PUBLIC "-//W3C//DTD SVG 1.1//EN" "http://www.w3.org/Graphics/SVG/1.1/DTD/svg11.dtd">
<svg width="100%" height="100%" viewBox="0 0 313 137" version="1.1" xmlns="http://www.w3.org/2000/svg" xmlns:xlink="http://www.w3.org/1999/xlink" xml:space="preserve" xmlns:serif="http://www.serif.com/" style="fill-rule:evenodd;clip-rule:evenodd;stroke-linejoin:round;stroke-miterlimit:2;">
    <g transform="matrix(1,0,0,1,-1.04163,-425.587)">
        <g>
            <g>
                <path d="M312.479,560.649L2.392,560.649C7.027,551.316 57.391,494.023 58.912,492.556C60.442,491.088 62.026,488.218 64.78,487.623C67.543,487.038 68.713,489.45 68.713,489.45C68.713,489.45 70.477,489.333 73.645,489.918C76.813,490.503 87.208,498.604 87.208,498.604C87.208,498.604 93.778,491.736 97.18,489.333C100.591,486.921 104.11,483.52 104.11,483.52L100.528,483.87C100.528,483.87 111.796,470.073 117.313,462.738C122.831,455.403 132.928,440.374 132.928,440.374C132.928,440.374 137.915,432.517 141.209,431.104C143.557,430.105 145.24,428.403 146.005,427.522C146.33,427.162 146.491,426.937 146.491,426.937C146.491,426.937 152.242,427.404 154.177,428.35C156.112,429.285 162.34,439.968 164.509,444.72C166.292,448.617 170.674,455.665 175.66,461.865C176.75,463.233 177.875,464.557 179.008,465.789C185.291,472.656 191.509,474.889 193.39,475.474C195.262,476.067 198.961,480.909 198.961,480.909C198.961,480.909 205.297,484.519 211.408,486.867C217.051,489.036 219.94,494.761 220.336,495.606C220.373,495.679 220.39,495.715 220.39,495.715C221.587,494.409 222.649,492.663 223.648,490.827C226.033,486.462 228.121,481.611 231.127,481.054C235.394,480.262 247.462,482.817 249.172,487.83C250.892,492.853 256.264,502.797 260.575,507.774C262.205,507.73 265.993,508.962 271.276,512.751C276.56,516.531 279.286,522.346 286.243,530.004C293.2,537.663 302.614,548.761 306.935,552.019C307.015,552.081 307.096,552.145 307.177,552.217C311.291,555.483 312.479,560.649 312.479,560.649Z" style="fill:url(#_Linear1);fill-rule:nonzero;"/>
                <path d="M307.177,552.217C306.574,552.055 296.926,549.372 295.279,547.438C293.614,545.484 284.974,535.782 284.605,535.359C284.74,535.584 286.909,539.238 287.359,541.39C283.192,536.106 268.513,522.968 268.513,522.968L278.377,525.189C278.377,525.189 269.629,519.268 263.41,518.151C257.191,517.036 250.909,513.156 250.909,513.156L259.711,514.804C259.711,514.804 250.963,507.523 248.443,502.888C245.996,498.397 242.503,494.68 242.288,494.454C242.485,494.778 245.788,500.305 245.446,502.005C245.095,503.77 246.563,506.47 246.563,506.47C246.563,506.47 241.693,501.304 240.991,499.485C240.28,497.667 238.174,493.734 236.59,492.268C234.998,490.801 234.475,487.335 234.475,487.335L236.761,490.387C236.761,490.387 237.697,486.634 242.692,487.452C240.577,485.868 237.644,485.454 235.528,485.454C233.413,485.454 230.776,484.752 228.896,489.217C227.014,493.671 223.441,499.422 223.441,499.422L229.129,496.435C229.129,496.435 221.498,503.356 215.746,509.053C218.915,507.405 223.441,506.884 223.441,506.884C223.441,506.884 217.276,510.223 215.746,511.222C214.225,512.221 214.864,516.504 213.812,519.205C212.758,521.904 209.941,523.723 209.941,523.723L217.744,521.499L204.595,529.303L204.595,530.356C204.595,530.356 198.844,532.471 195.56,535.584C192.274,538.689 180.529,548.968 180.529,548.968L212.407,540.156C212.407,540.156 205.541,544.972 203.542,545.088C201.544,545.205 195.676,547.788 188.161,549.553C180.646,551.316 175.84,553.539 163.276,554.926L177.127,542.101L185.965,534.145C185.965,534.145 189.97,530.535 195.209,529.303C200.446,528.069 203.947,526.836 203.947,526.836L201.427,526.099C201.427,526.099 206.566,517.882 207.854,515.127C209.149,512.364 214.352,504.246 214.352,504.246L220.336,495.606L223.648,490.827C226.033,486.462 228.121,481.611 231.127,481.054C235.394,480.262 247.462,482.817 249.172,487.83C250.892,492.853 256.264,502.797 260.575,507.774C262.205,507.73 265.993,508.962 271.276,512.751C276.56,516.531 279.286,522.346 286.243,530.004C293.2,537.663 302.614,548.761 306.935,552.019C307.015,552.081 307.096,552.145 307.177,552.217Z" style="fill:rgb(8,36,63);fill-rule:nonzero;"/>
                <path d="M216.042,501.187L207.473,490.387C207.473,490.387 211.464,492.44 214.105,493.497C216.747,494.554 218.755,498.139 218.755,498.139L216.042,501.187Z" style="fill:rgb(8,36,63);fill-rule:nonzero;"/>
                <path d="M175.352,468.464C175.352,468.464 187.326,479.205 193.797,485.764C183.672,482.902 177.113,473.306 175.352,468.464ZM212.407,503.185C212.407,503.185 204.064,489.1 201.076,486.103C205.405,495.084 207.403,501.592 207.521,501.987C207.133,501.447 199.528,490.684 196.261,484.924C192.913,479.028 189.925,475.239 185.642,472.485C186.416,475.933 189.358,479.118 189.665,479.451C189.358,479.308 186.784,477.967 182.617,473.215C178.171,468.156 175.66,461.884 175.66,461.884L175.66,461.865C170.674,455.665 166.292,448.617 164.509,444.72C162.34,439.968 156.112,429.285 154.177,428.35C152.242,427.404 146.491,426.937 146.491,426.937C146.491,426.937 146.33,427.162 146.005,427.522C146.005,427.522 151.541,429.609 152.71,430.915C153.854,432.192 160.711,446.322 160.981,446.872L153.493,436.449L151.009,440.139L149.947,437.206C149.947,437.206 149.309,448.6 151.36,452.649C153.115,456.114 154.916,457.338 155.401,457.627C154.591,457.231 150.199,455.052 148.597,453.405C146.923,451.669 140.75,455.332 140.191,455.683C140.731,455.511 146.023,453.864 147.193,454.638C148.426,455.466 168.325,475.717 168.325,475.717L161.863,461.568C161.863,461.568 170.611,473.421 173.14,476.887C175.66,480.352 179.126,481.287 180.943,482.521C182.761,483.753 185.642,488.919 187.927,491.736C183.76,488.101 177.892,486.273 175.012,486.22C172.142,486.156 169.675,485.922 169.675,485.922C169.675,485.922 174.544,487.749 176.659,490.801C178.774,493.852 179.179,496.371 179.179,496.371C179.179,496.371 174.661,494.257 164.392,496.371C172.546,496.317 178.828,500.367 179.647,501.483C180.458,502.572 188.207,511.888 188.566,512.328C188.053,512.166 171.746,506.731 161.278,504.705C150.658,502.653 145.195,499.539 130.173,501.654C142.208,502.122 150.712,505.354 150.712,505.354C150.712,505.354 132.514,509.403 113.614,519.033C95.128,528.447 87.541,536.961 87.217,537.33C87.658,537.007 101.915,526.675 118.897,520.438C136.159,514.102 156.346,508.936 160.576,508.936C164.797,508.936 200.842,519.385 200.842,519.385C200.842,519.385 196.324,515.154 193.858,513.517L190.276,506.703L199.897,512.221L187.63,496.785L205.892,509.754L212.407,503.185Z" style="fill:rgb(8,36,63);fill-rule:nonzero;"/>
                <path d="M38.488,553.309C46.47,549.552 58.092,537.108 62.788,533.234C67.483,529.36 76.875,516.33 82.04,511.517C87.205,506.704 90.844,504.943 90.844,504.943C90.844,504.943 88.379,513.982 81.57,524.899C93.192,515.86 96.362,500.482 96.362,500.482C96.362,500.482 107.045,494.612 113.384,490.269C119.723,485.926 126.767,480.291 134.045,478.648C141.323,477.004 154.706,476.3 164.918,479.939C157.758,475.008 143.906,472.777 132.284,476.769L143.084,469.608C143.084,469.608 133.311,472.689 127.148,477.62C120.985,482.551 100.735,494.788 100.735,494.788C100.735,494.788 113.501,483.255 115.791,480.701C118.08,478.148 117.815,474.274 121.954,467.231C126.091,460.188 130.757,456.049 130.757,456.049L124.771,458.515C124.771,458.515 129.789,452.264 135.776,449.622C141.763,446.981 146.782,440.906 146.782,440.906L137.537,446.276C137.537,446.276 141.147,441.523 142.468,437.384C140.223,438.969 137.097,441.654 137.097,441.654C137.097,441.654 140.487,433.643 143.524,430.913L139.65,432.542L132.201,441.458L121.318,457.232L102.641,481.276C102.641,481.276 113.197,477.484 117.434,472.602C113.267,479.763 106.399,483.46 103.406,485.926C100.412,488.391 93.544,492.11 93.544,492.11L78.812,507.58L60.147,528.538C60.147,528.538 39.075,550.96 38.488,553.309Z" style="fill:rgb(8,36,63);fill-rule:nonzero;"/>
                <path d="M7.672,554.922C13.307,550.344 19.206,544.621 22.464,540.923C25.721,537.226 30.799,529.684 35.846,528.715C35.846,528.715 33.205,528.48 30.711,529.066C34.262,526.925 42.758,522.258 45.223,520.322C47.689,518.385 55.7,513.234 55.7,513.234C55.7,513.234 42.23,518.473 38.972,521.025C44.035,515.567 49.581,513.498 51.298,512.045C53.015,510.593 61.159,499.455 62.348,498.134C63.536,496.814 64.065,497.797 65.165,498.604C66.266,499.411 72.517,505.75 72.517,505.75C72.517,505.75 70.447,501.128 68.687,499.587C66.926,498.046 66.838,497.033 66.838,497.033C66.838,497.033 72.913,500.468 74.454,502.229C75.994,503.989 76.655,503.814 76.655,503.814L77.271,501.832L77.743,508.738L86.729,499.1L85.138,497.033C85.138,497.033 75.932,489.481 71.209,489.56L77.183,495.713C77.183,495.713 69.171,492.191 67.762,490.431C66.354,488.67 66.584,487.672 66.584,487.672C66.584,487.672 62.619,488.665 61.731,494.349C60.983,492.72 61.467,490.21 61.467,490.21L49.229,503.901L56.008,500.159C56.008,500.159 52.487,504.869 48.833,507.951C45.179,511.032 38.796,516.711 38.796,516.711L25.545,530.182L11.503,548.1L7.672,554.922Z" style="fill:rgb(8,36,63);fill-rule:nonzero;"/>
                <path d="M4.765,559.3L310.611,559.3C309.955,557.651 308.647,555.108 306.338,553.274C306.22,553.172 306.161,553.127 306.103,553.081C302.74,550.546 296.572,543.61 290.607,536.903C288.748,534.812 286.924,532.761 285.244,530.912C282.359,527.734 280.197,524.88 278.291,522.361C275.584,518.787 273.447,515.964 270.491,513.849C265.264,510.101 261.816,509.124 260.665,509.124C260.634,509.124 260.605,509.125 260.575,509.125C260.183,509.125 259.812,508.955 259.555,508.659C255.197,503.627 249.709,493.566 247.895,488.268C246.526,484.25 235.444,481.628 231.374,482.381C229.455,482.737 227.64,486.178 225.885,489.505C225.539,490.161 225.189,490.823 224.834,491.475C223.966,493.069 222.789,495.097 221.386,496.627C221.087,496.953 220.65,497.109 220.209,497.052C219.772,496.993 219.391,496.724 219.189,496.33L219.128,496.21C218.827,495.566 216.166,490.143 210.924,488.128C204.788,485.769 198.555,482.232 198.293,482.083C198.136,481.993 197.998,481.872 197.888,481.73C196.226,479.553 193.857,477.038 192.982,476.76C190.565,476.009 184.251,473.521 178.012,466.701C176.883,465.473 175.736,464.128 174.604,462.705C169.26,456.061 164.988,449.014 163.282,445.282C160.761,439.759 154.957,430.356 153.578,429.559C152.469,429.018 149.262,428.558 147.079,428.345C147.057,428.371 147.033,428.398 147.007,428.425C146.159,429.405 144.319,431.248 141.736,432.345C139.62,433.254 135.909,438.195 134.068,441.097C133.948,441.277 123.867,456.27 118.393,463.55C114.343,468.934 107.134,477.874 103.617,482.212L103.979,482.176C104.554,482.122 105.095,482.432 105.335,482.953C105.577,483.475 105.461,484.091 105.048,484.49C104.902,484.632 101.416,487.991 97.96,490.436C94.702,492.735 88.249,499.469 88.183,499.537C87.705,500.035 86.924,500.093 86.378,499.669C82.459,496.615 75.47,491.628 73.399,491.245C70.473,490.705 68.812,490.797 68.798,490.798C68.251,490.828 67.737,490.531 67.498,490.039C67.379,489.809 66.669,488.605 65.059,488.944C63.499,489.281 62.333,490.671 61.205,492.017C60.744,492.567 60.308,493.087 59.847,493.529C59.434,493.932 13.674,545.781 4.765,559.3ZM312.478,562L2.392,562C1.924,562 1.491,561.758 1.244,561.36C0.998,560.964 0.975,560.468 1.182,560.05C6.061,550.227 57.538,492.006 57.975,491.584C58.333,491.24 58.723,490.775 59.136,490.282C60.423,488.747 62.024,486.837 64.495,486.304C66.909,485.793 68.581,486.998 69.44,488.095C70.3,488.112 71.817,488.209 73.89,488.59C76.806,489.13 84.123,494.541 87.078,496.798C88.983,494.848 93.633,490.186 96.401,488.231C97.735,487.287 99.098,486.178 100.248,485.19C99.865,485.109 99.528,484.864 99.337,484.508C99.08,484.026 99.137,483.439 99.481,483.016C99.594,482.879 110.797,469.155 116.234,461.928C121.667,454.705 131.707,439.771 131.808,439.62C132.322,438.81 137.101,431.396 140.676,429.862C142.762,428.976 144.271,427.461 144.985,426.637C145.246,426.347 145.378,426.171 145.398,426.145C145.675,425.765 146.128,425.554 146.6,425.591C147.215,425.641 152.667,426.108 154.77,427.137C157.417,428.417 164.029,440.417 165.738,444.16C167.429,447.858 171.741,454.836 176.712,461.019C177.809,462.397 178.914,463.692 180.002,464.875C185.798,471.211 191.576,473.496 193.792,474.184C195.797,474.82 198.761,478.446 199.863,479.867C201.054,480.532 206.6,483.572 211.893,485.607C216.349,487.32 219.206,491.042 220.593,493.283C221.307,492.256 221.944,491.137 222.463,490.183C222.814,489.541 223.157,488.891 223.497,488.244C225.646,484.17 227.677,480.321 230.881,479.727C235.373,478.893 248.433,481.479 250.45,487.395C252.098,492.21 257.183,501.583 261.226,506.455C263.377,506.682 267.146,508.128 272.063,511.654C275.352,514.007 277.711,517.123 280.443,520.731C282.316,523.205 284.438,526.009 287.243,529.096C288.929,530.952 290.758,533.01 292.625,535.108C298.229,541.409 304.579,548.552 307.748,550.939C307.87,551.035 307.973,551.117 308.076,551.209C312.45,554.681 313.741,560.118 313.794,560.348C313.886,560.748 313.79,561.169 313.535,561.491C313.278,561.813 312.889,562 312.478,562Z" style="fill:rgb(8,36,63);fill-rule:nonzero;"/>
                <path d="M31.388,561.553L29.387,559.738C29.868,559.208 77.574,506.616 86.235,497.665L88.175,499.542C79.544,508.463 31.868,561.023 31.388,561.553Z" style="fill:rgb(8,36,63);fill-rule:nonzero;"/>
                <path d="M146.476,561.977L146.032,559.314C164.175,556.289 173.134,545.049 179.675,536.841L180.417,535.912C185.555,529.491 192.768,526.975 196.211,526.095L196.23,526.076C196.289,526.014 202.228,519.822 204.459,515.584C205.667,513.287 207.664,510.71 210.192,507.447C212.728,504.174 215.884,500.101 219.259,494.971L221.514,496.454C218.082,501.671 214.891,505.79 212.326,509.101C209.879,512.259 207.946,514.754 206.848,516.843C204.738,520.851 199.866,526.153 198.517,527.587L198.574,528.348C198.476,528.362 188.673,529.915 182.525,537.6L181.787,538.524C175.357,546.592 165.641,558.783 146.476,561.977Z" style="fill:rgb(8,36,63);fill-rule:nonzero;"/>
                <path d="M238.083,520.585C246.623,517.504 249.44,521.994 249.44,521.994L238.083,520.585Z" style="fill:rgb(8,36,63);fill-rule:nonzero;"/>
                <path d="M246.095,536.961C255.779,532.911 260.885,532.207 265.2,532.911C269.514,533.616 280.52,536.961 280.52,536.961L276.029,536.961L287.299,546.118C287.299,546.118 277.614,540.835 274.885,540.835C270.395,536.434 268.37,535.288 268.37,535.288C268.37,535.288 256.836,534.584 246.095,536.961Z" style="fill:rgb(8,36,63);fill-rule:nonzero;"/>
            </g>
        </g>
    </g>
    <defs>
        <linearGradient id="_Linear1" x1="0" y1="0" x2="1" y2="0" gradientUnits="userSpaceOnUse" gradientTransform="matrix(310.087,0,0,133.712,2.392,493.793)"><stop offset="0" style="stop-color:rgb(255,86,119);stop-opacity:1"/><stop offset="1" style="stop-color:black;stop-opacity:1"/></linearGradient>
    </defs>
</svg>
