<?xml version="1.0" encoding="UTF-8" standalone="no"?>
<!DOCTYPE svg PUBLIC "-//W3C//DTD SVG 1.1//EN" "http://www.w3.org/Graphics/SVG/1.1/DTD/svg11.dtd">
<svg width="100%" height="100%" viewBox="0 0 341 139" version="1.1" xmlns="http://www.w3.org/2000/svg" xmlns:xlink="http://www.w3.org/1999/xlink" xml:space="preserve" xmlns:serif="http://www.serif.com/" style="fill-rule:evenodd;clip-rule:evenodd;stroke-linejoin:round;stroke-miterlimit:2;">
    <g transform="matrix(1,0,0,1,-674.737,-423.948)">
        <g>
            <g>
                <path d="M1013.7,560.649L676.087,560.649C676.087,560.649 678.589,558.741 681.307,557.014C683.062,555.906 684.907,554.871 686.239,554.484C689.641,553.485 698.155,545.269 702.619,544.152C706.075,534.883 728.764,515.938 732.418,513.867C736.072,511.798 742.057,510.96 742.057,510.96C742.057,510.96 748.573,502.905 752.182,498.55C755.792,494.193 760.417,491.502 764.116,490.665C767.815,489.828 769.003,486.931 769.003,486.931C769.003,486.931 772.486,488.731 774.646,489.856C775.096,490.09 775.492,490.297 775.78,490.449C777.454,491.331 779.218,495.382 781.153,500.574C786.697,500.574 788.191,504.886 788.191,504.886L795.418,499.522C795.418,499.522 799.783,486.796 803.572,478.606C803.572,478.597 803.582,478.597 803.582,478.588C803.653,478.416 803.725,478.255 803.806,478.093C803.887,477.922 803.968,477.75 804.049,477.589C804.067,477.534 804.085,477.481 804.121,477.436C805.282,475.023 806.362,473.143 807.208,472.314C808.486,471.072 810.421,469.84 812.41,468.76C812.428,468.75 812.437,468.741 812.455,468.732C814.516,467.625 816.623,466.672 818.125,466.032C818.143,466.023 818.152,466.023 818.152,466.023C819.412,465.492 820.24,465.178 820.24,465.178C820.24,465.178 824.624,455.368 826.837,453.226C826.846,453.216 826.846,453.208 826.846,453.208C827.8,452.28 830.239,450.877 832.678,449.589C835.828,447.916 838.996,446.43 838.996,446.43L840.256,444.163L850.705,425.298L858.715,425.298L864.349,432.426C864.349,432.426 866.293,432.777 869.11,434.01C871.748,435.163 877.084,449.689 878.407,453.037L878.407,453.045C878.498,453.271 878.56,453.441 878.614,453.559C879.073,454.621 881.233,456.52 883.303,458.337C883.312,458.337 883.312,458.347 883.321,458.347C884.446,459.345 885.544,460.317 886.318,461.109C886.579,461.37 886.804,461.622 886.975,461.839C887.218,462.145 887.542,462.918 887.92,464.017C887.947,464.098 887.983,464.179 888.001,464.241C888.019,464.305 888.037,464.358 888.064,464.422C888.091,464.512 888.118,464.602 888.154,464.7L888.163,464.719C889.702,469.443 891.934,478.578 893.176,483.825C893.752,486.22 894.112,487.804 894.112,487.804C894.112,487.804 895.741,486.669 897.856,485.176C900.727,483.133 904.516,480.424 906.352,479.001C909.52,476.535 912.688,469.578 913.66,469.497C914.218,469.443 916.126,469.39 918.16,469.497C919.654,469.569 921.22,469.723 922.373,470.02C924.811,470.658 930.211,479.946 934.477,483.276C934.981,483.682 935.467,483.987 935.935,484.194C940.336,486.139 943.153,487.633 944.035,492.033C944.908,496.435 948.346,498.721 951.694,501.547C955.033,504.363 956.887,511.815 960.29,515.334C963.691,518.854 967.804,521.202 972.025,524.02C976.255,526.837 977.785,530.364 981.187,535.648C982.699,537.996 986.119,538.933 993.391,542.919C995.425,544.035 997.9,545.898 1000.41,548.014C1006.92,553.504 1013.7,560.649 1013.7,560.649Z" style="fill:url(#_Linear1);fill-rule:nonzero;"/>
                <path d="M1001.09,549.436C1001.09,549.436 991.168,545.502 987.352,543.45C983.536,541.398 980.836,539.58 976.669,538.519C972.502,537.466 965.923,531.598 965.923,531.598L972.502,533.532C972.502,533.532 964.168,524.083 961.585,522.382C959.002,520.681 958.174,520.447 956.824,517.62C955.474,514.804 952.189,512.4 950.957,509.521C949.723,506.649 948.841,504.886 946.555,503.716C944.341,502.572 939.148,495.984 938.824,495.57L945.268,500.25C945.268,500.25 940.741,494.437 940.39,492.214C940.04,489.981 938.689,488.515 933.352,483.402L934.477,483.276C934.981,483.682 935.467,483.987 935.935,484.194C940.336,486.139 943.153,487.633 944.035,492.033C944.908,496.435 948.346,498.721 951.694,501.547C955.033,504.363 956.887,511.815 960.29,515.334C963.691,518.854 967.804,521.202 972.025,524.02C976.255,526.837 977.785,530.364 981.187,535.648C982.699,537.996 986.119,538.933 993.391,542.919C995.425,544.035 997.9,545.898 1000.41,548.014C1000.83,548.904 1001.09,549.436 1001.09,549.436Z" style="fill:rgb(8,36,63);fill-rule:nonzero;"/>
                <path d="M920.896,500.935L912.112,489.873C912.319,490.359 919.159,505.902 920.257,510.285C921.374,514.749 919.672,520.799 919.672,520.799C919.672,520.799 920.023,514.866 919.024,512.868C918.025,510.87 913.219,503.185 913.219,503.185C913.219,503.185 914.569,511.986 914.569,513.867C914.569,515.748 910.222,517.504 903.823,522.318C897.424,527.134 883.636,531.12 878.083,532.002C872.54,532.885 863.854,539.05 863.854,539.05L880.819,534.234C875.356,537.996 855.808,543.333 852.469,545.619C849.121,547.914 843.955,547.681 841.552,547.681C839.14,547.681 834.154,550.785 829.285,555.421C831.571,549.786 841.373,542.28 844.252,540.453C847.124,538.636 853.756,539.166 856.402,538.113C859.04,537.052 863.089,533.703 865.555,529.897C869.722,529.771 881.404,526.953 887.101,523.786C892.609,520.718 903.58,515.056 904.255,514.705C903.778,514.794 898.171,516.055 892.735,518.971C887.038,522.03 880.468,523.497 876.707,523.668C872.953,523.849 866.554,525.081 855.34,527.07C858.337,524.497 878.173,520.734 879.991,517.801C877.885,518.8 876.472,518.27 876.472,518.27C876.472,518.27 882.052,511.815 884.923,507.999C887.713,504.301 900.079,491.457 900.853,490.656L887.038,502.068L897.856,485.176C900.727,483.133 904.516,480.424 906.352,479.001C909.52,476.535 912.688,469.578 913.66,469.497C914.218,469.443 916.126,469.39 918.16,469.497L921.094,472.882C921.094,472.882 918.583,471.388 917.395,471.388C916.208,471.388 913.804,473.134 913.804,473.134C913.804,473.134 915.802,472.432 916.324,472.432C916.855,472.432 917.62,473.781 919.672,476.014C921.724,478.236 925.306,483.996 925.306,483.996L918.907,478.236C918.907,478.236 917.792,490.981 918.088,492.97C918.376,494.904 920.752,500.583 920.896,500.935Z" style="fill:rgb(8,36,63);fill-rule:nonzero;"/>
                <path d="M893.176,483.825L893.176,488.952L881.476,473.232L889.36,480.495C889.36,480.495 884.824,467.689 883.897,465.492C882.97,463.287 877.912,458.266 876.5,457.744C875.095,457.212 873.556,454.17 873.286,451.579C873.025,448.978 872.053,444.18 870.469,441.714C868.885,439.249 866.419,436.782 863.647,436.081C864.925,437.62 865.141,441.939 865.141,441.939C865.141,441.939 859.336,429.394 858.229,428.953C857.131,428.511 854.269,428.953 854.269,428.953C854.269,428.953 856.033,431.94 856.429,435.153C854.89,434.01 853.783,431.193 853.783,431.193C853.783,431.193 852.91,434.722 853.612,436.432C854.314,438.15 856.078,441.454 857.437,443.785C858.805,446.115 857.527,453.514 857.527,453.514C857.527,453.514 856.825,448.095 856.69,446.647C856.564,445.197 855.727,443.389 853.351,441.318C852.82,443.785 847.312,454.881 845.728,455.098C844.144,455.322 841.948,457.212 839.788,460.821C837.665,464.376 829.276,482.602 829.015,483.168L843.397,461.748L832.75,487.138C833.137,486.886 845.521,478.875 848.941,478.606C852.316,478.354 864.052,481.494 864.754,481.684C864.034,481.584 851.569,479.893 849.517,480.145C847.402,480.414 832.264,489.612 825.083,495.732C818.134,501.663 809.035,511.222 808.468,511.815C808.927,511.465 815.236,506.47 819.142,504.049C823.192,501.547 834.46,497.496 834.46,497.496C834.46,497.496 824.957,503.212 823.499,505.678C822.049,508.144 818.215,515.406 814.166,520.645C810.115,525.883 804.571,531.039 801.925,533.946C799.288,536.845 798.712,537.159 791.674,540.939C796.561,540.543 809.944,537.772 817.423,534.559C809.017,541.731 792.241,544.773 787.93,544.818C783.619,544.863 765.961,548.994 764.026,549.13C762.091,549.265 750.823,553.927 750.823,553.927C750.823,553.927 765.52,544.287 767.77,543.847C770.011,543.405 783.574,541.426 785.95,540.679C788.326,539.932 789.118,538.474 791.737,535.882C794.356,533.28 799.99,529.807 804.13,525.847C808.144,522.004 813.346,514.984 813.661,514.542C813.301,514.822 807.469,519.43 803.338,522.453C799.208,525.478 792.295,527.683 791.863,527.817L800.962,521.752C800.962,521.752 804.085,512.418 803.779,510.789C803.473,509.16 802.762,507.928 804.13,503.787C805.499,499.648 806.335,493.356 806.335,493.356L803.518,500.224C803.518,500.224 802.762,498.019 803.158,495.732C803.554,493.446 807.083,482.745 807.083,482.745C807.083,482.745 804.041,487.236 801.574,493.843C799.108,500.439 799.027,502.734 795.985,508.278C792.952,513.822 786.301,520.914 786.301,520.914L791.54,511.672C791.54,511.672 785.725,516.424 783.178,518.27C780.703,520.068 770.461,535.566 769.822,536.538C770.272,535.656 777.013,522.615 780.847,517.261C784.807,511.707 791.053,508.494 792.727,506.82C794.401,505.155 795.85,502.248 797.218,498.414C796.561,495.201 799.684,487.921 803.572,478.606C803.572,478.597 803.582,478.597 803.582,478.588C803.653,478.416 803.725,478.255 803.806,478.093C803.887,477.922 803.968,477.75 804.049,477.589C804.067,477.534 804.085,477.481 804.121,477.436C806.165,473.367 809.503,470.568 812.41,468.76C812.428,468.75 812.437,468.741 812.455,468.732C815.362,466.933 817.819,466.132 818.125,466.032C818.143,466.023 818.152,466.023 818.152,466.023L812.851,485.751C812.851,485.751 819.538,470.667 821.653,465.501C823.705,460.497 826.657,453.648 826.837,453.226C826.846,453.216 826.846,453.208 826.846,453.208L832.678,449.589C832.678,449.589 835.855,449.185 839.554,447.78C843.253,446.368 847.447,440.437 847.447,440.437L840.256,444.163L850.705,425.298L858.715,425.298L864.349,432.426C864.349,432.426 866.293,432.777 869.11,434.01C871.748,435.163 877.084,449.689 878.407,453.037L874.79,451.047C876.814,455.628 879.586,456.114 883.303,458.337C883.312,458.337 883.312,458.347 883.321,458.347C884.617,459.129 885.598,460.129 886.318,461.109C887.155,462.243 887.659,463.342 887.92,464.017C887.947,464.098 887.983,464.179 888.001,464.241C888.019,464.305 888.037,464.358 888.064,464.422C888.127,464.602 888.154,464.7 888.154,464.7L888.163,464.719L893.176,483.825Z" style="fill:rgb(8,36,63);fill-rule:nonzero;"/>
                <path d="M749.194,515.19C746.458,516.945 742.057,516.774 742.057,516.774C746.629,514.184 755.935,509.143 756.313,508.944C756.052,509.215 751.84,513.481 749.194,515.19ZM761.344,524.614C765.304,517.827 767.68,508.323 768.301,504.273C768.913,500.224 771.379,491.683 771.379,491.683C771.379,491.683 773.755,492.735 775.69,499.692C775.474,494.806 775.141,490.494 774.646,489.856C772.486,488.731 769.003,486.931 769.003,486.931C769.003,486.931 767.815,489.828 764.116,490.665C760.417,491.502 755.792,494.193 752.182,498.55C748.573,502.905 742.057,510.96 742.057,510.96C742.057,510.96 736.072,511.798 732.418,513.867C728.764,515.938 706.075,534.883 702.619,544.152C698.155,545.269 689.641,553.485 686.239,554.484C684.907,554.871 683.062,555.906 681.307,557.014L681.136,557.977C688.525,556.132 695.572,555.861 702.97,550.147C710.368,544.423 724.543,535.972 738.007,530.067C731.671,535.701 719.341,543.1 719.341,543.1C719.341,543.1 733.516,539.751 740.563,535.351C747.475,531.03 757.78,522.903 758.167,522.606C757.906,523.057 753.64,530.292 746.818,534.559C739.96,538.843 730.024,553.197 729.493,553.981C730.087,553.342 739.663,542.938 744.523,540.814C749.545,538.608 756.061,534.648 764.071,526.197C772.082,517.747 772.783,511.581 772.783,511.581C772.783,511.581 768.382,519.24 761.344,524.614Z" style="fill:rgb(8,36,63);fill-rule:nonzero;"/>
                <path d="M913.814,470.839C913.806,470.84 913.799,470.841 913.792,470.842C913.799,470.841 913.807,470.84 913.814,470.839ZM680.292,559.3L1010.5,559.3C1007.98,556.756 1003.68,552.54 999.541,549.046C996.804,546.74 994.516,545.077 992.742,544.104C990.408,542.824 988.444,541.847 986.865,541.061C983.379,539.326 981.275,538.278 980.052,536.378C979.358,535.301 978.742,534.296 978.164,533.355C975.981,529.797 974.404,527.226 971.277,525.143C970.453,524.594 969.633,524.062 968.824,523.536C965.397,521.313 962.16,519.213 959.319,516.273C957.536,514.429 956.201,511.711 954.909,509.084C953.647,506.516 952.341,503.859 950.824,502.579C950.402,502.223 949.98,501.876 949.562,501.533C946.614,499.113 943.567,496.611 942.71,492.296C941.987,488.689 939.924,487.433 935.389,485.43C934.815,485.175 934.223,484.805 933.63,484.328C931.458,482.632 929.146,479.653 926.91,476.773C925.305,474.703 922.878,471.577 922.028,471.325C921.127,471.093 919.765,470.927 918.095,470.846C916.432,470.758 914.869,470.78 914.12,470.818C913.754,471.25 913.068,472.339 912.502,473.236C911.019,475.589 909.172,478.517 907.181,480.066C905.31,481.516 901.409,484.305 898.638,486.275C896.515,487.775 894.884,488.912 894.884,488.912C894.514,489.167 894.043,489.226 893.625,489.062C893.207,488.9 892.896,488.541 892.795,488.104C892.794,488.099 892.436,486.523 891.864,484.141C890.67,479.102 888.446,469.966 886.899,465.198C886.894,465.185 886.889,465.173 886.885,465.161C886.848,465.059 886.818,464.964 886.79,464.871C886.755,464.782 886.728,464.699 886.703,464.607C886.678,464.555 886.657,464.495 886.637,464.435C886.15,463.023 885.936,462.703 885.913,462.672C885.772,462.493 885.583,462.282 885.364,462.064C884.629,461.313 883.593,460.393 882.497,459.42C882.467,459.399 882.44,459.376 882.412,459.352C879.64,456.918 877.917,455.349 877.375,454.095C877.342,454.023 877.291,453.895 877.228,453.735L877.153,453.545C877.141,453.515 877.13,453.484 877.121,453.453C876.981,453.099 876.802,452.636 876.59,452.085C871.55,439.015 869.442,435.712 868.561,435.244C865.955,434.103 864.125,433.758 864.107,433.754C863.785,433.694 863.493,433.521 863.29,433.263L858.061,426.648L851.5,426.648L840.176,447.086C840.039,447.334 839.826,447.533 839.569,447.653C839.538,447.668 836.393,449.144 833.311,450.781C829.643,452.717 828.327,453.682 827.857,454.11C827.835,454.134 827.815,454.158 827.792,454.18C826.29,455.634 823.193,461.88 821.472,465.729C821.327,466.056 821.055,466.313 820.72,466.439C820.708,466.444 819.901,466.751 818.676,467.268C818.657,467.275 818.636,467.283 818.616,467.291C817.233,467.88 815.164,468.811 813.094,469.922C813.052,469.948 813.058,469.945 813.014,469.967C810.84,471.148 809.19,472.271 808.148,473.283C807.777,473.648 806.91,474.753 805.337,478.022C805.326,478.046 805.314,478.069 805.3,478.093C805.287,478.128 805.271,478.163 805.256,478.192L805.023,478.676C804.945,478.832 804.885,478.97 804.825,479.112C804.815,479.136 804.804,479.158 804.793,479.181C801.079,487.212 796.739,499.833 796.695,499.96C796.607,500.218 796.442,500.443 796.222,500.606L788.996,505.97C788.65,506.227 788.205,506.303 787.792,506.176C787.382,506.049 787.056,505.734 786.916,505.328C786.869,505.199 785.616,501.925 781.153,501.925C780.588,501.925 780.084,501.574 779.888,501.046C779.096,498.921 776.687,492.453 775.151,491.645C774.862,491.49 774.469,491.285 774.024,491.054C772.638,490.332 770.708,489.333 769.502,488.71C768.679,489.829 767.102,491.373 764.414,491.981C761.416,492.66 756.901,494.969 753.222,499.411C749.66,503.711 743.171,511.729 743.107,511.81C742.891,512.076 742.583,512.25 742.245,512.298C742.187,512.306 736.465,513.127 733.083,515.042C729.728,516.942 707.179,535.784 703.883,544.625C703.728,545.041 703.377,545.356 702.946,545.462C700.776,546.005 697.175,548.696 693.998,551.072C690.994,553.318 688.399,555.257 686.62,555.779C685.917,555.983 684.555,556.561 682.028,558.155C681.431,558.534 680.844,558.924 680.292,559.3ZM1013.7,562L676.087,562C675.508,562 674.994,561.631 674.808,561.082C674.624,560.533 674.808,559.928 675.268,559.576C675.373,559.497 677.847,557.613 680.583,555.875C682.861,554.437 684.586,553.56 685.862,553.188C687.172,552.804 689.82,550.823 692.38,548.909C695.637,546.475 698.996,543.965 701.611,543.049C705.967,533.095 728.122,514.75 731.752,512.692C734.971,510.869 739.74,509.97 741.335,509.707C742.705,508.016 748.032,501.442 751.142,497.689C754.634,493.473 759.374,490.355 763.818,489.349C766.75,488.685 767.744,486.441 767.753,486.419C767.897,486.068 768.181,485.794 768.537,485.663C768.892,485.532 769.286,485.559 769.623,485.731C769.623,485.731 773.108,487.532 775.269,488.658C775.723,488.894 776.122,489.104 776.413,489.257C778.143,490.169 779.661,492.817 782.102,499.263C785.676,499.554 787.645,501.462 788.628,502.88L794.279,498.686C795.053,496.458 798.948,485.384 802.346,478.039L802.347,478.038C802.427,477.849 802.508,477.669 802.598,477.488L802.8,477.071C802.833,476.979 802.879,476.876 802.944,476.768C804.28,474.001 805.367,472.229 806.263,471.351C807.486,470.163 809.335,468.893 811.766,467.572C811.807,467.546 811.807,467.547 811.851,467.525C813.994,466.374 816.162,465.401 817.596,464.79L817.596,464.791C817.618,464.781 817.639,464.773 817.662,464.765C818.325,464.486 818.869,464.267 819.236,464.12C820.223,461.947 823.686,454.519 825.804,452.348C825.836,452.311 825.87,452.274 825.905,452.24C826.819,451.352 828.828,450.094 832.047,448.395C834.54,447.071 837.072,445.852 838.027,445.396L849.524,424.645C849.762,424.214 850.214,423.948 850.705,423.948L858.715,423.948C859.128,423.948 859.519,424.137 859.774,424.461L865.109,431.21C865.905,431.399 867.552,431.855 869.652,432.774C871.715,433.675 874.368,438.817 879.11,451.114C879.334,451.698 879.522,452.183 879.664,452.541C879.674,452.57 879.685,452.6 879.695,452.63L879.743,452.752C879.782,452.853 879.813,452.935 879.84,452.996C880.189,453.798 882.53,455.862 884.122,457.261C884.155,457.284 884.187,457.31 884.217,457.337L884.286,457.397C885.42,458.404 886.492,459.355 887.284,460.165C887.561,460.443 887.825,460.736 888.035,461.003C888.272,461.301 888.6,461.845 889.197,463.576C889.252,463.725 889.279,463.8 889.297,463.863C889.314,463.905 889.342,463.986 889.356,464.029C889.373,464.086 889.389,464.143 889.411,464.204C889.424,464.236 889.437,464.27 889.446,464.3C891.024,469.144 893.284,478.418 894.491,483.515C894.675,484.286 894.839,484.975 894.975,485.553C895.569,485.136 896.289,484.63 897.077,484.073C899.826,482.118 903.695,479.351 905.525,477.935C907.141,476.677 908.919,473.856 910.218,471.797C911.803,469.283 912.458,468.242 913.548,468.152C914.236,468.084 916.263,468.045 918.232,468.149C920.102,468.24 921.612,468.429 922.709,468.713C924.341,469.14 926.09,471.314 929.042,475.116C931.078,477.739 933.383,480.711 935.307,482.212C935.732,482.554 936.123,482.801 936.482,482.961C941.195,485.042 944.359,486.78 945.359,491.769C946.027,495.138 948.458,497.135 951.275,499.446C951.703,499.797 952.134,500.152 952.565,500.515C954.515,502.161 955.883,504.945 957.333,507.894C958.532,510.334 959.773,512.857 961.259,514.398C963.888,517.114 967,519.135 970.293,521.273C971.114,521.804 971.941,522.341 972.775,522.898C976.395,525.308 978.191,528.235 980.465,531.943C981.034,532.868 981.64,533.857 982.322,534.916C983.143,536.192 984.893,537.063 988.068,538.644C989.667,539.44 991.659,540.431 994.04,541.735C995.971,542.796 998.408,544.561 1001.28,546.981C1007.77,552.457 1014.61,559.648 1014.68,559.72C1015.06,560.112 1015.16,560.687 1014.94,561.183C1014.73,561.678 1014.24,562 1013.7,562Z" style="fill:rgb(8,36,63);fill-rule:nonzero;"/>
                <path d="M703.865,544.668C702.377,547.054 700.711,549.18 698.977,551.258C699.929,548.741 700.798,546.17 701.368,543.643L703.865,544.668Z" style="fill:rgb(8,36,63);fill-rule:nonzero;"/>
                <path d="M742.044,509.613C743.596,509.461 745.121,509.283 746.618,509.013C748.101,508.701 749.567,508.315 750.924,507.75C751.26,507.607 751.595,507.456 751.898,507.289C752.052,507.207 752.195,507.119 752.303,507.052L752.816,506.715C753.493,506.258 754.185,505.82 754.89,505.399C756.297,504.553 757.76,503.779 759.316,503.127L755.698,506.411L753.89,508.052L753.438,508.462C753.261,508.619 753.087,508.755 752.912,508.882C752.561,509.14 752.198,509.365 751.829,509.582C750.347,510.436 748.743,511.032 747.102,511.477C745.458,511.91 743.771,512.175 742.076,512.313L742.044,509.613Z" style="fill:rgb(8,36,63);fill-rule:nonzero;"/>
                <path d="M768.708,489.636C767.949,490.685 766.996,491.599 766.053,492.53C765.114,493.464 764.183,494.415 763.258,495.374L757.643,501.102C759.003,498.79 760.419,496.517 761.888,494.273C762.629,493.157 763.378,492.044 764.146,490.938C764.912,489.828 765.68,488.713 766.724,487.804L768.708,489.636Z" style="fill:rgb(8,36,63);fill-rule:nonzero;"/>
                <path d="M780.403,502.774C781.679,502.687 782.56,502.709 784.409,505.086L783.242,506.055C783.242,506.055 781.195,502.907 780.403,502.774Z" style="fill:rgb(8,36,63);fill-rule:nonzero;"/>
                <path d="M878.087,490.625L876.678,501.982L871.131,507.441L878.087,490.625Z" style="fill:rgb(8,36,63);fill-rule:nonzero;"/>
                <path d="M953.804,527.691C957.59,531.037 970.796,541.426 970.796,541.426C970.796,541.426 961.816,538.345 959.527,535.879C957.238,533.414 953.804,527.691 953.804,527.691Z" style="fill:rgb(8,36,63);fill-rule:nonzero;"/>
                <path d="M854.667,557.714C855.02,557.714 868.754,550.759 875.886,544.067C883.017,537.376 884.602,535.439 891.03,532.093C897.457,528.748 901.506,526.635 906.437,527.339C911.368,528.043 915.593,535.615 917.882,537.904C920.171,540.193 921.316,542.259 921.933,542.459C922.549,542.658 928.095,544.067 930.649,546.004C933.203,547.941 938.573,552.343 938.573,552.343C938.573,552.343 933.554,549.262 929.064,546.885C924.574,544.508 923.605,546.092 921.14,544.859C918.675,543.627 909.871,531.917 907.757,531.125C905.645,530.332 902.563,530.42 902.563,530.42L907.582,533.356C907.582,533.356 904.119,532.592 901.536,534.705C898.954,536.818 881.931,549.673 880.64,550.553C879.349,551.434 869.752,554.721 869.752,554.721L882.724,544.126C882.724,544.126 867.668,551.606 865.791,553.927C863.912,556.246 854.667,557.714 854.667,557.714Z" style="fill:rgb(8,36,63);fill-rule:nonzero;"/>
                <path d="M837.792,540.34C837.792,540.34 834.505,545.095 829.986,546.562C832.657,542.459 835.224,541.631 837.792,540.34Z" style="fill:rgb(8,36,63);fill-rule:nonzero;"/>
            </g>
        </g>
    </g>
    <defs>
        <linearGradient id="_Linear1" x1="0" y1="0" x2="1" y2="0" gradientUnits="userSpaceOnUse" gradientTransform="matrix(337.613,0,0,135.351,676.087,492.974)"><stop offset="0" style="stop-color:rgb(255,86,119);stop-opacity:1"/><stop offset="1" style="stop-color:black;stop-opacity:1"/></linearGradient>
    </defs>
</svg>
