<?xml version="1.0" encoding="UTF-8" standalone="no"?>
<!DOCTYPE svg PUBLIC "-//W3C//DTD SVG 1.1//EN" "http://www.w3.org/Graphics/SVG/1.1/DTD/svg11.dtd">
<svg width="100%" height="100%" viewBox="0 0 303 149" version="1.1" xmlns="http://www.w3.org/2000/svg" xmlns:xlink="http://www.w3.org/1999/xlink" xml:space="preserve" xmlns:serif="http://www.serif.com/" style="fill-rule:evenodd;clip-rule:evenodd;stroke-linejoin:round;stroke-miterlimit:2;">
    <g transform="matrix(1,0,0,1,-345.676,-207.148)">
        <g>
            <g>
                <path d="M647.369,354.204L346.891,354.204C346.891,354.204 352.86,345.748 356.935,343.901C361.001,342.054 363.642,335.023 366.015,332.804C368.396,330.585 375.945,327.369 375.945,327.369C375.945,327.369 377.8,316.215 378.958,312.943C380.125,309.67 388.047,306.495 388.047,306.495L391.376,292.661C391.376,292.661 398.188,288.376 399.881,288.27C401.565,288.165 403.153,295.196 403.364,295.196C403.574,295.196 405.794,295.666 407.171,297.885C408.54,300.105 412.979,300.477 412.979,300.477L416.624,281.879L424.286,276.339C424.286,276.339 427.51,250.451 428.19,249.131C428.879,247.811 435.116,245.429 435.116,245.429L436.695,235.394L446.156,230.274C446.156,230.274 449.007,250.873 449.745,254.355C450.49,257.847 452.547,263.079 452.547,263.079L455.487,236.884L459.416,233.838C459.416,233.838 460.882,219.339 462.186,218.545C464.802,216.764 472.052,216.286 472.052,216.286L473.518,210.421L475.932,208.364C475.932,208.364 486.867,211.215 488.414,213.272C489.96,215.338 488.333,219.137 489.839,224.588C491.346,230.04 492.261,234.235 492.099,238.512C493.881,238.391 496.295,240.059 497.882,241.404C499.47,242.748 498.555,243.461 499.43,244.773C500.304,246.077 502.16,246.118 502.2,248.459C502.241,250.792 503.667,262.083 504.265,264.424C504.857,266.757 508.818,270.086 510.681,271.155C512.981,266.878 514.958,258.244 514.958,258.244L520.19,258.082L521.931,264.578C521.931,264.578 523.917,270.442 524.151,271.398C524.386,272.346 527.002,273.536 527.002,273.536L526.371,267.194L529.934,255.23C528.987,253.011 529.383,248.888 530.332,246.353C531.288,243.817 534.138,241.841 534.138,241.841L536.673,232.566L541.583,229.715C543.405,225.673 543.963,224.094 546.337,224.726C548.718,225.357 550.541,225.042 551.885,226.07C553.23,227.099 554.105,239.775 555.133,243.105C556.163,246.434 554.024,248.888 554.98,252.93C555.927,256.972 556.64,256.502 558.698,259.191C560.763,261.889 564.643,270.628 564.643,270.628C566.546,268.093 570.88,271.795 570.88,271.795L573.31,272.005L576.477,278.234L578.275,277.497L583.241,280.349C583.241,280.349 587.46,294.191 587.785,294.928C589.55,299.06 590.636,280.77 590.636,280.77L593.528,277.538L594.913,269.891L597.408,267.299L598.719,267.299L598.719,278.34C598.719,278.34 604.422,290.231 605.005,292.393C605.581,294.564 605.054,302.907 605.054,302.907C605.054,302.907 610.497,306.973 612.611,309.403C614.725,311.833 615.778,318.864 616.888,320.759C617.366,321.578 618.273,322.468 619.456,323.457C620.987,324.736 622.979,326.187 625.077,327.896C628.771,330.9 630.803,333.995 633.663,336.846C636.514,339.697 641.107,342.232 643.091,345.246C644.517,347.424 645.951,348.559 646.752,350.875C647.06,351.766 647.279,352.835 647.369,354.204Z" style="fill:url(#_Linear1);fill-rule:nonzero;"/>
                <path d="M350.222,350.912C353.312,348.733 356.046,348.218 359.374,346.712C362.702,345.207 365.848,339.657 371.379,336.962C368.764,336.847 364.445,339.978 364.644,339.858C364.841,339.74 366.625,336.055 368.922,334.748C371.22,333.44 373.954,332.489 374.469,331.895C374.984,331.301 375.855,328.091 375.855,328.091C375.855,328.091 370.15,329.637 368.09,330.984C366.03,332.331 363.613,335.659 362.663,337.204C361.711,338.749 360.602,342.196 356.363,344.335C352.124,346.475 350.222,350.912 350.222,350.912Z" style="fill:rgb(8,36,63);fill-rule:nonzero;"/>
                <path d="M393.513,317.223C393.038,312.864 393.856,310.672 394.701,306.581C395.045,310.097 394.622,314.053 393.513,317.223ZM409.07,300.714C407.327,299.526 406.085,297.862 405.372,297.281C404.659,296.7 402.81,297.254 400.697,298.469C398.584,299.684 396.128,301.454 396.128,301.454L397.369,299.896C397.369,299.896 397.369,298.575 397.396,297.465C397.422,296.356 395.758,295.669 395.045,295.722C394.332,295.775 392.853,300.16 392.853,300.16C392.853,300.16 393.46,296.726 393.592,295.696C393.724,294.666 393.936,293.609 395.837,291.919C397.739,290.229 398.716,289.093 398.716,289.093L397.686,289.462L391.807,292.393C391.807,292.393 389.683,300.265 389.657,300.424C389.63,300.582 389.472,305.522 389.049,308.295C388.626,311.068 388.177,317.856 388.177,317.856L391.294,307.106C391.294,307.106 390.845,310.962 390.105,313.921C389.366,316.879 387.993,320.392 387.147,322.928C386.302,325.463 386.012,330.878 386.012,330.878C386.012,330.878 386.962,327.497 387.808,325.226C388.653,322.954 390.132,317.883 390.132,317.883C390.132,317.883 389.657,321.528 389.128,324.169C388.6,326.811 388.23,332.04 388.177,332.146C388.125,332.252 391.003,324.856 391.003,324.856L391.215,330.746C391.215,330.746 401.569,325.305 406.746,325.675C402.255,324.777 397.924,326.23 397.924,326.23L398.003,324.367C400.935,321.633 401.727,318.345 403.312,314.621C401.925,316.839 398.597,320.128 398.597,320.128C398.597,320.128 399.112,315.73 399.271,313.472C399.429,311.213 398.769,305.02 398.769,305.02L396.894,315.136C396.894,315.136 396.92,305.838 397.237,303.857C397.554,301.877 399.245,300.926 401.674,299.631C404.104,298.337 405.346,298.205 405.372,299.235C405.398,300.265 406.508,303.276 408.516,304.914C407.353,303.197 406.825,300.82 406.825,300.82C406.825,300.82 409.625,302.431 409.889,303.356C410.153,304.28 410.391,317.698 410.391,317.698C410.391,317.698 411.791,303.593 411.764,302.774C411.738,301.956 410.813,301.903 409.07,300.714Z" style="fill:rgb(8,36,63);fill-rule:nonzero;"/>
                <path d="M368.922,346.436C382.155,343.583 383.344,343.583 390.238,340.889C397.131,338.194 413.851,334.708 413.851,334.708C413.851,334.708 399.878,334.673 391.901,336.962C400.988,330.746 409.598,330.006 412.979,330.006C416.36,330.006 420.269,330.271 426.08,330.904C431.891,331.539 437.702,330.271 437.702,330.271C437.702,330.271 416.783,326.25 406.006,327.666C395.229,329.082 380.887,336.899 380.887,336.899L384.215,333.836L384.414,326.19L380.531,334.708C380.531,334.708 381.085,327.062 381.719,324.05C382.354,321.039 384.255,315.572 384.255,315.572L382.551,316.483C382.551,316.483 384.889,312.957 386.513,311.887L387.068,313.419L387.839,306.581C387.839,306.581 384.529,308.09 381.797,309.843C379.065,311.597 377.361,321.436 377.361,321.436L380.61,318.464C380.61,318.464 378.867,324.565 378.154,328.448C377.44,332.331 377.836,332.628 377.005,334.094C376.173,335.56 375.836,336.907 375.776,338.214C376.826,335.976 378.015,334.768 378.015,334.768L377.137,339.251C377.137,339.251 371.801,342.341 368.922,344.349C375.473,341.76 384.479,338.115 384.479,338.115C384.479,338.115 382.551,342.289 368.922,346.436Z" style="fill:rgb(8,36,63);fill-rule:nonzero;"/>
                <path d="M477.163,319.969C473.253,311.412 471.616,309.352 468.658,307.238C465.7,305.126 452.07,293.874 451.172,291.813C450.274,289.753 451.278,274.539 451.965,269.996C452.651,265.453 451.12,263.181 450.486,260.963C449.852,258.744 448.279,245.166 448.279,245.166L445.573,234.919C445.573,234.919 445.573,251.771 446.946,257.688L443.565,252.828C443.565,252.828 446.365,258.691 448.056,261.966C449.746,265.242 448.795,288.908 448.795,288.908L441.453,283.414L450.75,294.455C450.75,294.455 445.996,295.722 442.562,294.507C439.128,293.293 427.628,291.585 420.85,293.239C425.604,290.229 438.494,290.123 438.494,290.123C438.494,290.123 433.08,284.734 430.121,284.101C427.163,283.467 423.228,283.757 423.228,283.757C423.228,283.757 428.801,281.856 430.755,282.41C430.755,282.41 429.514,280.825 429.065,280.799C428.616,280.773 423.544,282.172 423.544,282.172C423.544,282.172 427.956,279.61 430.808,278.977C433.661,278.342 440.607,276.626 440.607,276.626C440.607,276.626 434.4,276.573 429.778,277.999C432.842,275.437 439.287,274.249 439.287,274.249L439.841,263.314C439.841,263.314 442.496,263.868 444.437,264.858C443.117,261.993 433.476,260.963 433.476,260.963C433.476,260.963 435.958,259.669 438.072,259.748L439.181,247.862L434.215,251.216C434.215,251.216 435.853,248.813 437.306,247.862C438.758,246.911 442.826,240.07 442.826,240.07C442.826,240.07 438.441,244.957 436.777,245.775C435.113,246.594 434.11,247.122 433.661,248.021C433.211,248.918 430.095,263.128 430.095,263.128L431.838,247.228C431.838,247.228 429.35,247.716 428.723,248.564C428.096,249.411 428.008,251.798 427.071,255.43C426.133,259.061 424.67,273.297 424.67,273.297L424.467,274.895C424.467,274.895 428.823,270.131 434.176,269.811C429.917,271.515 428.134,274.149 426.767,276.19C425.4,278.231 422.092,279.716 421.141,282.291C420.19,284.867 419.933,287.818 419.061,290.394C418.189,292.969 417.219,301.586 415.832,306.222C416.505,299.565 415.911,296.99 416.387,294.93C416.862,292.87 419.12,282.806 419.12,282.806L416.228,283.898L413.295,298.86C413.295,298.86 413.93,299.605 413.904,301.11C413.877,302.616 411.606,324.882 411.606,324.882C411.606,324.882 416.043,313.102 415.99,313.261C415.938,313.419 414.881,322.664 414.881,322.664C414.881,322.664 424.073,323.456 428.246,325.305C432.419,327.154 443.988,327.84 446.313,327.629C448.637,327.418 451.489,325.675 451.489,325.675C451.489,325.675 449.06,326.942 441.928,325.78C434.796,324.618 427.929,323.297 427.929,323.297C427.929,323.297 433.687,323.297 436.54,322.664C430.887,321.792 424.033,321.277 424.033,321.277C424.033,321.277 431.601,320.049 433.423,319.494C430.372,317.791 421.973,318.543 421.973,318.543C421.973,318.543 426.45,316.8 428.985,317.038C427.619,315.611 422.119,315.786 418.823,316.423C421.993,313.829 426.688,312.561 429.62,312.085C432.551,311.61 435.8,311.095 436.275,310.976C436.751,310.857 437.227,308.282 438.217,307.331C435.364,305.627 431.521,304.597 429.461,304.835C433.542,303.369 439.604,303.329 440.792,303.726C441.981,304.122 450.057,313.139 453.467,319.724C452.797,311.887 445.863,304.122 445.863,304.122C445.863,304.122 450.816,306.974 452.321,307.172C448.637,303.646 446.933,302.933 446.577,302.022C446.22,301.11 444.318,296.633 444.596,296.515C444.873,296.396 449.667,296.356 451.331,296.633C452.995,296.911 454.699,298.456 456.917,300.754C459.136,303.052 463.28,305.865 465.13,307.172C466.981,308.48 469.318,309.748 470.546,311.333C471.775,312.917 477.163,319.969 477.163,319.969Z" style="fill:rgb(8,36,63);fill-rule:nonzero;"/>
                <path d="M493.169,274.961C492.931,277.894 491.228,280.231 490.633,283.163C490.04,286.095 488.574,294.97 488.574,294.97C488.574,294.97 488.309,278.574 488.256,274.232C488.204,269.89 487.702,253.488 488.256,250.239C488.811,246.99 489.603,238.829 488.969,235.342C488.335,231.855 487.623,225.596 488.969,222.505L492.166,232.172L491.228,239.027C491.228,239.027 490.058,258.955 490.583,266.483C492.06,257.371 493.169,252.854 493.169,252.854C493.169,252.854 492.931,264.185 492.536,266.959C492.139,269.732 491.109,277.814 491.109,277.814L493.169,274.961Z" style="fill:rgb(8,36,63);fill-rule:nonzero;"/>
                <path d="M503.259,298.205C503.259,298.205 505.236,273.757 504.104,264.898C502.972,256.04 502.414,251.195 502.414,251.195L499.561,247.545L498.769,255.311C498.769,255.311 498.453,246.982 498.557,244.64C498.663,242.297 498.081,241.303 496.461,240.297C494.841,239.291 492.166,238.829 492.166,238.829C492.166,238.829 496.127,241.998 496.656,243.9C497.184,245.802 496.969,252.299 497.129,256.473C497.29,260.646 498.504,278.923 498.664,279.029C498.822,279.135 500.3,255.205 500.3,255.205C500.3,255.205 501.569,265.189 501.569,269.204C501.569,273.218 503.259,298.205 503.259,298.205Z" style="fill:rgb(8,36,63);fill-rule:nonzero;"/>
                <path d="M506.521,267.788C506.521,267.788 505.769,279.161 506.521,282.648L508.225,274.565C508.225,274.565 508.462,291.839 508.621,295.484C510.206,286.293 510.602,275.596 510.126,274.011C509.651,272.426 506.521,267.788 506.521,267.788Z" style="fill:rgb(8,36,63);fill-rule:nonzero;"/>
                <path d="M530.517,267.671C531.256,264.238 534.321,249.764 534.321,249.764C534.374,255.416 529.567,280.033 529.567,280.033C529.567,280.033 529.778,271.106 530.517,267.671ZM537.121,244.217C537.332,250.873 535.906,265.242 532.683,274.011C534.584,263.234 535.747,247.386 537.121,244.217ZM543.605,309.748C543.605,309.748 541.03,308.836 540.911,308.836C540.792,308.836 543.565,318.939 543.565,318.939L539.048,308.203C538.137,307.727 532.829,303.686 532.829,303.686C532.829,303.686 538.375,305.31 543.05,306.419C547.725,307.529 555.821,312.165 555.821,312.165L547.527,305.548C547.527,305.548 541.188,303.567 536.83,302.735C542.139,301.665 545.625,302.062 545.625,302.062L541.426,293.464L545.705,293.939C542.694,290.73 536.315,290.017 530.015,290.493C532.392,288.591 537.147,288.591 537.147,288.591C537.147,288.591 542.297,282.608 543.328,280.786C544.358,278.963 545.506,275.358 545.506,275.358L538.494,284.272L538.771,278.488C540.317,277.656 542.02,269.534 542.456,265.81C542.892,262.085 543.447,254.835 544.279,251.111C545.111,247.386 548.954,246.356 548.954,246.356C548.954,246.356 546.378,245.92 544.516,247.426C542.654,248.932 538.415,260.105 538.415,260.105C538.415,260.105 541.465,249.367 542.297,247.624C543.129,245.881 546.22,244.138 546.417,242.87C546.616,241.602 548.676,230.667 548.399,229.676C548.122,228.686 547.17,226.586 547.17,226.586L552.203,228.29L551.885,226.07C551.885,226.07 546.337,224.726 545.813,224.618C545.289,224.511 544.833,225.199 543.777,227.735C542.72,230.271 540.872,236.451 540.872,236.451L540.501,229.901L536.673,232.566C536.673,232.566 535.53,236.752 534.789,239.46C534.048,242.169 533.311,242.492 533.311,242.492C529.712,244.677 529.725,251.824 529.725,251.824C529.725,251.824 531.31,254.412 531.521,255.099C531.732,255.786 530.675,258.585 530.359,261.808C530.042,265.03 528.668,269.521 528.458,271.845C528.246,274.169 527.559,279.875 527.136,281.776C526.713,283.678 523.492,289.33 523.492,289.33L523.849,270.386L519.793,258.244L514.958,258.244L511.277,271.422L514.775,267.513C514.775,267.513 513.666,271.581 512.926,272.32C512.187,273.06 511.659,277.603 511.394,282.833C511.13,288.063 511.394,301.639 511.394,301.639L512.926,288.591L514.603,300.477L515.883,284.259L519.318,277.603L516.518,280.033L517.364,266.457L518.526,276.599C518.526,276.599 519.899,273.535 519.688,271.475C519.477,269.415 518.684,261.861 518.684,261.861C518.684,261.861 521.589,270.26 521.749,273.43C521.906,276.599 521.695,293.741 521.695,293.741C520.625,295.96 517.099,303.765 517.099,303.765C517.099,303.765 523.716,292.711 527.638,290.334C522.922,294.455 514.603,314.581 514.603,314.581C514.603,314.581 523.439,299.922 527.361,296.316C523.32,301.784 520.111,313.393 520.666,319.217C521.695,311.333 529.5,299.129 529.5,299.129C529.5,299.129 525.499,308.282 526.211,311.213C526.648,308.678 530.729,303.686 530.729,303.686C530.729,303.686 525.816,314.462 525.935,315.73C526.053,316.998 526.41,319.573 526.806,320.326C527.203,321.079 531.838,323.297 531.838,323.297L530.729,320.247L533.977,323.733C533.977,323.733 536.394,324.011 542.773,323.733C549.152,323.456 550.221,321.633 554.976,318.147C552.203,318.623 547.091,321.198 547.091,321.198L543.605,309.748Z" style="fill:rgb(8,36,63);fill-rule:nonzero;"/>
                <path d="M552.07,230.376C552.07,230.376 551.014,257.529 550.486,263.974C549.958,270.419 549.217,301.281 549.217,301.281C549.217,301.281 551.436,289.33 552.07,281.829C552.705,274.328 552.757,254.518 553.021,251.612C553.286,248.707 554.875,242.069 554.875,242.069L552.07,230.376Z" style="fill:rgb(8,36,63);fill-rule:nonzero;"/>
                <path d="M575.402,276.12L575.402,303.091L570.903,296.436C570.903,296.436 572.17,301.586 574.31,304.676C576.45,307.767 577.717,312.838 577.717,312.838C577.717,312.838 576.952,311.993 574.68,309.457C572.409,306.921 565.488,307.186 565.488,307.186L568.71,305.812C568.71,305.812 565.33,304.914 562.847,306.023C560.364,307.133 555.821,304.809 555.821,304.809L562.266,304.544C562.266,304.544 561.209,271.158 561.209,270.366C561.209,269.573 556.191,272.373 556.191,272.373C556.191,272.373 559.096,269.204 560.839,268.781L557.368,257.631L563.383,267.885L564.22,299.473C564.22,299.473 566.088,269.646 566.769,269.764C567.45,269.883 571.729,271.868 571.729,271.868L571.986,274.275C571.986,274.275 572.514,293.662 572.62,293.503C572.725,293.345 574.089,273.539 574.089,273.539L575.402,276.12Z" style="fill:rgb(8,36,63);fill-rule:nonzero;"/>
                <path d="M617.654,335.263C616.148,327.894 615.039,320.326 614.088,316.087C613.137,311.848 612.749,309.433 611.721,308.467C610.694,307.502 605.065,302.729 605.065,302.729L604.5,293.266C604.5,293.266 604.89,291.771 603.693,289.091C602.495,286.412 598.346,277.92 598.346,277.92L598.346,267.299L596.392,268.355L594.856,270.207C594.856,270.207 593.856,272.939 594.067,273.166C594.279,273.393 594.648,277.233 594.648,277.233L593.486,278.237C593.486,278.237 593.591,285.421 593.486,285.686C593.38,285.949 592.166,279.822 592.166,279.822L590.491,282.887L589,294.372C589,294.372 587.305,296.779 587.147,297.941C586.989,299.103 584.875,308.981 584.875,308.981C584.875,308.981 582.657,306.816 582.445,300.107C581.864,306.974 581.653,309.457 583.291,310.514C584.928,311.57 593.75,317.856 595.705,319.019C597.66,320.181 599.508,321.132 600.195,323.086C600.881,325.041 603.153,327.788 605.9,329.795C608.647,331.802 610.179,333.07 610.179,333.07C605.319,327.84 606.375,328.58 604.157,325.886C601.938,323.192 601.938,321.554 601.41,320.392C600.881,319.23 586.566,310.355 586.566,310.355L589.101,300.212L591.109,298.364L591.214,311.517L592.905,309.298C592.905,309.298 593.75,292.711 595.018,288.379C594.701,297.36 595.705,308.506 595.705,308.506C595.705,308.506 596.867,289.225 597.29,286.636C597.712,284.048 595.441,283.011 595.229,281.284C595.018,279.558 596.919,271.687 596.919,271.687L597.131,279.135C597.131,279.135 602.677,291.391 602.784,293.979C602.889,296.567 603.312,317.011 603.312,317.011L604.262,307.027L607.749,309.616C607.749,309.616 608.7,320.075 611.183,325.305L610.179,312.362C610.179,312.362 614.617,331.01 617.654,335.263Z" style="fill:rgb(8,36,63);fill-rule:nonzero;"/>
                <path d="M384.717,354.201C384.717,354.201 416.519,344.798 424.654,340.994C432.789,337.191 452.44,329.373 461.843,327.471C471.247,325.569 485.509,324.407 485.509,324.407C485.509,324.407 458.304,329.875 451.093,334.708C451.093,334.708 457.511,333.044 461.632,333.202C461.632,333.202 431.046,346.436 425.975,350.318C441.505,343.979 463.296,335.342 463.296,335.342L433.74,352.062L463.375,340.017L443.565,352.062L457.67,346.277L448.479,354.201L450.143,354.201C450.143,354.201 463.217,347.862 467.971,345.009C472.725,342.156 485.404,331.38 493.09,326.546C500.776,321.713 504.738,319.573 508.462,319.732C512.187,319.89 529.699,326.23 534.532,326.467C525.737,327.339 513.93,321.633 507.195,322.585C500.459,323.535 474.31,343.583 474.31,343.583C474.31,343.583 496.022,330.667 505.055,328.29C494.833,334.312 477.559,346.277 477.559,346.277C477.559,346.277 502.361,332.568 512.424,330.112C495.705,339.383 485.246,345.326 480.095,349.763C490.633,344.534 494.516,343.662 494.516,343.662C494.516,343.662 485.404,349.605 481.125,354.201L384.717,354.201Z" style="fill:rgb(8,36,63);fill-rule:nonzero;"/>
                <path d="M532.155,354.201C532.155,354.201 538.335,350.794 544.358,348.971L520.705,354.597L518.645,354.201L539.088,345.247C539.088,345.247 517.732,351.942 513.375,352.616C518.249,349.209 530.174,343.503 530.174,343.503L508.225,350.675C508.225,350.675 521.893,343.424 525.221,341.641C528.549,339.858 532.75,338.115 532.75,338.115L508.225,345.683C508.225,345.683 519.357,338.115 522.765,337.442C516.981,337.877 511.078,339.185 511.078,339.185C511.078,339.185 515.158,335.857 522.448,334.589C529.738,333.321 532.432,333.361 535.918,331.38C539.405,329.399 549.112,325.516 554.236,323.562C559.36,321.607 564.273,320.868 567.918,321.026C571.563,321.185 575.419,323.878 583.238,330.852C591.056,337.825 595.705,344.639 595.705,344.639C595.705,344.639 586.724,336.082 581.6,331.961C576.476,327.84 572.302,323.826 567.231,323.614C562.16,323.403 549.112,327.735 541.505,331.644C558.621,326.837 563.692,327.048 567.02,328.21C570.348,329.373 572.039,331.961 572.039,331.961C572.039,331.961 563.639,331.116 556.614,332.489C565.752,332.278 572.409,334.655 579.962,338.67C569.978,336.293 563.216,335.765 554.923,337.244C565.76,336.458 572.356,338.67 580.068,342.051C567.601,339.198 563.322,338.881 555.398,339.832C571.247,341.417 575.156,342.791 585.879,347.703C574.627,344.745 567.337,342.791 556.56,343.372C576.053,346.013 583.396,350.344 583.396,350.344C583.396,350.344 571.616,347.017 557.776,347.122C571.458,349.235 575.895,351.295 578.43,352.458C570.084,350.662 560.681,350.503 560.681,350.503L575.737,354.201L532.155,354.201Z" style="fill:rgb(8,36,63);fill-rule:nonzero;"/>
                <path d="M611.791,354.201L605.213,347.544L623.834,354.201L611.791,354.201Z" style="fill:rgb(8,36,63);fill-rule:nonzero;"/>
                <path d="M595.705,335.897C600.697,341.443 603.681,344.745 609.017,346.382C614.352,348.02 614.458,349.763 626.661,351.401C615.039,347.334 605.372,342.791 602.784,341.1C600.195,339.41 595.705,335.897 595.705,335.897Z" style="fill:rgb(8,36,63);fill-rule:nonzero;"/>
                <path d="M612.503,344.137C621.299,347.386 639.761,354.201 639.761,354.201L642.376,353.646C642.376,353.646 633.898,349.763 628.43,348.02C622.963,346.277 612.503,344.137 612.503,344.137Z" style="fill:rgb(8,36,63);fill-rule:nonzero;"/>
                <path d="M646.752,350.875C643.674,347.805 639.447,344.824 636.701,343.65C633.955,342.476 629.775,337.518 624.948,335.339C627.75,335.761 632.44,338.604 632.732,338.782C632.375,338.409 626.657,332.602 624.948,331.168C623.173,329.686 619.456,323.457 619.456,323.457C620.987,324.736 622.979,326.187 625.077,327.896C628.771,330.9 630.803,333.995 633.663,336.846C636.514,339.697 641.107,342.232 643.091,345.246C644.517,347.424 645.951,348.559 646.752,350.875Z" style="fill:rgb(8,36,63);fill-rule:nonzero;"/>
                <path d="M569.199,310.738C569.199,310.738 570.031,313.551 570.585,314.066C571.14,314.581 579.46,318.147 579.46,318.147C579.46,318.147 572.33,311.729 569.199,310.738Z" style="fill:rgb(8,36,63);fill-rule:nonzero;"/>
                <path d="M574.984,321.005C581.719,324.407 587.463,330.904 587.463,330.904C587.463,330.904 577.678,324.299 574.984,321.005Z" style="fill:rgb(8,36,63);fill-rule:nonzero;"/>
                <path d="M495.176,321.005C498.769,318.49 507.274,314.951 508.225,314.634C509.175,314.317 510.918,311.834 510.918,311.834L507.274,313.895L513.296,306.182C513.296,306.182 507.96,309.616 505.583,312.679C503.207,315.743 498.188,316.653 495.176,321.005Z" style="fill:rgb(8,36,63);fill-rule:nonzero;"/>
                <path d="M456.167,269.678C456.191,269.058 456.576,268.506 457.147,268.263C460.035,267.033 462.477,267.021 463.335,267.236C464.287,267.474 467.06,270.802 467.892,273.1C468.724,275.398 472.963,283.282 474.033,285.104L470.864,282.093C470.864,282.093 470.586,285.817 470.784,287.64C470.982,289.462 473.716,294.494 473.716,294.494C473.716,294.494 470.032,290.453 467.179,288.393C464.326,286.333 462.305,285.619 462.305,285.619C462.305,285.619 472.012,293.86 473.834,298.575C470.269,294.019 464.88,290.255 462.702,289.542C468.447,294.573 471.696,299.882 471.696,299.882C471.696,299.882 465.475,294.534 462.9,292.87C465.99,297.307 474.205,304.312 476.793,313.594C471.986,305.654 461.896,298.469 458.938,295.828C455.98,293.187 453.602,291.869 453.602,290.362C453.602,288.855 452.969,273.747 454.448,270.947L455.61,284.47L456.167,269.678Z" style="fill:rgb(8,36,63);fill-rule:nonzero;"/>
                <path d="M378.801,350.979C384.506,352.193 393.434,349.182 396.92,347.967C400.407,346.752 408.912,343.741 408.912,343.741C408.912,343.741 402.52,344.798 396.233,346.436C389.947,348.073 382.446,350.925 378.801,350.979Z" style="fill:rgb(8,36,63);fill-rule:nonzero;"/>
                <path d="M366.149,351.262C379.065,349.446 390.872,345.722 395.626,344.613C400.38,343.503 412.979,338.511 419.239,338.591C407.274,337.561 366.149,351.262 366.149,351.262Z" style="fill:rgb(8,36,63);fill-rule:nonzero;"/>
                <path d="M399.053,289.898L399.41,297.783C399.41,297.783 400.717,296.376 401.807,296.079L400.281,295.881L399.053,289.898Z" style="fill:rgb(8,36,63);fill-rule:nonzero;"/>
                <path d="M435.879,244.217L440.436,240.334L439.445,239.938L439.405,236.214L442.1,233.124L439.58,233.833L436.857,235.306L435.879,244.217Z" style="fill:rgb(8,36,63);fill-rule:nonzero;"/>
                <path d="M532.761,241.749C533.351,241.196 534.064,240.825 534.775,240.496L536.89,239.533C538.282,238.897 539.641,238.233 540.951,237.402C539.992,238.636 538.8,239.715 537.595,240.708L535.807,242.165C535.229,242.655 534.684,243.142 534.034,243.469L532.761,241.749Z" style="fill:rgb(8,36,63);fill-rule:nonzero;"/>
                <path d="M484.77,227.18C482.709,240.651 483.977,266.245 483.977,266.245C483.977,266.245 485.483,254.359 486.276,245.009C487.068,235.659 484.77,227.18 484.77,227.18Z" style="fill:rgb(8,36,63);fill-rule:nonzero;"/>
                <path d="M488.216,215.453C486.394,213.353 480.095,211.887 477.361,211.927C479.025,211.174 482.353,211.134 482.353,211.134C482.353,211.134 477.317,208.313 476.104,208.409C474.891,208.506 473.386,211.808 473.386,211.808L470.929,237.402L470.666,224.196C470.666,224.196 467.971,223.813 467.536,222.505C467.099,221.198 466.756,220.418 466.254,220.524C465.752,220.63 463.692,230.905 462.424,236.016C462.635,232.674 463.296,224.618 463.296,224.618C463.296,224.618 460.641,236.333 460.086,241.642C459.532,246.951 458.304,256.222 458.304,256.222L457.911,235.005L455.487,236.884L454.078,268.147C454.078,268.147 457.709,265.81 459.809,265.69C461.91,265.572 463.811,265.017 464.326,264.304C464.841,263.591 465.872,247.585 465.872,247.585L466.386,261.61L469.437,242.474C469.437,242.474 468.922,261.293 469.001,262.204C469.081,263.115 472.052,262.68 473.122,265.572C474.192,268.464 477.995,273.297 477.995,273.297C477.995,273.297 472.805,262.719 472.805,259.193C473.954,260.857 475.182,263.551 475.182,263.551C475.182,263.551 476.212,257.41 476.41,255.825C476.608,254.241 476.727,252.814 475.895,252.26C475.063,251.705 472.131,251.309 472.131,251.309C472.131,251.309 475.261,250.635 476.093,250.952C476.925,251.269 479.104,254.161 479.421,255.627C479.897,251.666 478.549,249.882 476.925,248.496L478.431,215.321C478.431,215.321 480.28,224.724 479.962,231.01C479.646,237.296 479.593,247.334 479.593,247.334C479.593,247.334 481.442,233.282 481.865,225.728C482.287,218.173 481.917,214.317 481.917,214.317C481.917,214.317 485.167,213.947 488.216,215.453Z" style="fill:rgb(8,36,63);fill-rule:nonzero;"/>
                <path d="M469.952,222.056C470.259,219.414 470.322,216.853 470.322,216.853L469.16,216.853C469.16,216.853 467.892,218.491 467.866,219.455C467.839,220.418 469.921,222.323 469.952,222.056Z" style="fill:rgb(8,36,63);fill-rule:nonzero;"/>
                <path d="M466.386,265.017C465.216,265.651 465.99,266.232 467.337,268.517C468.684,270.802 471.973,276.388 471.973,276.388C471.973,276.388 474.073,274.05 474.271,272.941C474.469,271.832 474.231,269.455 473.439,268.107C472.646,266.76 470.032,265.004 469.292,265.017C468.552,265.03 466.704,264.845 466.386,265.017Z" style="fill:rgb(8,36,63);fill-rule:nonzero;"/>
                <path d="M462.907,219.524C462.894,219.533 462.882,219.541 462.87,219.55C462.882,219.542 462.895,219.533 462.907,219.524ZM551.039,226.93L551.039,226.931L551.039,226.93ZM525.293,271.006M403.367,293.981C403.423,293.981 403.511,293.989 403.625,294.008C403.544,293.991 403.458,293.981 403.367,293.981ZM349.31,352.99L646.018,352.99C645.92,352.359 645.784,351.791 645.604,351.273C645.148,349.953 644.462,349.082 643.596,347.98C643.128,347.385 642.598,346.711 642.075,345.911C640.999,344.276 638.916,342.676 636.902,341.129C635.475,340.034 634,338.901 632.804,337.705C631.705,336.609 630.713,335.465 629.753,334.359C628.174,332.537 626.541,330.653 624.311,328.837C623.299,328.015 622.314,327.252 621.393,326.541C620.41,325.78 619.481,325.062 618.676,324.389C617.222,323.174 616.347,322.244 615.839,321.373C615.329,320.502 614.912,319.01 614.383,317.121C613.681,314.608 612.807,311.48 611.694,310.2C609.689,307.896 604.379,303.92 604.327,303.881C603.998,303.635 603.815,303.24 603.841,302.831C604.04,299.681 604.212,294.146 603.831,292.704C603.425,291.202 599.897,283.604 597.625,278.865C597.546,278.701 597.504,278.522 597.504,278.34L597.504,268.95L596.043,270.47L594.723,277.754C594.683,277.975 594.583,278.181 594.433,278.348L591.823,281.265C590.903,296.319 589.43,296.576 588.546,296.73C588.091,296.811 587.239,296.744 586.667,295.406C586.359,294.704 583.349,284.867 582.218,281.162L578.186,278.847L576.938,279.358C576.351,279.598 575.681,279.349 575.394,278.785L572.533,273.158L570.775,273.005C570.523,272.984 570.284,272.883 570.09,272.719C569.215,271.975 567.401,270.843 566.292,270.964C566,270.998 565.797,271.115 565.615,271.357C565.356,271.702 564.94,271.889 564.506,271.835C564.078,271.787 563.708,271.515 563.533,271.121C563.495,271.035 559.687,262.482 557.733,259.93C557.176,259.203 556.726,258.724 556.331,258.301C555.157,257.053 554.512,256.259 553.797,253.208C553.256,250.92 553.596,249.095 553.897,247.485C554.164,246.059 554.394,244.826 553.973,243.464C553.522,242.004 553.124,239.049 552.701,235.921C552.269,232.722 551.622,227.918 551.07,226.979C550.511,226.595 549.743,226.5 548.696,226.371C547.912,226.274 547.023,226.165 546.026,225.9C544.919,225.604 544.709,225.717 542.973,229.585L542.69,230.214C542.585,230.446 542.413,230.638 542.192,230.766L537.714,233.367L535.31,242.161C535.235,242.437 535.065,242.677 534.831,242.839C534.806,242.855 532.275,244.64 531.467,246.781C530.625,249.036 530.247,252.866 531.052,254.753C531.164,255.014 531.18,255.305 531.099,255.578L527.603,267.312L528.211,273.417C528.254,273.849 528.063,274.272 527.709,274.525C527.356,274.778 526.894,274.821 526.5,274.643C525.323,274.107 523.299,273.011 522.971,271.69C522.807,271.024 521.572,267.305 520.781,264.967L519.266,259.326L515.922,259.429C515.341,261.799 513.677,268.147 511.75,271.731C511.595,272.02 511.33,272.233 511.014,272.323C510.697,272.414 510.36,272.373 510.076,272.209C508.323,271.203 503.823,267.619 503.087,264.723C502.453,262.242 501.026,250.818 500.985,248.48C500.97,247.584 500.635,247.349 499.902,246.834C499.412,246.489 498.856,246.098 498.42,245.45C497.898,244.665 497.814,244 497.753,243.514C497.691,243.017 497.667,242.812 497.097,242.331C495.114,240.652 493.211,239.652 492.183,239.724C491.837,239.753 491.501,239.624 491.254,239.385C491.006,239.144 490.873,238.811 490.885,238.466C491.039,234.397 490.189,230.415 488.668,224.912C487.869,222.017 487.901,219.59 487.927,217.641C487.949,215.998 487.965,214.702 487.441,214.001C486.676,212.984 481.155,211.024 476.236,209.701L474.602,211.093L473.231,216.58C473.103,217.092 472.659,217.463 472.132,217.498C470.242,217.623 464.982,218.221 462.976,219.48C462.302,220.719 461.241,227.872 460.625,233.96C460.591,234.292 460.423,234.594 460.16,234.798L456.637,237.53L453.754,263.215C453.693,263.77 453.26,264.21 452.706,264.284C452.157,264.354 451.621,264.043 451.417,263.524C451.331,263.307 449.313,258.158 448.557,254.609C447.937,251.684 445.902,237.246 445.194,232.176L437.802,236.175L436.315,245.619C436.249,246.048 435.956,246.41 435.549,246.564C432.613,247.687 429.785,249.098 429.277,249.69C428.734,251.425 426.678,266.964 425.491,276.49C425.45,276.824 425.271,277.127 424.998,277.324L417.724,282.584L414.17,300.71C414.052,301.319 413.485,301.733 412.877,301.688C412.36,301.645 407.781,301.188 406.137,298.523C405.098,296.848 403.479,296.452 403.276,296.408C402.402,296.367 402.191,295.691 401.785,294.386C400.926,291.627 400.251,289.99 399.779,289.515C398.705,289.786 395.32,291.641 392.44,293.428L389.228,306.779C389.136,307.162 388.864,307.476 388.5,307.623C385.632,308.774 380.817,311.347 380.103,313.351C378.995,316.482 377.162,327.458 377.144,327.569C377.076,327.979 376.804,328.324 376.421,328.487C374.376,329.359 368.667,331.993 366.843,333.693C366.087,334.401 365.195,335.84 364.252,337.365C362.417,340.329 360.338,343.689 357.437,345.007C355.002,346.111 351.485,350.189 349.31,352.99ZM647.368,355.419L346.891,355.419C346.437,355.419 346.021,355.167 345.812,354.764C345.603,354.36 345.636,353.875 345.898,353.504C346.149,353.148 352.108,344.755 356.434,342.794C358.661,341.782 360.534,338.757 362.186,336.086C363.261,334.348 364.191,332.846 365.185,331.917C367.308,329.939 372.969,327.351 374.857,326.518C375.278,324.052 376.785,315.444 377.813,312.538C378.968,309.298 384.987,306.48 387.01,305.611L390.195,292.377C390.268,292.068 390.46,291.8 390.729,291.632C392.388,290.588 397.947,287.173 399.806,287.058C401.815,286.942 402.956,289.973 404.104,293.664C404.157,293.831 404.211,294.008 404.261,294.165C405.318,294.494 407.019,295.335 408.203,297.244C408.84,298.276 410.697,298.848 412.008,299.106L415.431,281.646C415.491,281.344 415.662,281.075 415.912,280.895L423.146,275.665C424.159,267.552 426.422,249.911 427.11,248.575C427.831,247.19 431.5,245.547 434.024,244.55L435.496,235.204C435.554,234.83 435.784,234.505 436.117,234.325L445.578,229.206C445.928,229.016 446.35,229.01 446.705,229.191C447.06,229.371 447.304,229.713 447.359,230.107C447.388,230.314 450.214,250.703 450.934,254.104C451.166,255.194 451.536,256.471 451.929,257.701L454.281,236.749C454.317,236.422 454.484,236.125 454.743,235.924L458.26,233.196C459.764,218.598 461.062,217.807 461.554,217.507C463.838,215.95 468.956,215.338 471.084,215.144L472.339,210.126C472.4,209.88 472.537,209.661 472.73,209.496L475.144,207.439C475.446,207.181 475.855,207.086 476.239,207.188C478.9,207.882 487.713,210.319 489.385,212.543C490.407,213.907 490.384,215.652 490.357,217.673C490.332,219.562 490.303,221.704 491.01,224.264C492.457,229.496 493.32,233.433 493.333,237.413C495.214,237.83 497.206,239.238 498.667,240.476C499.86,241.486 500.056,242.347 500.165,243.212C500.209,243.575 500.238,243.794 500.441,244.099C500.622,244.37 500.936,244.589 501.299,244.845C502.127,245.426 503.378,246.306 503.416,248.438C503.453,250.632 504.849,261.808 505.443,264.123C505.814,265.585 508.242,267.97 510.194,269.385C512.14,265.051 513.755,258.049 513.774,257.972C513.896,257.433 514.367,257.045 514.919,257.029L520.153,256.868C520.708,256.835 521.216,257.222 521.364,257.767L523.104,264.263C523.283,264.781 525.008,269.886 525.311,271.033C525.36,271.099 525.443,271.18 525.555,271.272L525.162,267.314C525.146,267.158 525.161,266.999 525.206,266.847L528.653,255.276C527.77,252.67 528.205,248.571 529.193,245.927C530.062,243.623 532.208,241.789 533.077,241.116L535.501,232.247C535.585,231.939 535.788,231.676 536.063,231.517L540.634,228.861L540.755,228.59C542.408,224.91 543.406,222.689 546.65,223.552C547.486,223.773 548.252,223.868 548.994,223.959C550.3,224.121 551.535,224.272 552.624,225.105C553.661,225.898 554.108,228.176 555.109,235.596C555.5,238.488 555.903,241.48 556.294,242.747C556.892,244.682 556.584,246.334 556.286,247.932C556.005,249.439 555.739,250.861 556.163,252.65C556.763,255.212 557.182,255.659 558.101,256.638C558.516,257.079 559.033,257.628 559.663,258.453C561.303,260.596 563.94,266.165 565.134,268.768C565.415,268.657 565.713,268.584 566.027,268.549C568.153,268.315 570.494,269.945 571.355,270.616L573.416,270.795C573.833,270.831 574.203,271.081 574.393,271.455L577.052,276.686L577.814,276.374C578.163,276.231 578.554,276.257 578.88,276.444L583.845,279.294C584.113,279.448 584.312,279.699 584.403,279.994C585.562,283.798 587.268,289.35 588.218,292.359C588.708,289.591 589.174,284.874 589.423,280.698C589.439,280.424 589.547,280.164 589.73,279.96L592.393,276.983L593.717,269.675C593.76,269.439 593.871,269.222 594.037,269.049L596.532,266.457C596.761,266.219 597.077,266.085 597.408,266.085L598.72,266.085C599.391,266.085 599.935,266.629 599.935,267.3L599.935,278.064C600.904,280.089 605.613,289.979 606.178,292.077C606.709,294.081 606.423,300.207 606.305,302.331C607.744,303.428 611.726,306.534 613.528,308.606C615,310.298 615.916,313.575 616.724,316.467C617.147,317.98 617.584,319.544 617.936,320.146C618.404,320.947 619.472,321.888 620.235,322.525C621.004,323.169 621.915,323.872 622.879,324.618C623.815,325.342 624.817,326.116 625.844,326.953C628.238,328.901 629.942,330.866 631.59,332.767C632.563,333.89 633.483,334.95 634.52,335.985C635.607,337.071 637.017,338.154 638.381,339.202C640.555,340.872 642.803,342.599 644.106,344.577C644.574,345.292 645.048,345.895 645.506,346.478C646.434,347.657 647.31,348.771 647.901,350.477C648.267,351.538 648.49,352.731 648.581,354.126C648.602,354.461 648.484,354.79 648.254,355.035C648.026,355.28 647.705,355.419 647.368,355.419Z" style="fill:rgb(8,36,63);fill-rule:nonzero;"/>
            </g>
        </g>
    </g>
    <defs>
        <linearGradient id="_Linear1" x1="0" y1="0" x2="1" y2="0" gradientUnits="userSpaceOnUse" gradientTransform="matrix(300.478,0,0,145.84,346.891,281.284)"><stop offset="0" style="stop-color:rgb(255,86,119);stop-opacity:1"/><stop offset="1" style="stop-color:black;stop-opacity:1"/></linearGradient>
    </defs>
</svg>
