<?xml version="1.0" encoding="UTF-8" standalone="no"?>
<!DOCTYPE svg PUBLIC "-//W3C//DTD SVG 1.1//EN" "http://www.w3.org/Graphics/SVG/1.1/DTD/svg11.dtd">
<svg width="100%" height="100%" viewBox="0 0 294 154" version="1.1" xmlns="http://www.w3.org/2000/svg" xmlns:xlink="http://www.w3.org/1999/xlink" xml:space="preserve" xmlns:serif="http://www.serif.com/" style="fill-rule:evenodd;clip-rule:evenodd;stroke-linejoin:round;stroke-miterlimit:2;">
    <g transform="matrix(1,0,0,1,-697.941,-0.890398)">
        <g>
            <g>
                <path d="M990.757,152.933L699.034,152.933C699.034,152.933 701.22,148.18 704.83,146.277C708.445,144.381 710.348,139.147 715.291,136.107C717.054,135.021 718.95,133.374 720.772,131.566C720.816,131.515 720.845,131.485 720.845,131.485C724.097,128.227 727.085,124.443 728.602,122.314C730.978,118.99 736.307,110.672 739.588,109.623C742.869,108.58 745.245,106.867 745.245,106.867L745.289,105.205L747.432,103.397C747.432,103.397 750.523,104.724 751.281,105.628C751.733,106.168 752.958,108.216 753.862,109.761C754.474,110.804 754.941,111.62 754.941,111.62C754.941,111.62 756.085,112.196 757.339,113.173C757.71,113.465 758.09,113.785 758.455,114.15C758.469,114.157 758.469,114.165 758.476,114.179C759.001,114.689 759.475,115.272 759.839,115.899C761.312,118.465 764.498,124.888 767.348,125.078C767.348,125.078 769.681,120.368 771.205,118.517C771.518,118.13 772.021,117.423 772.641,116.519C775.017,113.056 779.115,106.765 780.849,105.3C783.037,103.441 793.403,97.456 793.403,97.456C793.403,97.456 795.736,91.653 796.923,89.182C797.849,87.25 802.639,84.014 804.688,82.687C804.709,82.672 804.716,82.672 804.716,82.672L804.716,82.665C805.271,82.308 805.621,82.096 805.621,82.096C805.621,82.096 810.279,71.825 811.897,63.558C813.516,55.284 813.232,53.381 814.748,51.573C816.271,49.765 819.792,47.768 819.792,47.768C819.792,47.768 820.507,45.522 821.455,43.343C821.958,42.184 822.519,41.054 823.073,40.273C824.677,38.021 824.173,35.032 828.49,33.246C828.599,32.721 828.723,32.204 828.854,31.693C829.664,28.427 830.779,25.591 831.697,24.972C832.769,24.257 835.656,20.59 835.728,18.484C835.801,16.377 838.331,15.094 838.549,12.812C838.71,11.099 838.827,10.268 839.46,9.466L839.483,9.444C839.687,9.189 839.95,8.927 840.292,8.642C841.086,7.979 841.473,7.687 841.961,7.439C841.961,7.439 841.976,7.432 841.998,7.425C842.253,7.293 842.538,7.177 842.923,7.017C843.113,6.944 843.303,6.856 843.47,6.791C844.177,6.492 844.841,5.69 845.41,4.83C845.417,4.815 845.424,4.808 845.424,4.808C845.424,4.808 845.475,4.72 845.578,4.582C846.241,3.532 846.78,2.468 847.137,2.19C847.458,1.936 847.917,1.877 848.588,2.249C849.026,2.497 849.557,2.912 850.199,3.576C850.651,4.042 851.162,4.633 851.737,5.362C854.376,8.715 856.089,10.107 856.447,12.134C856.804,14.168 858.619,12.958 859.873,14.379C861.12,15.808 862.082,19.913 865.144,21.939C868.212,23.973 869.102,24.513 869.999,25.971C870.888,27.436 874.417,32.889 874.846,38.881C875.277,44.874 876.983,47.651 878.412,49.576C879.125,50.538 879.716,51.646 880.314,53.184L880.314,53.191C880.35,53.271 880.387,53.366 880.423,53.476C880.985,54.978 881.553,56.873 882.26,59.417C883.624,64.331 884.273,68.887 888.107,71.934C888.115,71.941 888.122,71.949 888.129,71.949C888.515,72.255 888.938,72.546 889.397,72.823C890.899,73.728 892.386,74.471 893.743,75.12C894.763,75.615 895.704,76.045 896.535,76.454C896.549,76.454 896.556,76.461 896.564,76.461C896.95,76.658 897.314,76.833 897.642,77.008C898.794,77.635 899.596,78.21 899.844,78.852C899.939,79.093 899.968,79.304 899.946,79.508C899.844,80.784 897.846,81.484 897.627,83.736C897.402,86.084 897.73,89.999 898.955,91.945C899.079,92.156 899.224,92.346 899.377,92.506C900.011,93.177 902.643,95.845 905.676,98.805L905.778,98.907C910.196,103.215 915.445,108.114 916.706,108.413C918.849,108.908 926.161,100.671 927.619,98.747C928.99,96.946 931.227,96.057 933.465,96.239C933.619,96.246 933.772,96.268 933.932,96.29C936.323,96.647 937.387,98.856 938.175,101.815C938.634,103.565 939.487,104.812 940.362,105.825L940.369,105.825C940.982,106.532 941.609,107.129 942.133,107.698C943.417,109.091 943.453,113.151 946.339,115.579C947.273,116.359 948.323,117.248 949.417,118.108C951.552,119.8 953.863,121.381 955.765,121.841L955.773,121.841C955.912,121.877 956.05,121.906 956.181,121.928C957.625,122.147 958.784,122.789 959.877,123.707L959.884,123.707L959.892,123.714C961.014,124.669 962.049,125.923 963.208,127.345C963.522,127.738 963.85,128.198 964.178,128.701C966.234,131.843 968.552,136.764 971.016,137.901C971.614,138.178 972.125,138.549 972.606,139.001C972.62,139.016 972.634,139.031 972.649,139.038C972.664,139.053 972.686,139.074 972.708,139.096C974.464,140.758 975.849,143.332 979.611,145.351C984.459,147.954 989.817,151.46 990.757,152.933Z" style="fill:url(#_Linear1);fill-rule:nonzero;"/>
                <path d="M941.63,117.044C944.306,119.005 947.659,123.605 947.659,123.605C947.659,123.605 943.03,121.659 941.63,117.044ZM938.35,115.433C939.99,116.578 944.13,123.423 944.13,123.423C944.13,123.423 939.458,120.106 938.35,115.433ZM985.531,150.272C982.629,149.798 980.675,147.852 978.11,147.801C975.543,147.757 972.306,146.372 972.306,146.372C972.306,146.372 978.255,146.663 977.971,146.328C977.679,145.993 975.113,142.522 975.113,142.522C975.113,142.522 973.21,139.636 972.708,139.096C972.686,139.074 972.664,139.053 972.649,139.038C972.634,139.031 972.62,139.016 972.606,139.001C972.044,138.593 968.727,137.033 966.745,136.297C964.704,135.531 956.859,129.168 956.859,129.168L963.326,132.353L954.336,124.312L964.178,128.701L959.892,123.714L959.884,123.707L959.877,123.707L955.773,121.841L955.765,121.841C955.765,121.841 950.509,121.994 945.056,118.363L949.417,118.108C948.323,117.248 947.273,116.359 946.339,115.579C943.453,113.151 943.417,109.091 942.133,107.698C941.609,107.129 940.982,106.532 940.369,105.825L940.362,105.825C940.362,105.825 939.742,108.77 941.645,112.24C939.421,110.942 938.262,106.24 937.781,102.741C937.3,99.242 936.316,96.72 933.465,96.239L935.39,99.177C935.39,99.177 932.788,96.392 929.434,97.93C926.088,99.461 923.011,106.175 920.715,107.297C924.812,105.489 928.187,101.968 929.617,100.642C931.045,99.308 931.424,99.162 932.941,99.738C934.464,100.307 935.23,100.496 935.23,100.496L937.46,108.056L932.999,103.747C933.093,103.966 934.698,107.48 935.988,108.814C937.315,110.191 936.935,113.523 936.935,113.523C936.935,113.523 935.748,110.147 934.705,110.527C933.655,110.906 931.898,117.139 931.898,117.139L924.528,123.54C924.528,123.54 933.181,120.084 934.464,120.033C935.748,119.989 940.93,123.984 940.93,123.984C940.93,123.984 936.323,122.555 934.938,123.175C933.56,123.794 923.77,128.023 922.487,128.591C921.24,129.153 916.057,137.631 915.75,138.126C916.086,137.74 921.473,131.544 924.054,130.21C926.715,128.832 936.746,126.076 938.7,126.076C940.574,126.076 946.842,129.415 947.324,129.67C946.879,129.51 940.835,127.33 938.365,127.877C935.798,128.453 932.234,131.114 932.234,131.114C932.234,131.114 939.501,130.166 940.835,130.261C942.169,130.355 948.826,132.302 952.485,134.73C948.206,133.731 943.168,133.344 943.168,133.344C943.168,133.344 945.399,134.394 946.682,135.204C947.965,136.013 951.056,135.488 953.958,136.96C956.859,138.433 959.425,140.051 959.425,140.051C959.425,140.051 950.393,136.822 943.212,137.106C936.287,137.383 930.381,140.357 929.973,140.569C930.396,140.401 937.249,137.792 942.308,139.957C947.542,142.194 960.044,143.383 962.99,144.476C965.943,145.57 974.88,148.894 974.88,148.894L964.418,148.42C964.418,148.42 967.7,149.849 970.791,150.133C973.881,150.418 983.628,152.933 983.628,152.933L989.708,152.933C989.708,152.933 988.424,150.746 985.531,150.272Z" style="fill:rgb(8,36,63);fill-rule:nonzero;"/>
                <path d="M893.483,111.478C893.483,111.478 896.906,115.187 899.378,118.324C901.851,121.462 905.274,122.746 905.274,122.746C905.274,122.746 903.895,123.839 901.851,123.459C899.806,123.079 896.383,117.944 893.483,111.478ZM877.948,104.632C887.493,107.294 892.057,117.088 892.722,121.367C887.968,114.426 877.948,104.632 877.948,104.632ZM875.773,67.049C881.407,75.036 883.832,85.448 883.832,85.448C883.832,85.448 876.129,74.466 875.773,67.049ZM881.977,73.467C881.977,73.467 877.057,66.051 873.918,59.917C881.621,64.981 881.977,73.467 881.977,73.467ZM920.715,112.007C920.402,112.254 910.21,120.128 903.657,120.128L907.462,118.561C907.462,118.561 899.567,113.472 896.337,108.15C902.519,113.282 908.504,114.952 912.121,114.996C906.179,112.787 903.81,110.891 903.664,110.774C904,110.855 912.937,113.085 913.309,112.765C913.688,112.43 915.255,111.147 915.255,111.147L905.778,98.907L905.676,98.805L898.955,91.945L898.335,91.318C898.335,91.318 897.431,91.748 898.094,95.838C898.729,99.767 900.821,103.076 900.981,103.332C900.705,103.055 896.25,98.521 895.193,91.748L892.342,97.311C892.342,97.311 893.057,87.039 897.81,82.147L899.946,79.508C899.946,79.508 898.991,77.941 897.642,77.008C897.307,76.774 896.943,76.578 896.564,76.461C896.556,76.461 896.549,76.454 896.535,76.454C895.988,76.279 894.945,75.761 893.743,75.12C891.869,74.121 889.594,72.809 888.129,71.949C888.122,71.949 888.115,71.941 888.107,71.934C887.217,71.416 886.634,71.066 886.634,71.066L888.443,78.386C888.443,78.386 884.542,70.403 883.5,67.217C882.501,64.177 881.218,55.772 880.423,53.476C880.387,53.366 880.35,53.271 880.314,53.191L880.314,53.184C879.527,51.42 877.792,50.341 877.792,50.341C877.792,50.341 877.172,55.852 878.601,59.228C874.562,54 873.039,46.2 873.279,41.258C873.512,36.315 870.283,28.661 869.233,27.756C868.191,26.853 866.193,24.33 864.006,23.667C861.82,23.003 858.204,15.108 858.204,15.108C858.204,15.108 859.873,25.897 861.105,29.04C857.591,24.235 854.019,12.112 853.786,10.684C853.545,9.262 851.833,7.024 851.453,6.528C851.227,6.229 850.826,4.72 850.199,3.576C849.769,2.803 849.244,2.198 848.588,2.249L848.574,2.249C847.254,2.366 846,3.984 845.578,4.582C845.475,4.72 845.424,4.808 845.424,4.808C845.424,4.808 845.417,4.815 845.41,4.83C845.256,5.019 844.032,6.557 843.47,6.791C843.303,6.856 843.113,6.944 842.923,7.017C842.523,7.191 842.129,7.367 841.998,7.425C841.976,7.432 841.961,7.439 841.961,7.439C841.961,7.439 841.983,13.446 840.853,16.056C840.853,13.446 839.483,9.444 839.483,9.444L839.46,9.466C838.827,10.268 838.71,11.099 838.549,12.812C838.331,15.094 835.801,16.377 835.728,18.484C835.656,20.59 832.769,24.257 831.697,24.972C830.779,25.591 829.664,28.427 828.854,31.693C829.043,31.635 831.741,30.84 833.804,29.462C832.696,31.321 831.055,33.282 828.278,34.529C825.494,35.775 821.455,43.343 821.455,43.343L820.718,46.368L825.391,45.194C825.391,45.194 824.924,46.404 822.498,48.044C820.077,49.685 816.584,51.464 815.907,52.717C815.229,53.964 814.69,56.603 814.084,60.416C813.479,64.229 810.767,77 808.383,81.601C805.993,86.201 802.785,89.189 802.785,89.189L804.716,82.672C804.716,82.672 804.709,82.672 804.688,82.687C804.301,83.051 799.599,87.535 799.417,92.915L802.128,92.149C802.128,92.149 799.359,96.392 794.329,99.104C789.306,101.815 784.421,104.381 781.746,107.268C779.581,109.601 775.177,113.465 772.641,116.519C772.036,117.241 771.54,117.919 771.205,118.517C769.441,121.651 767.129,128.314 767.129,128.314L758.695,140.197L752.907,147.487C753.227,147.341 763.572,142.413 769.208,136.727C774.842,131.034 790.618,117.059 791.106,116.621C790.618,116.949 774.835,127.403 773.079,128.876C772.509,124.247 772.437,124.742 775.076,119.895C777.714,115.046 781.352,110.337 784.487,107.844C787.629,105.344 794.547,101.633 796.253,100.854C797.966,100.066 806.955,95.43 810.52,91.938L804.17,94.22C804.17,94.22 804.455,90.866 806.167,88.803C807.88,86.733 811.591,82.169 814.799,68.901C818.006,55.641 817.511,55.065 818.225,54.212C818.932,53.359 828.067,48.795 831.916,41.375C829.058,44.086 826.922,44.976 826.922,44.976C826.922,44.976 826.281,40.769 826.922,39.166C827.564,37.562 827.455,36.957 828.993,35.921C830.523,34.886 833.272,33.282 834.591,31.321C835.867,29.419 838.149,25.985 838.288,25.767L834.665,28.172C834.737,27.997 836.013,25.227 837.084,23.259C838.193,21.232 838.477,18.731 839.512,18.695C840.54,18.659 841.721,17.412 842.719,15.415C843.718,13.417 842.931,11.675 844.112,9.962C845.286,8.249 847.91,8.117 848.741,6.528C849.718,8.642 849.39,9.685 848.457,10.64C847.531,11.587 847.173,14.824 848.056,16.085C848.938,17.339 847.415,19.074 848.246,20.291C846.817,20.197 843.725,22.07 843.725,22.07C843.725,22.07 847.509,20.933 850.695,21.691C853.88,22.457 855.784,26.59 855.784,26.59C855.784,26.59 850.243,21.837 846.11,26.831C848.457,25.569 851.125,25.38 854.5,28.369C857.875,31.365 862.957,35.695 866.383,43.299C860.77,36.789 853.691,33.698 850.695,34.551C847.793,35.382 843.864,38.174 843.624,38.349C843.886,38.218 848.34,35.987 852.022,36.169C855.827,36.359 858.065,40.208 858.065,40.208C858.065,40.208 854.07,39.02 851.883,39.406C857.541,41.258 862.344,50.531 862.344,50.531C862.344,50.531 855.784,45.581 853.545,44.327C851.315,43.065 848.741,42.876 846.75,44.611C844.753,46.346 842.894,48.671 842.894,48.671C842.894,48.671 847.152,45.224 849.696,45.085C852.241,44.939 857.97,51.172 857.97,51.172L851.504,48.839C851.504,48.839 855.499,54.423 857.541,56.61C859.582,58.797 859.778,60.416 860.872,61.509C861.929,62.566 866.463,72.24 866.748,72.845C866.332,72.357 861.025,65.956 858.917,64.126C856.731,62.224 853.02,60.562 851.599,61.13C850.243,61.669 848.507,64.09 848.34,64.338C848.603,64.141 850.884,62.428 851.694,62.698C852.546,62.982 854.5,65.789 854.5,65.789C854.5,65.789 853.501,66.882 853.786,67.976C854.07,69.069 854.558,71.504 853.312,73.399C852.058,75.288 848.457,81.455 848.457,81.455C848.457,81.455 850.848,79.64 855.302,79.887C859.763,80.135 867.105,80.529 867.105,80.529C867.105,80.529 859.8,81.601 854.916,83.379C850.032,85.166 841.859,91.865 837.551,93.009C833.396,94.103 828.803,98.98 828.475,99.337C828.883,99.104 835.532,95.248 841.684,93.972C848.034,92.652 851.38,88.511 856.272,87.804C861.156,87.09 863.365,86.266 864.793,86.696C866.179,87.112 881.699,99.097 882.544,99.76C881.736,99.279 868.789,91.566 866.645,91.121C864.436,90.655 860.333,90.902 854.843,92.543C861.477,91.829 865.894,92.12 867.25,92.827C868.555,93.52 873.972,97.952 874.358,98.273C873.92,98.032 866.412,93.877 863.577,94.365C860.653,94.861 849.39,100.139 845.643,104.272C852.022,101.349 859.407,100.89 859.407,100.89C859.407,100.89 852.204,102.923 849.134,105.242C846.073,107.552 839.366,110.622 834.555,112.473C829.736,114.332 825.603,117.394 823.248,119.326C820.893,121.251 819.472,121.71 815.404,123.78C811.46,125.785 807.392,130.501 807.144,130.8C807.421,130.574 811.949,127.009 815.265,125.347C818.684,123.634 826.529,121.535 832.054,118.611C837.587,115.688 841.612,114.011 848.42,111.125C855.237,108.23 856.483,105.096 860.653,105.096C864.823,105.096 864.932,107.873 869.78,109.623C874.635,111.373 883.121,118.181 883.121,118.181C883.121,118.181 875.378,115.754 872.062,113.793C868.752,111.832 866.179,111.154 861.404,114.223C856.622,117.292 845.854,126.951 844.112,127.556C842.363,128.168 839.774,127.972 837.602,129.27C835.539,130.509 833.388,132.528 833.177,132.739C833.491,132.579 838.469,130.049 840.059,129.809C841.699,129.554 845.41,128.971 848.442,126.973C851.475,124.976 856.914,125.814 861.616,123.139C866.325,120.463 868.497,120.325 872.674,121.316C876.844,122.314 876.129,124.531 880.73,125.063C885.33,125.595 891.963,128.912 891.963,128.912C891.963,128.912 882.727,129.554 878.557,128.949C874.38,128.344 867.892,129.947 867.892,129.947C867.892,129.947 872.922,130.305 876.057,130.735C879.199,131.157 881.837,131.34 881.837,131.34L869.175,134.052L870.173,140.576C870.173,140.576 877.697,137.113 881.765,137.543C874.81,140.751 874.562,142.858 872.134,144.251C869.714,145.635 865.858,148.559 865.858,148.559C865.858,148.559 869.926,149.528 873.345,148.559C876.771,147.596 882.012,143.39 885.22,142.355C888.428,141.327 900.587,134.475 900.587,134.475C900.587,134.475 889.82,138.003 889.82,138.01C889.966,137.974 896.564,131.945 900.267,129.626C903.977,127.308 915.153,117.81 920.715,112.007Z" style="fill:rgb(8,36,63);fill-rule:nonzero;"/>
                <path d="M759.14,121.593C759.176,124.786 762.457,130.735 762.457,131.019C762.457,131.303 762.238,131.697 760.744,133.374C759.242,135.05 758.141,135.408 757.07,135.794C755.998,136.188 755.036,138.688 754,138.688C752.965,138.688 750.363,140.613 747.585,140.86C751.077,138.615 754.285,133.446 754.285,133.446L747.548,138.433C747.548,138.433 745.909,137.755 744.057,136.756C742.307,135.816 738.88,137.252 738.495,137.412C738.961,137.165 744.232,134.307 745.835,133.622C747.512,132.907 750.224,129.488 751.507,128.234C752.791,126.988 753.22,127.345 755.32,128.212C755.32,128.212 753.468,126.12 752.848,126.025C752.229,125.931 750.042,127.024 746.717,129.78C746.572,126.689 748.664,122.366 748.664,122.366C748.664,122.366 746.623,122.176 743.248,124.079C744.764,121.936 747.855,119.989 748.758,119.37C749.663,118.75 749.998,115.09 749.998,115.09L752.659,118.276L749.094,108.485C749.094,108.485 743.007,112.954 741.724,113.902C740.441,114.857 737.496,122.41 737.496,122.41C737.496,122.41 738.4,116.803 738.4,116.658C738.305,116.658 732.684,124.932 731.933,125.311C731.168,125.69 728.653,130.83 725.081,132.871C721.516,134.919 717.31,137.295 713.534,140.86C714.197,138.987 720.043,132.39 720.772,131.566C720.816,131.515 720.845,131.485 720.845,131.485C724.097,128.227 727.085,124.443 728.602,122.314C730.978,118.99 736.307,110.672 739.588,109.623C742.869,108.58 745.245,106.867 745.245,106.867L745.289,105.205L747.432,103.397C747.432,103.397 750.523,104.724 751.281,105.628C751.733,106.168 752.958,108.216 753.862,109.761C753.694,110.753 753.658,111.555 753.869,111.926C754.7,113.428 756.34,116.497 756.34,116.497L756.37,113.312C756.37,113.312 755.844,112.976 757.339,113.173C757.754,113.231 758.119,113.596 758.455,114.15C758.469,114.157 758.469,114.165 758.476,114.179C759.359,115.623 760.043,118.276 760.86,119.873C762.004,122.082 764.986,127.133 764.986,127.133C764.986,127.133 761.028,125.274 759.14,121.593Z" style="fill:rgb(8,36,63);fill-rule:nonzero;"/>
                <path d="M700.885,151.839L987.967,151.839C986.006,150.361 982.756,148.28 979.094,146.314C976.236,144.78 974.645,142.925 973.368,141.435C972.881,140.866 972.42,140.331 971.957,139.891L971.912,139.847C971.882,139.822 971.855,139.797 971.833,139.774C971.42,139.389 971.008,139.102 970.557,138.893C968.397,137.897 966.578,134.82 964.817,131.845C964.274,130.927 963.76,130.06 963.263,129.299C962.951,128.821 962.645,128.392 962.353,128.025C961.162,126.564 960.231,125.451 959.241,124.596C959.218,124.58 959.196,124.563 959.173,124.544C958.112,123.653 957.139,123.18 956.016,123.009C955.86,122.984 955.705,122.952 955.549,122.913C955.536,122.91 955.522,122.907 955.509,122.903C953.745,122.478 951.592,121.227 948.738,118.966C947.793,118.223 946.869,117.449 946.054,116.766L945.638,116.417C943.625,114.725 942.868,112.437 942.258,110.598C941.954,109.675 941.665,108.803 941.329,108.439C941.136,108.23 940.928,108.017 940.712,107.794C940.373,107.444 939.99,107.05 939.612,106.62C939.584,106.594 939.559,106.568 939.535,106.54C938.764,105.647 937.674,104.214 937.117,102.093C936.276,98.93 935.337,97.605 933.77,97.371C933.628,97.352 933.521,97.336 933.416,97.331C931.429,97.178 929.601,97.948 928.489,99.409C928.408,99.516 919.809,110.262 916.458,109.478C915.9,109.346 914.602,109.039 905.015,99.69L904.903,99.578C901.948,96.694 899.256,93.97 898.583,93.258C898.368,93.032 898.174,92.776 898.012,92.5C896.545,90.171 896.329,85.82 896.54,83.632C896.699,81.995 897.586,81.004 898.235,80.281C898.519,79.964 898.841,79.604 898.856,79.421C898.862,79.362 898.851,79.315 898.827,79.252C898.76,79.081 898.454,78.695 897.119,77.968C896.938,77.872 896.735,77.771 896.522,77.664L896.155,77.479C896.121,77.466 896.086,77.452 896.052,77.436C895.635,77.23 895.19,77.021 894.72,76.798C894.257,76.579 893.77,76.349 893.264,76.103C891.972,75.485 890.43,74.721 888.833,73.76C888.35,73.469 887.895,73.156 887.481,72.831C887.462,72.817 887.444,72.804 887.427,72.79L887.426,72.79C883.874,69.967 882.854,66.023 881.774,61.848C881.592,61.146 881.407,60.431 881.207,59.709C880.426,56.899 879.902,55.204 879.399,53.859C879.363,53.75 879.34,53.691 879.318,53.641C879.299,53.601 879.284,53.56 879.271,53.518C878.725,52.126 878.189,51.109 877.534,50.228C875.827,47.929 874.188,44.972 873.756,38.959C873.368,33.551 870.252,28.476 869.229,26.808L869.064,26.538C868.345,25.37 867.64,24.902 865.016,23.167L864.54,22.851C862.27,21.349 861.047,18.866 860.155,17.054C859.755,16.242 859.377,15.475 859.049,15.099C858.77,14.782 858.439,14.709 857.879,14.609C857.065,14.463 855.703,14.219 855.37,12.324C855.164,11.158 854.31,10.152 852.896,8.484C852.302,7.786 851.63,6.994 850.878,6.038C850.337,5.354 849.844,4.781 849.414,4.337C848.898,3.803 848.439,3.42 848.049,3.201C847.92,3.128 847.833,3.1 847.783,3.086C847.642,3.264 847.339,3.773 847.114,4.155C846.924,4.476 846.719,4.822 846.501,5.166C846.488,5.188 846.474,5.208 846.459,5.228C846.405,5.301 846.373,5.352 846.364,5.368C846.355,5.382 846.345,5.397 846.335,5.412C846.331,5.419 846.327,5.425 846.322,5.432C845.484,6.701 844.712,7.453 843.896,7.798L843.653,7.898C843.543,7.945 843.429,7.994 843.315,8.037L843.258,8.062C842.948,8.19 842.711,8.287 842.499,8.397C842.469,8.413 842.438,8.426 842.408,8.439C842.071,8.613 841.753,8.847 840.993,9.482C840.711,9.714 840.5,9.924 840.337,10.127C840.322,10.146 840.304,10.166 840.287,10.185C839.895,10.701 839.794,11.253 839.638,12.914C839.5,14.368 838.678,15.435 837.955,16.375C837.36,17.149 836.845,17.817 836.822,18.521C836.733,21.093 833.605,25.014 832.303,25.881C831.959,26.119 830.916,27.92 829.916,31.956C829.786,32.459 829.666,32.96 829.56,33.468C829.487,33.823 829.243,34.118 828.908,34.256C826.372,35.307 825.824,36.741 825.189,38.403C824.872,39.233 824.544,40.093 823.963,40.908C823.521,41.532 823.014,42.498 822.458,43.778C821.544,45.878 820.841,48.078 820.834,48.1C820.75,48.361 820.571,48.583 820.332,48.719C820.298,48.738 816.961,50.643 815.583,52.278C814.792,53.222 814.605,54.203 814.081,57.46C813.822,59.062 813.501,61.056 812.97,63.768C811.346,72.064 806.809,82.124 806.617,82.548C806.526,82.749 806.375,82.918 806.186,83.032C806.179,83.037 805.873,83.223 805.383,83.537C805.339,83.571 805.293,83.601 805.245,83.628C801.265,86.209 798.455,88.519 797.91,89.655C796.75,92.067 794.44,97.807 794.417,97.864C794.326,98.091 794.162,98.281 793.949,98.403C790.393,100.457 783.227,104.714 781.557,106.133C780.241,107.245 777.175,111.775 774.938,115.083C774.434,115.828 773.961,116.527 773.542,117.138C772.854,118.143 772.367,118.82 772.054,119.205C770.624,120.944 768.351,125.517 768.328,125.563C768.132,125.958 767.723,126.195 767.276,126.169C764.411,125.978 761.855,121.781 759.482,117.498C759.263,117.104 759.065,116.747 758.892,116.443C758.599,115.94 758.19,115.426 757.714,114.963C757.686,114.936 757.66,114.906 757.634,114.876C757.358,114.605 757.047,114.335 756.664,114.033C755.521,113.143 754.458,112.602 754.448,112.596C754.257,112.5 754.097,112.349 753.991,112.163C753.99,112.16 753.527,111.35 752.919,110.315C751.116,107.233 750.587,106.502 750.443,106.331C750.141,105.97 748.843,105.247 747.612,104.676L746.369,105.724L746.337,106.896C746.33,107.238 746.162,107.555 745.884,107.754C745.782,107.829 743.327,109.582 739.919,110.665C737.471,111.449 733.071,117.8 730.707,121.212C730.25,121.873 729.839,122.465 729.492,122.95C727.863,125.237 724.823,129.047 721.62,132.258C721.601,132.279 721.562,132.322 721.542,132.343C719.426,134.441 717.515,136.021 715.864,137.039C713.444,138.527 711.8,140.578 710.21,142.562C708.697,144.45 707.267,146.234 705.336,147.246C703.329,148.305 701.779,150.393 700.885,151.839ZM990.757,154.026L699.034,154.026C698.661,154.026 698.314,153.836 698.114,153.523C697.912,153.209 697.885,152.814 698.041,152.476C698.136,152.268 700.427,147.362 704.319,145.31C705.846,144.509 707.078,142.973 708.503,141.194C710.13,139.164 711.974,136.863 714.717,135.176C716.219,134.251 717.989,132.784 719.975,130.816C720.035,130.75 720.073,130.712 720.073,130.712C723.18,127.598 726.13,123.9 727.711,121.68C728.054,121.2 728.458,120.618 728.909,119.967C732.697,114.5 736.338,109.515 739.255,108.581C741.528,107.859 743.363,106.784 744.167,106.272L744.196,105.177C744.204,104.864 744.344,104.571 744.583,104.37L746.727,102.561C747.043,102.295 747.484,102.23 747.864,102.393C748.644,102.728 751.26,103.902 752.12,104.925C752.266,105.101 752.716,105.637 754.806,109.209C755.207,109.892 755.545,110.479 755.733,110.804C756.18,111.051 757.066,111.573 758.011,112.31C758.491,112.688 758.876,113.025 759.228,113.376L759.227,113.377C759.251,113.401 759.274,113.425 759.296,113.451C759.897,114.044 760.397,114.683 760.786,115.35C760.967,115.666 761.169,116.033 761.395,116.439C762.494,118.422 764.911,122.785 766.779,123.783C767.532,122.325 769.156,119.287 770.361,117.822C770.626,117.494 771.091,116.845 771.739,115.901C772.156,115.293 772.625,114.598 773.127,113.858C776.227,109.275 778.712,105.673 780.144,104.464C782.18,102.733 790.713,97.752 792.529,96.698C793.056,95.395 794.903,90.861 795.938,88.708C796.887,86.728 800.877,83.854 804.068,81.785C804.086,81.771 804.105,81.759 804.124,81.746C804.384,81.579 804.601,81.442 804.759,81.343C805.531,79.595 809.403,70.611 810.825,63.348C811.347,60.672 811.666,58.698 811.921,57.112C812.467,53.724 812.693,52.321 813.91,50.87C815.253,49.275 817.904,47.618 818.882,47.033C819.134,46.279 819.722,44.585 820.452,42.907C821.068,41.488 821.65,40.39 822.181,39.641C822.601,39.051 822.866,38.358 823.146,37.623C823.787,35.947 824.574,33.884 827.54,32.472C827.62,32.118 827.706,31.768 827.795,31.42C828.364,29.125 829.55,25.101 831.084,24.065C831.974,23.473 834.58,20.083 834.635,18.446C834.684,17.04 835.5,15.978 836.222,15.042C836.819,14.266 837.382,13.533 837.461,12.708C837.628,10.915 837.764,9.848 838.603,8.788C838.624,8.762 838.644,8.738 838.667,8.714C838.915,8.411 839.219,8.111 839.593,7.801C840.409,7.12 840.873,6.765 841.466,6.464C841.487,6.453 841.515,6.441 841.544,6.429C841.792,6.305 842.065,6.189 842.419,6.042L842.503,6.007C842.622,5.961 842.71,5.923 842.796,5.887C842.892,5.845 842.986,5.806 843.074,5.772C843.264,5.691 843.746,5.365 844.498,4.227C844.499,4.226 844.5,4.224 844.5,4.224C844.527,4.178 844.584,4.088 844.671,3.967C844.871,3.652 845.057,3.336 845.231,3.042C845.776,2.122 846.078,1.628 846.467,1.326C846.877,1 847.781,0.552 849.118,1.292C849.707,1.625 850.314,2.122 850.985,2.815C851.466,3.312 852.008,3.941 852.595,4.684C853.324,5.61 853.982,6.386 854.563,7.07C856.16,8.951 857.214,10.194 857.524,11.944C857.592,12.336 857.592,12.336 858.265,12.456C858.913,12.572 859.892,12.748 860.693,13.656C861.213,14.253 861.632,15.103 862.117,16.087C862.943,17.764 863.97,19.852 865.748,21.027L866.222,21.343C868.939,23.14 869.956,23.812 870.93,25.398L871.093,25.664C872.186,27.444 875.511,32.862 875.937,38.803C876.329,44.257 877.78,46.891 879.29,48.923C880.075,49.982 880.706,51.173 881.333,52.788C881.338,52.8 881.342,52.811 881.346,52.823C881.385,52.914 881.423,53.018 881.461,53.132C881.974,54.5 882.515,56.248 883.314,59.124C883.518,59.859 883.706,60.586 883.891,61.3C884.917,65.263 885.801,68.687 888.757,71.054C888.775,71.066 888.792,71.078 888.808,71.091C889.158,71.369 889.546,71.636 889.962,71.887C891.478,72.799 892.962,73.535 894.214,74.133C894.719,74.378 895.199,74.605 895.656,74.821C896.105,75.033 896.532,75.235 896.935,75.432C896.978,75.448 897.02,75.466 897.061,75.487L897.5,75.708C897.73,75.822 897.949,75.933 898.156,76.042C899.328,76.68 900.459,77.411 900.865,78.458C901.02,78.852 901.075,79.236 901.033,79.626C900.962,80.514 900.378,81.166 899.863,81.741C899.32,82.348 898.806,82.92 898.716,83.842C898.488,86.207 898.868,89.754 899.879,91.362C899.974,91.521 900.068,91.646 900.169,91.752C900.834,92.456 903.496,95.149 906.44,98.022L906.551,98.133C915.069,106.439 916.73,107.271 916.976,107.353C918.409,107.326 924.505,101.045 926.748,98.086C928.315,96.026 930.857,94.93 933.555,95.149C933.686,95.155 933.854,95.176 934.03,95.2C937.264,95.682 938.47,98.672 939.232,101.534C939.656,103.148 940.456,104.25 941.125,105.034C941.15,105.058 941.173,105.083 941.196,105.108C941.561,105.53 941.932,105.911 942.281,106.27C942.51,106.506 942.731,106.734 942.937,106.957C943.592,107.668 943.937,108.707 944.334,109.91C944.884,111.57 945.507,113.45 947.043,114.741L947.458,115.089C948.261,115.762 949.172,116.524 950.092,117.25C952.631,119.259 954.557,120.41 955.979,120.767C956.004,120.772 956.03,120.778 956.055,120.784C956.158,120.811 956.26,120.833 956.357,120.849C957.839,121.074 959.165,121.698 960.508,122.81C960.547,122.836 960.584,122.866 960.62,122.897C961.753,123.862 962.759,125.064 964.057,126.654C964.398,127.084 964.746,127.568 965.094,128.103C965.618,128.903 966.143,129.792 966.7,130.731C968.215,133.293 969.933,136.196 971.475,136.907C972.128,137.211 972.737,137.628 973.333,138.186C973.365,138.21 973.395,138.237 973.422,138.265L973.481,138.323C974.006,138.82 974.502,139.398 975.028,140.011C976.248,141.434 977.629,143.046 980.128,144.388C984.085,146.512 990.427,150.385 991.679,152.344C991.895,152.681 991.909,153.108 991.716,153.458C991.525,153.808 991.157,154.026 990.757,154.026Z" style="fill:rgb(8,36,63);fill-rule:nonzero;"/>
                <path d="M748.601,153.638L746.923,152.234C747.088,152.037 763.445,132.476 765.381,129.432C766.153,128.221 766.21,127.627 766.299,126.728C766.417,125.537 766.563,124.054 768.254,121.055L770.16,122.129C768.695,124.728 768.579,125.904 768.476,126.943C768.378,127.932 768.278,128.955 767.227,130.607C765.214,133.769 749.279,152.828 748.601,153.638Z" style="fill:rgb(8,36,63);fill-rule:nonzero;"/>
            </g>
        </g>
    </g>
    <defs>
        <linearGradient id="_Linear1" x1="0" y1="0" x2="1" y2="0" gradientUnits="userSpaceOnUse" gradientTransform="matrix(291.723,0,0,150.948,699.034,77.4589)"><stop offset="0" style="stop-color:rgb(255,86,119);stop-opacity:1"/><stop offset="1" style="stop-color:black;stop-opacity:1"/></linearGradient>
    </defs>
</svg>
