<?xml version="1.0" encoding="UTF-8" standalone="no"?>
<!DOCTYPE svg PUBLIC "-//W3C//DTD SVG 1.1//EN" "http://www.w3.org/Graphics/SVG/1.1/DTD/svg11.dtd">
<svg width="100%" height="100%" viewBox="0 0 276 135" version="1.1" xmlns="http://www.w3.org/2000/svg" xmlns:xlink="http://www.w3.org/1999/xlink" xml:space="preserve" xmlns:serif="http://www.serif.com/" style="fill-rule:evenodd;clip-rule:evenodd;stroke-linejoin:round;stroke-miterlimit:2;">
    <g transform="matrix(1,0,0,1,-359.584,-17.8154)">
        <g>
            <g>
                <path d="M633.174,150.424L361.084,150.424C361.084,150.424 371.364,138.784 374.884,135.074C375.064,134.884 375.224,134.714 375.364,134.574C378.304,131.574 382.344,121.984 385.024,120.094C387.694,118.204 391.414,118.074 397.084,112.724C402.764,107.374 407.524,105.684 410.974,104.054C413.634,102.804 419.394,95.944 421.934,92.814C422.744,91.814 423.874,91.134 425.144,90.884C426.644,90.584 428.834,90.134 431.064,89.654C434.904,88.814 438.874,87.864 439.674,87.354C439.874,87.225 440.064,87.044 440.254,86.814C441.634,85.145 442.924,81.044 445.214,79.264C447.824,77.244 455.264,75.225 455.524,75.094C455.785,74.964 460.154,69.614 461.654,63.875C460.285,61.334 461.194,56.185 462.434,53.444C467.455,53.764 473.584,49.854 475.934,48.225C478.285,46.594 480.174,42.614 482.844,38.574C485.524,34.534 489.764,31.854 491.654,28.404C493.544,24.944 493.934,25.334 498.955,22.264C503.974,19.205 506.654,18.424 507.955,20.375C509.264,22.334 510.174,29.375 512.064,32.574C513.955,35.764 520.414,38.054 522.044,40.594C523.674,43.134 524.974,50.244 528.894,55.074C534.694,55.924 539.134,58.404 540.894,61.725C542.654,65.054 543.634,69.424 546.174,74.314C548.714,79.205 550.934,77.834 554.974,81.814C556.205,83.024 557.014,84.304 557.614,85.504C558.974,88.254 559.234,90.625 560.915,90.944C563.325,91.404 565.734,96.034 568.084,96.814C569.384,97.244 570.464,97.274 571.415,97.054C574.834,96.274 576.654,92.324 581.134,92.375C588.474,92.475 598.604,112.984 601.084,116.904C603.564,120.814 618.044,127.074 621.694,129.814C623.934,131.494 627.734,138.844 630.344,144.294C630.424,144.464 630.504,144.634 630.584,144.804C630.594,144.814 630.594,144.834 630.604,144.844C632.125,148.024 633.174,150.424 633.174,150.424Z" style="fill:url(#_Linear1);fill-rule:nonzero;"/>
                <path d="M557.814,124.734C556.504,123.584 555.094,122.614 553.584,121.784C552.075,120.964 550.464,120.274 548.804,119.634C547.144,118.984 545.424,118.464 543.694,117.754C545.544,117.644 547.404,117.754 549.234,118.144C551.054,118.524 552.864,119.114 554.544,120.034C556.224,120.944 557.734,122.194 558.944,123.654C560.154,125.124 561.035,126.774 561.694,128.504C560.334,127.224 559.134,125.884 557.814,124.734ZM545.375,97.044C543.694,95.264 542.354,93.334 541.064,91.354C540.825,90.994 540.584,90.625 540.354,90.254C540.334,91.234 540.314,92.205 540.254,93.185L539.944,98.534L537.554,93.794C536.674,92.054 535.844,90.324 534.955,88.634C534.084,86.935 533.184,85.254 532.205,83.614C531.264,81.955 530.214,80.364 529.134,78.784C528.024,77.214 526.864,75.674 525.614,74.185C527.194,75.314 528.684,76.604 530.054,78.014C531.434,79.415 532.684,80.935 533.884,82.494C535.054,84.074 536.154,85.714 537.174,87.384C537.264,87.524 537.344,87.665 537.424,87.814L537.404,86.764L537.344,84.694L537.125,77.935L540.144,83.924C541.154,85.935 542.294,87.935 543.415,89.915C544.554,91.875 545.754,93.824 547.075,95.574C548.455,97.294 550.054,98.935 551.694,100.544C552.514,101.374 553.354,102.174 554.144,103.044C554.934,103.894 555.714,104.804 556.285,105.824C554.634,104.184 552.665,102.994 550.794,101.604C548.924,100.234 547.044,98.804 545.375,97.044ZM518.174,43.364C517.625,42.504 517.054,41.685 516.375,40.944C515.693,40.205 514.893,39.534 514.054,38.804C515.154,38.964 516.205,39.404 517.143,40.064C518.084,40.725 518.834,41.625 519.434,42.554C520.034,43.484 520.504,44.475 520.883,45.494C521.274,46.514 521.575,47.554 521.745,48.654C520.304,46.964 519.294,45.084 518.174,43.364ZM618.495,139.134C615.564,136.534 609.114,134.834 606.014,130.854C610.334,132.974 612.484,133.664 612.484,133.664C608.974,128.114 597.955,123.354 597.955,123.354C597.955,123.354 604.864,124.004 610.344,127.074C615.814,130.134 620.644,133.254 624.224,139.184C624.024,138.784 620.294,131.464 621.364,130.074C621.364,130.074 627.864,139.264 630.344,144.294C627.734,138.844 623.934,131.494 621.694,129.814C618.044,127.074 603.564,120.814 601.084,116.904C598.604,112.984 588.474,92.475 581.134,92.375C576.654,92.324 574.834,96.274 571.415,97.054L571.344,97.854L572.325,100.464C572.325,100.464 578.134,96.424 581.194,97.205C584.264,97.984 585.044,98.705 585.694,100.205C586.344,101.704 588.634,102.814 588.634,104.184C588.634,105.554 591.234,108.094 591.825,109.984C592.415,111.874 593.785,117.814 593.654,121.534C592.674,117.354 590.844,114.484 590.844,114.484C590.844,114.484 589.995,120.354 590.325,123.034C590.644,125.624 592.724,131.384 592.854,131.744C592.535,131.334 587.214,124.194 587.844,117.354C585.304,121.334 585.234,122.764 585.894,124.464C586.544,126.164 585.894,130.534 586.864,132.554C587.844,134.574 590.064,135.744 591.894,138.224C593.714,140.704 599.785,149.114 599.785,149.114L598.474,149.184C598.474,149.184 594.104,143.574 591.894,142.204C589.674,140.834 587.535,139.974 584.304,136.934C586.804,141.304 590.964,144.954 591.285,145.244C590.974,145.104 585.864,142.764 582.354,138.504C578.734,134.104 576.285,131.854 575.114,128.284C573.944,124.714 572.424,120.354 569.684,115.174C566.944,109.984 562.004,101.084 562.004,101.084C562.004,101.084 568.554,107.594 570.024,110.574C569.834,106.804 569.094,104.554 564.934,100.884C560.785,97.225 561.434,97.074 560.524,96.125C559.684,95.264 556.995,91.614 556.554,91.004C557.125,91.554 560.434,94.734 561.854,95.544C563.325,96.375 565.014,97.904 565.224,98.094C565.024,97.794 562.575,94.214 560.974,93.094C559.314,91.924 558.564,90.094 558.564,90.094L557.614,85.504C557.014,84.304 556.205,83.024 554.974,81.814C550.934,77.834 548.714,79.205 546.174,74.314C543.634,69.424 542.654,65.054 540.894,61.725C539.134,58.404 534.694,55.924 528.894,55.074C524.974,50.244 523.674,43.134 522.044,40.594C520.414,38.054 513.955,35.764 512.064,32.574C510.174,29.375 509.264,22.334 507.955,20.375C506.654,18.424 503.974,19.205 498.955,22.264C493.934,25.334 493.544,24.944 491.654,28.404C489.764,31.854 485.524,34.534 482.844,38.574C480.174,42.614 478.285,46.594 475.934,48.225C473.584,49.854 467.455,53.764 462.434,53.444C461.194,56.185 460.285,61.334 461.654,63.875C460.154,69.614 455.785,74.964 455.524,75.094C455.264,75.225 447.824,77.244 445.214,79.264C442.924,81.044 441.634,85.145 440.254,86.814L440.554,88.464C446.424,83.764 445.734,82.404 449.264,81.424C452.784,80.444 456.844,79.804 458.705,77.364C460.554,74.915 465.564,67.594 465.564,64.205C465.564,60.814 465.955,57.614 466.674,57.294C467.394,56.964 475.084,54.554 477.495,51.484C476.714,55.134 477.495,58.205 477.495,58.205C477.495,58.205 480.464,45.915 487.314,39.654C494.165,33.384 494.125,30.354 497.134,28.794C500.134,27.225 503.554,24.194 503.554,24.194C503.554,24.194 503.264,27.294 502.804,28.264C502.344,29.244 497.785,32.904 498.174,40.794C499.344,37.134 501.364,35.375 501.364,35.375C501.364,35.375 499.415,41.314 500.524,44.504C501.634,47.705 502.604,51.354 502.604,52.134C502.604,52.924 500.394,50.964 497.134,57.094C494.064,62.844 492.674,66.354 492.514,66.774C492.894,66.174 497.614,58.694 499.804,57.944C502.084,57.165 505.934,56.705 510.234,49.665C508.194,56.685 500.644,70.594 500.344,71.165C500.754,70.734 507.334,63.794 510.564,57.225C513.893,50.444 514.995,45.744 514.995,45.744C514.995,45.744 515.393,59.764 505.474,71.904C495.714,83.844 485.075,99.324 484.745,99.804C485.325,99.314 506.224,81.734 512.914,66.944C512.013,77.804 503.875,91.904 503.544,92.484C503.974,92.154 510.915,86.725 513.693,81.294C512.133,88.854 507.174,99.814 507.174,99.814L508.864,102.034L512.513,93.455C512.393,94.104 510.084,105.854 511.604,107.114C513.174,108.424 517.474,110.244 520.864,108.424C524.263,106.594 536.984,109.594 549.334,114.684C534.764,112.134 530.745,110.674 525.764,113.804C520.774,116.934 515.974,119.764 515.974,119.764C515.974,119.764 528.984,116.934 531.044,115.754C523.414,122.414 512.263,125.344 505.904,126.034C499.544,126.714 490.544,130.044 490.544,130.044L500.424,129.554C500.424,129.554 485.165,131.704 477.924,137.764C488.484,133.854 502.774,131.994 507.764,131.804C512.745,131.604 518.914,129.844 521.943,129.844C524.974,129.844 526.245,128.284 528.984,126.324C531.554,124.484 539.714,123.944 540.724,123.884C539.875,124.054 533.864,125.274 531.144,128.184C528.205,131.314 525.075,133.364 521.263,133.364C517.443,133.364 507.854,135.124 503.745,139.924C510.304,138.254 519.013,134.934 531.044,136.494C518.914,138.554 510.304,140.604 502.864,147.164C514.604,142.854 526.054,140.604 532.214,140.994C520.964,144.914 518.524,147.424 519.205,150.424L572.325,150.424C572.325,150.424 567.724,141.584 558.924,138.254C550.394,135.034 544.804,129.244 544.464,128.884C544.964,129.154 553.964,134.284 558.634,135.614C563.424,136.984 567.724,137.844 581.224,150.424C581.224,150.424 573.984,137.574 565.084,134.344C575.264,135.514 588.854,148.894 589.834,150.424L626.524,150.424C626.524,150.424 621.434,141.744 618.495,139.134Z" style="fill:rgb(8,36,63);fill-rule:nonzero;"/>
                <path d="M481.854,103.684C481.564,104.024 477.004,109.624 474.044,112.334C470.974,115.134 468.764,116.904 465.364,117.554C461.974,118.204 459.634,121.724 453.825,124.074C448.024,126.424 443.654,131.904 440.194,135.294C436.734,138.684 432.434,142.594 425.914,144.294C429.764,141.744 441.364,129.944 446.324,122.374C439.024,129.744 429.694,133.854 427.284,135.874C424.864,137.904 421.674,140.634 417.234,141.484C412.804,142.334 402.044,145.854 402.044,145.854C402.044,145.854 412.674,139.984 417.824,137.904C422.974,135.814 425.714,132.294 430.804,128.834C435.734,125.484 438.464,119.084 438.624,118.684C438.314,118.974 433.264,123.804 432.494,123.554C431.714,123.294 428.394,119.504 428.324,118.534C428.264,117.604 431.854,109.704 432.204,108.934C431.914,109.524 429.454,114.314 425.914,116.504C429.074,112.274 433.514,101.434 433.794,100.754C433.674,100.964 432.854,102.484 430.804,104.834C431.064,101.184 429.694,96.614 429.694,96.614L434.524,93.354C434.524,93.354 426.434,94.334 423.824,95.834C421.214,97.334 417.434,105.224 412.024,107.504C406.604,109.794 401.784,112.404 398.324,116.314C394.864,120.224 388.804,122.444 386.714,123.814C384.634,125.184 381.044,134.114 375.044,135.554L374.884,135.074C375.064,134.884 375.224,134.714 375.364,134.574C378.304,131.574 382.344,121.984 385.024,120.094C387.694,118.204 391.414,118.074 397.084,112.724C402.764,107.374 407.524,105.684 410.974,104.054C413.634,102.804 419.394,95.944 421.934,92.814C422.744,91.814 423.874,91.134 425.144,90.884C426.644,90.584 428.834,90.134 431.064,89.654C432.894,90.165 434.294,90.415 434.944,90.254C438.304,89.444 438.954,92.904 439.344,95.705C439.734,98.504 443.194,101.244 443.584,104.114C443.974,106.984 448.414,117.354 452.654,116.374C449.324,114.814 446.844,106.004 446.844,106.004C446.844,106.004 449.974,106.334 453.694,108.744C457.415,111.164 455.974,117.094 455.974,117.094C455.974,117.094 464.785,114.294 469.344,112.334C473.844,110.404 481.614,103.874 481.854,103.684Z" style="fill:rgb(8,36,63);fill-rule:nonzero;"/>
                <path d="M364.416,148.924L630.855,148.924C630.43,147.994 629.882,146.814 629.257,145.505C629.246,145.482 629.235,145.46 629.223,145.437L628.988,144.934C623.743,133.983 621.51,131.551 620.794,131.014C619.583,130.105 616.859,128.656 613.975,127.123C606.743,123.278 601.495,120.352 599.817,117.708C599.393,117.037 598.782,115.951 598.008,114.577C594.833,108.934 586.399,93.946 581.114,93.875C579.023,93.837 577.688,94.896 576.118,96.105C574.834,97.093 573.508,98.115 571.747,98.517C570.449,98.819 569.094,98.728 567.613,98.239C566.121,97.743 564.833,96.329 563.587,94.961C562.615,93.894 561.405,92.565 560.632,92.418C558.643,92.039 557.948,90.261 557.212,88.378C556.935,87.669 556.649,86.936 556.269,86.169C555.616,84.861 554.869,83.815 553.922,82.884C552.386,81.371 551.172,80.726 549.998,80.103C548.217,79.157 546.536,78.264 544.843,75.006C543.426,72.278 542.48,69.708 541.645,67.439C540.939,65.522 540.33,63.866 539.568,62.425C538.032,59.527 533.959,57.333 528.676,56.559C528.304,56.504 527.966,56.312 527.729,56.02C525.077,52.751 523.607,48.656 522.425,45.366C521.813,43.66 521.284,42.187 520.781,41.404C520.206,40.506 518.466,39.419 516.784,38.368C514.417,36.888 511.97,35.358 510.773,33.339C509.655,31.445 508.887,28.493 508.21,25.889C507.725,24.023 507.175,21.91 506.707,21.208C506.318,20.623 505.173,20.23 499.734,23.545C498.686,24.186 497.836,24.679 497.132,25.087C494.54,26.59 494.269,26.747 492.97,29.124C491.889,31.098 490.215,32.745 488.444,34.489C486.901,36.007 485.305,37.577 484.094,39.403C483.358,40.518 482.679,41.631 482.024,42.708C480.26,45.604 478.737,48.105 476.79,49.457C473.85,51.495 468.386,54.773 463.443,54.955C462.478,57.657 462.071,61.488 462.974,63.163C463.154,63.497 463.201,63.887 463.105,64.254C461.598,70.021 457.09,75.988 456.195,76.436C456.04,76.514 455.921,76.55 455.268,76.75C450.5,78.204 447.427,79.449 446.133,80.45C444.976,81.351 444.021,83.188 443.181,84.809C442.593,85.942 442.037,87.012 441.411,87.77C441.116,88.126 440.816,88.4 440.494,88.611C440.084,88.872 439.259,89.397 431.385,91.12C429.142,91.603 426.944,92.054 425.438,92.355C424.515,92.537 423.686,93.035 423.101,93.758C419.356,98.372 414.325,104.137 411.612,105.411C411.123,105.643 410.604,105.877 410.06,106.123C406.83,107.579 402.812,109.391 398.112,113.816C394.152,117.553 390.996,118.91 388.691,119.901C387.601,120.37 386.657,120.775 385.891,121.318C384.735,122.133 382.89,125.383 381.26,128.25C379.556,131.249 377.946,134.083 376.436,135.624C376.305,135.754 376.167,135.901 376.014,136.064C373.521,138.689 367.641,145.291 364.416,148.924ZM633.174,151.924L361.084,151.924C360.494,151.924 359.959,151.578 359.717,151.04C359.475,150.503 359.569,149.873 359.96,149.431C360.38,148.955 370.298,137.728 373.797,134.041C374.008,133.818 374.164,133.653 374.302,133.515C375.53,132.261 377.117,129.468 378.651,126.768C380.694,123.173 382.458,120.068 384.16,118.868C385.183,118.145 386.312,117.659 387.507,117.145C389.722,116.192 392.479,115.006 396.055,111.633C401.12,106.862 405.574,104.854 408.826,103.388C409.354,103.15 409.856,102.923 410.334,102.698C411.979,101.925 415.976,97.776 420.77,91.869C421.796,90.602 423.247,89.729 424.854,89.413C426.345,89.115 428.526,88.666 430.749,88.188C437.418,86.729 438.659,86.207 438.881,86.082C438.893,86.074 438.973,86.011 439.1,85.858C439.521,85.347 440.005,84.415 440.518,83.428C441.501,81.533 442.615,79.385 444.294,78.08C446.434,76.424 451.082,74.89 454.392,73.88C454.513,73.843 454.618,73.811 454.707,73.784C455.552,72.799 458.716,68.594 460.062,64.003C458.765,60.766 459.842,55.534 461.068,52.826C461.325,52.258 461.888,51.902 462.53,51.947C466.988,52.246 472.794,48.577 475.08,46.992C476.504,46.003 477.875,43.753 479.461,41.147C480.131,40.047 480.825,38.91 481.593,37.747C482.978,35.658 484.687,33.977 486.339,32.351C487.949,30.766 489.47,29.27 490.338,27.684C491.976,24.687 492.724,24.175 495.627,22.492C496.316,22.093 497.146,21.612 498.171,20.984C501.362,19.04 506.7,15.788 509.202,19.542C509.952,20.664 510.49,22.735 511.114,25.134C511.741,27.547 512.453,30.282 513.356,31.812C514.179,33.202 516.408,34.595 518.374,35.824C520.427,37.107 522.366,38.319 523.307,39.784C523.992,40.853 524.575,42.474 525.249,44.352C526.297,47.272 527.588,50.87 529.71,53.684C535.731,54.69 540.271,57.346 542.219,61.022C543.076,62.642 543.748,64.469 544.46,66.403C545.264,68.587 546.176,71.063 547.505,73.623C548.767,76.052 549.817,76.609 551.405,77.453C552.641,78.109 554.18,78.927 556.027,80.746C557.2,81.9 558.158,83.238 558.956,84.834C559.395,85.723 559.72,86.553 560.006,87.286C560.394,88.278 560.833,89.402 561.194,89.471C562.95,89.806 564.401,91.399 565.805,92.941C566.745,93.973 567.811,95.144 568.556,95.391C569.498,95.702 570.321,95.768 571.075,95.593C572.2,95.336 573.167,94.591 574.287,93.729C576.025,92.39 577.994,90.874 581.047,90.874C581.082,90.874 581.116,90.874 581.151,90.875C587.317,90.958 594.153,101.608 600.623,113.105C601.375,114.442 601.969,115.498 602.351,116.102C603.732,118.279 610.466,121.86 615.383,124.474C618.503,126.133 621.198,127.566 622.594,128.614C624.565,130.092 627.627,135.149 631.697,143.646L631.928,144.139C631.931,144.145 631.935,144.151 631.938,144.157C631.945,144.17 631.951,144.184 631.958,144.197C633.47,147.362 634.538,149.798 634.548,149.822C634.751,150.286 634.707,150.821 634.43,151.245C634.153,151.668 633.68,151.924 633.174,151.924Z" style="fill:rgb(8,36,63);fill-rule:nonzero;"/>
                <path d="M528.997,52.683L530.784,55.998C531.42,57.088 531.992,58.226 532.659,59.308C533.341,60.376 533.942,61.514 534.67,62.568C535.337,63.675 536.066,64.741 536.814,65.867C534.668,64.358 532.775,62.471 531.031,60.469C529.293,58.452 527.701,56.313 526.29,53.976L528.997,52.683Z" style="fill:rgb(8,36,63);fill-rule:nonzero;"/>
                <path d="M515.115,37.239C512.89,36.254 510.768,34.89 509.22,33.014C507.645,31.164 506.767,28.885 506.488,26.639C507.209,27.625 507.866,28.519 508.539,29.331C509.231,30.128 509.918,30.865 510.708,31.484C511.49,32.106 512.331,32.64 513.218,33.12C514.125,33.567 515.064,33.97 516.028,34.381L515.115,37.239Z" style="fill:rgb(8,36,63);fill-rule:nonzero;"/>
                <path d="M605.368,122.295C603.026,120.894 600.586,119.51 598.339,117.807C596.095,116.118 594.092,114.02 592.869,111.551C593.996,112.458 595.05,113.264 596.144,113.986C597.231,114.709 598.31,115.406 599.461,116.023C600.039,116.33 600.627,116.619 601.228,116.896L603.019,117.772C604.235,118.331 605.456,118.927 606.661,119.588L605.368,122.295Z" style="fill:rgb(8,36,63);fill-rule:nonzero;"/>
                <path d="M545.606,69.44C546.905,71.678 547.846,74.349 548.061,77.053C548.192,78.39 548.179,79.661 548.195,80.88L548.215,81.787C548.231,82.078 548.221,82.423 548.253,82.608C548.27,82.827 548.284,83.053 548.357,83.299C548.405,83.539 548.465,83.785 548.565,84.04C549.269,86.082 550.617,88.219 551.806,90.414C552.407,91.516 552.989,92.658 553.472,93.848C553.943,95.038 554.356,96.286 554.423,97.562C553.284,95.303 551.659,93.502 550.088,91.575C548.528,89.637 546.849,87.75 545.68,85.161C545.529,84.845 545.406,84.497 545.296,84.134C545.169,83.789 545.092,83.398 545.03,83C544.949,82.572 544.933,82.292 544.907,81.962L544.842,81.005C544.762,79.738 544.727,78.518 544.622,77.376C544.432,75.103 543.769,72.976 542.903,70.74L545.606,69.44Z" style="fill:rgb(8,36,63);fill-rule:nonzero;"/>
                <path d="M448.966,137.279C456.5,132.779 470.977,121.138 470.977,121.138C470.977,121.138 454.836,124.758 448.966,137.279Z" style="fill:rgb(8,36,63);fill-rule:nonzero;"/>
            </g>
        </g>
    </g>
    <defs>
        <linearGradient id="_Linear1" x1="0" y1="0" x2="1" y2="0" gradientUnits="userSpaceOnUse" gradientTransform="matrix(272.09,0,0,131.116,361.084,84.8662)"><stop offset="0" style="stop-color:rgb(255,86,119);stop-opacity:1"/><stop offset="1" style="stop-color:black;stop-opacity:1"/></linearGradient>
    </defs>
</svg>
