<?xml version="1.0" encoding="UTF-8" standalone="no"?>
<!DOCTYPE svg PUBLIC "-//W3C//DTD SVG 1.1//EN" "http://www.w3.org/Graphics/SVG/1.1/DTD/svg11.dtd">
<svg width="100%" height="100%" viewBox="0 0 315 113" version="1.1" xmlns="http://www.w3.org/2000/svg" xmlns:xlink="http://www.w3.org/1999/xlink" xml:space="preserve" xmlns:serif="http://www.serif.com/" style="fill-rule:evenodd;clip-rule:evenodd;stroke-linejoin:round;stroke-miterlimit:2;">
    <g transform="matrix(1,0,0,1,-0.000609687,-42.7644)">
        <g>
            <g>
                <path d="M313.37,154.026L1.5,154.026C1.5,154.026 2.86,152.136 4.66,149.546C6.62,146.716 9.1,143.046 10.89,140.086C14.31,134.406 21.21,130.796 23.169,128.986C24.44,127.806 26.82,125.836 29.07,124.156C30.27,123.256 31.419,122.446 32.36,121.886C33.31,121.316 34.82,119.996 36.41,118.446L36.419,118.436C39.379,115.546 42.629,111.856 43.07,110.686C43.76,108.876 44.25,107.216 45.81,106.046C46.43,105.576 47.02,105.016 47.69,104.446C48.69,103.606 49.89,102.756 51.68,102.226C54.669,101.346 55.399,102.716 57.75,105.596C60.09,108.486 68.46,110.496 68.46,110.496L84.5,88.967L110.33,74.057C110.33,74.057 120.01,57.957 125.78,54.537C131.56,51.117 133.71,48.227 135.81,44.316C139.43,43.827 147.06,46.907 151.12,50.427C155.18,53.947 159.09,59.037 162.37,62.017C165.65,65.007 175.24,69.407 175.24,69.407C175.24,69.407 184.97,61.437 187.27,61.487C189.57,61.527 192,62.137 195.58,64.027C199.17,65.916 197.8,65.916 203.74,71.527C205.84,73.507 208.3,75.237 210.76,76.787C215.26,79.637 219.76,81.896 222,84.047C228.15,93.237 234.12,97.687 238.32,98.157C239.34,98.267 240.25,98.146 241.04,97.807C245.08,96.047 255.78,89.717 255.78,89.717C255.78,89.717 266.34,101.846 267.98,103.216C269.61,104.586 271.76,103.806 272.02,106.486C272.28,109.156 277.04,116.716 277.04,116.716C277.04,116.716 278.38,117.286 280.33,117.996C282.84,118.916 286.36,120.086 289.37,120.636C289.76,123.636 292.24,125.916 294.78,129.956C297.32,134.006 300.65,135.116 304.89,141.636C304.94,141.706 304.99,141.786 305.03,141.856C309.23,148.286 313.37,154.026 313.37,154.026Z" style="fill:url(#_Linear1);fill-rule:nonzero;"/>
                <g>
                    <path d="M208.726,134.46C210.845,131.166 212.084,130.416 213.519,129.568C214.954,128.721 216.714,127.677 217.726,125.916C218.736,124.155 220.301,120.699 220.301,120.699L213.893,125.362L209.377,130.416L208.726,134.46Z" style="fill:rgb(8,36,63);fill-rule:nonzero;"/>
                    <path d="M230.606,101.248C229.823,101.835 227.133,99.243 224.638,95.183C226.155,96.259 231.388,100.661 230.606,101.248ZM220.041,94.669C219.796,94.449 219.111,95.183 217.742,94.987C216.372,94.791 212.752,88.188 212.606,88.14C212.606,88.14 217.742,92.541 218.133,92.64C218.524,92.737 220.188,92.395 220.627,92.493C221.068,92.59 225.323,99.977 225.323,99.977C225.323,99.977 220.285,94.89 220.041,94.669ZM213.976,103.155L212.801,103.938L207.959,93.911L212.851,100.025L215.688,100.025C215.688,100.025 217.742,109.171 217.742,109.318C217.742,109.465 213.976,103.155 213.976,103.155ZM198.91,93.178C198.91,91.857 200.182,87.357 199.938,85.4C200.622,87.944 200.818,92.053 201.013,92.982C201.209,93.911 204.535,98.705 204.633,103.938C202.921,99.585 198.91,94.498 198.91,93.178ZM194.655,128.003C194.214,130.351 194.361,134.46 194.361,134.46C194.361,134.46 191.573,129.813 193.138,126.487C194.704,123.161 195.584,122.28 195.633,121.033C195.682,119.786 192.698,112.008 192.747,107.606C194.166,111.911 199.938,121.889 199.938,121.889C199.938,121.889 195.095,125.655 194.655,128.003ZM195.256,95.46C194.932,94.286 192.813,90.928 193.888,88.71C193.595,90.308 195.976,94.221 196.758,95.102C197.541,95.982 194.867,99.406 194.932,100.286C194.997,101.166 198.16,108.438 198.16,108.438C198.16,108.438 192.193,102.471 192.356,100.775C192.519,99.08 195.581,96.634 195.256,95.46ZM238.32,98.157C234.12,97.687 228.15,93.237 222,84.047C219.76,81.896 215.26,79.637 210.76,76.787L210.76,76.797L215.54,85.937C215.54,85.937 205.12,75.027 203.12,74.547C202.33,77.137 202.43,80.457 202.43,80.457C202.43,80.457 204.19,81.547 204.83,84.867C205.46,88.187 207.13,91.566 207.13,91.566C207.13,91.566 204.68,89.217 204.14,86.577C203.61,83.937 199.59,80.997 199.5,79.437C199.4,77.867 200.72,73.316 200.13,71.606C199.55,69.896 196.81,64.517 187.46,63.537C184.92,64.757 180.81,67.447 178.02,69.407C175.24,71.367 173.13,74.146 171.57,76.007C170,77.867 169.51,79.336 167.95,80.217C166.38,81.097 155.82,85.747 154.55,86.577C153.27,87.407 151.86,91.126 150.39,92.737C148.92,94.347 146.77,94.207 146.57,94.987C146.38,95.767 143.69,98.997 142.86,101.836C142.02,104.676 141.34,107.096 138.55,107.866C135.76,108.636 131.18,114.866 130.369,116.396C135.13,113.456 138.45,113.396 139.95,111.436C141.45,109.486 143.08,106.876 143.41,104.786C143.74,102.696 146.08,97.217 150.45,95.847L150.45,101.326C150.45,101.326 153.91,89.527 155.21,88.086C156.52,86.657 168.58,82.027 168.58,82.027C168.58,82.027 165.86,88.007 159.32,90.957C168.65,88.876 168.84,86.137 170.34,82.547C171.84,78.957 171.91,78.566 173.74,77.267C175.56,75.957 175.04,74.007 176.21,72.957C177.39,71.916 183.71,67.347 186.06,66.697L185.61,69.407C185.61,69.407 187.5,70.416 187.76,71.267C188.02,72.117 188.61,73.217 190.56,74.657C192.46,76.047 193.98,84.327 194.07,84.836L189.91,77.327L188.28,79.617L185.94,73.586C186.07,74.316 188.22,86.077 189.24,87.927C189,87.597 187.13,84.967 186.58,84.867C186,84.767 185.87,86.457 185.21,86.527C184.56,86.586 183.65,85.416 183.39,82.677C183.14,80.047 180.73,77.907 180.53,77.727C180.61,77.957 182.08,81.836 181.95,84.117C181.82,86.457 181.43,87.307 181.82,88.287C182.21,89.267 183.71,88.807 184.04,89.916C184.36,90.997 189.63,108.646 189.96,109.756C189.54,109.026 184.8,100.677 184.3,100.677C183.78,100.677 181.5,104.266 181.5,104.986C181.5,105.696 183.39,106.216 183.45,107.456C183.52,108.696 182.67,111.306 182.67,112.806C182.67,114.256 185.61,121.286 185.79,121.726C185.52,121.366 181.98,116.496 180.91,112.416C179.8,108.176 177.91,107.136 177.84,105.116C177.78,103.086 177.58,102.376 176.34,100.347C175.11,98.327 174.2,96.697 174.2,95.007C173.21,98.267 175.04,101.456 175.24,102.766C175.43,104.066 173.49,105.376 174.2,107.456C174.91,109.546 175.95,108.206 176.67,111.716C177.39,115.216 176.08,117.376 176.28,121.086C176.48,124.806 177.32,129.246 180.52,131.266L182.6,136.996C182.45,136.736 180.02,132.626 178.76,132.306C177.45,131.986 174.79,130.876 174.2,128.716C173.61,126.566 172.5,123.116 170.74,120.766C172.69,127.546 171.65,131.006 172.43,132.896C173.21,134.786 175.63,134.396 175.63,134.396C175.63,134.396 175.3,137.986 176.54,139.416C177.78,140.846 178.43,140.716 178.43,140.716C178.43,140.716 177.45,142.876 178.95,145.806C180.45,148.746 181.17,152.196 181.17,152.196C181.17,152.196 181.43,147.766 182.8,146.326C184.17,144.896 186.98,142.936 187.95,139.546C188.93,136.156 188.61,135.116 187.43,134.716C186.26,134.326 185.02,130.876 185.08,127.876C187.04,132.826 188.87,133.936 191.28,134.846L190.11,146.526C190.11,146.526 192,142.876 193.69,140.526C195.39,138.176 195.45,136.746 197.15,136.156C198.84,135.566 200.34,134.786 200.34,134.786C200.34,134.786 201.19,137.396 202.82,137.456C202.82,137.456 205.61,137.656 205.75,137.426C205.88,137.196 206.5,136.036 206.5,136.036C206.5,136.036 204.71,132.826 204.58,128.656C204.45,124.486 206.41,122.916 202.17,117.636C205.5,118.936 207.19,123.506 207.26,125.916C207.32,128.326 208.99,130.346 208.99,130.346L213.23,125.916C213.23,125.916 210.39,122.786 209.15,118.876C207.97,115.146 207.09,112.036 207.01,111.736C207.23,112.116 210.77,118.266 212.48,119.716C214.24,121.216 215.71,120.546 217.26,122.646L218.79,121.386C218.79,121.386 215.08,110.656 215.28,110.656C215.48,110.656 221.54,115.996 221.54,115.996C221.54,115.996 222.68,110.056 226.12,108.136C229.57,106.216 238.5,99.146 238.5,99.146L238.32,98.157Z" style="fill:rgb(8,36,63);fill-rule:nonzero;"/>
                    <path d="M105.291,126.34C111.551,124.677 119.345,121.221 120.649,119.851C121.954,118.481 124.348,114.112 127.064,112.221C129.78,110.329 138.625,106.314 138.625,106.314L139.432,103.351C139.432,103.351 130.544,108.373 127.064,110.068C123.584,111.764 120.323,117.242 118.563,118.808C116.801,120.373 105.291,126.34 105.291,126.34Z" style="fill:rgb(8,36,63);fill-rule:nonzero;"/>
                    <path d="M157.758,75.08C157.758,75.08 154.073,70.678 152.671,70.058C151.269,69.438 149.476,69.96 149.051,69.406C148.627,68.852 146.932,66.112 145.301,61.156C145.301,61.156 149.084,66.471 149.769,67.449C150.454,68.428 151.921,66.895 153.388,68.428C154.856,69.96 157.758,75.08 157.758,75.08ZM163.839,63.174C163.839,63.174 163.644,66.96 165.698,71.166C161.883,66.911 159.95,59.604 159.95,59.604L152.002,51.65C152.002,51.65 151.986,60.373 154.351,64.515C149.801,59.477 150.731,56.15 150.633,54.683C150.535,53.215 146.476,49.253 146.476,49.253C146.476,49.253 147.454,53.215 148.383,54.585C146.231,51.455 142.332,45.412 137.182,46.27C136.301,46.416 137.182,48.373 137.916,49.156C138.649,49.938 139.579,50.965 139.676,52.335C139.774,53.705 141.535,56.493 141.535,56.493C141.535,56.493 139.383,54.536 138.601,52.971C137.818,51.406 136.008,49.253 135.323,49.694C134.638,50.134 130.041,53.411 128.621,53.949C127.204,54.487 119.818,60.36 119.818,60.36C119.818,60.36 112.97,72.781 112.774,74.64C112.579,76.498 107.688,82.025 106.269,84.08C104.851,86.134 103.138,91.172 102.063,93.862C100.986,96.553 94.823,106.775 94.823,106.775L99.616,101.59C99.616,101.59 100.742,103.155 101.231,104.036C101.72,104.916 98.491,111.367 95.899,113.742C93.306,116.117 79.929,123.552 79.929,123.552C86.997,120.96 96.192,117.536 97.806,115.481C99.42,113.427 104.019,105.161 104.019,103.742C104.019,102.324 101.606,101.688 101.443,99.928C101.28,98.166 103.497,97.253 103.693,95.069C103.888,92.884 108.16,82.84 112.464,78.666C113.117,81.666 112.693,88.547 112.693,88.547C112.693,88.547 116.051,77.916 116.149,70.873C121.774,62.949 123.731,63.194 125.736,60.406C127.742,57.618 129.746,57.275 131.655,56.003C133.563,54.732 135.421,53.852 136.839,54.34C138.258,54.83 139.676,56.64 139.53,58.596C139.383,60.553 141.976,67.253 141.976,67.253C141.976,67.253 139.758,64.286 139.008,62.852C138.258,61.416 137.769,62.362 136.986,63.112C136.204,63.862 134.736,65.297 134.019,65.232C133.301,65.166 131.736,60.862 131.182,60.928C130.627,60.993 131.214,65.33 131.964,66.569C132.714,67.808 134.084,69.666 133.856,70.938C133.627,72.21 135.388,77.623 135.388,77.623C135.388,77.623 132.617,73.84 131.899,71.59C131.899,71.59 130.53,73.645 130.073,73.678C129.617,73.71 126.714,68.199 126.714,68.199C126.714,68.199 126.813,72.373 126.976,73.645C127.138,74.916 128.377,75.602 128.541,75.993C128.703,76.384 128.084,79.123 128.703,80.46C129.323,81.797 131.117,85.808 131.117,85.808L132.03,78.928C132.03,78.928 138.127,78.732 139.073,79.71C140.019,80.688 138.943,82.938 140.019,85.188C141.095,87.438 143.677,92.919 142.138,93.503C140.508,94.123 140.149,92.721 138.486,89.33C137.182,90.536 134.051,93.895 134.051,93.895L136.171,100.286C136.171,100.286 132.877,98.232 130.432,93.993C127.986,89.753 126.813,88.71 126.813,88.71C126.813,88.71 128.671,93.862 129.257,96.666C129.845,99.471 127.888,104.786 127.888,104.786L140.214,99.993L144.286,95.883L149.565,89.59L152.063,86.094L155.236,84.29L150.063,74.134L155.997,80.656L154.888,76.09L159.649,81.634L163.563,79.612L156.714,68.656C156.714,68.656 164.214,75.765 165.323,76.352C166.432,76.938 170.836,73.771 170.836,73.771L174.199,68.916L163.839,63.174Z" style="fill:rgb(8,36,63);fill-rule:nonzero;"/>
                    <path d="M57.844,127.808C65.475,122.721 69.975,115.971 74.084,110.492C78.192,105.014 85.92,93.373 86.997,92.297C88.073,91.221 99.469,84.128 99.469,84.128C99.469,84.128 95.948,93.52 95.507,98.265L102.601,85.303L108.176,75.813L93.468,83.79C93.468,83.79 89.442,88.628 87.975,89.265C86.507,89.9 85.578,90.781 84.747,92.15C83.915,93.52 73.448,104.443 73.448,104.443L57.844,127.808Z" style="fill:rgb(8,36,63);fill-rule:nonzero;"/>
                    <path d="M29.74,124.346C29.74,124.346 22.04,136.026 18.78,137.196C15.52,138.376 14.8,140.396 5.479,150.696L4.66,149.546C6.62,146.716 9.1,143.046 10.89,140.086C14.31,134.406 21.21,130.796 23.169,128.986C24.44,127.806 26.82,125.836 29.07,124.156L29.74,124.346Z" style="fill:rgb(8,36,63);fill-rule:nonzero;"/>
                    <path d="M65.8,110.496C65.8,110.496 60.23,119.066 57.32,122.716C54.419,126.376 49.24,129.146 45.81,130.516C42.39,131.886 36.36,135.596 36.36,135.596C36.36,135.596 38.93,132.246 41.21,130.086C43.5,127.936 45.649,127.836 46.24,127.416C46.82,126.996 46.89,126.566 47.6,125.326C48.31,124.086 48.49,123.146 48.649,122.036C48.81,120.926 52.76,117.506 53.57,116.236C54.39,114.956 53.8,114.176 53.05,113.746C52.3,113.306 50.25,112.936 49.53,112.446C48.81,111.956 49.59,110.296 50.28,109.316C50.96,108.336 51.75,106.346 51.19,106.316C49.01,106.186 46.3,111.016 46.04,113.036C45.78,115.056 42.75,117.076 40.86,118.416C38.96,119.756 36.45,124.676 35.149,126.466C33.84,128.266 33.03,131.756 31.629,132.406C30.23,133.056 28.14,136.156 27.419,137.686C26.7,139.216 25.95,141.246 20.34,141.766C22.22,141.386 25.37,138.716 25.899,137.426C26.44,136.136 28.45,132.156 29.74,131.276C31.03,130.396 32.02,128.096 33.44,125.456C34.82,122.896 36.32,118.706 36.41,118.446L36.419,118.436C39.379,115.546 42.629,111.856 43.07,110.686C43.76,108.876 44.25,107.216 45.81,106.046C46.43,105.576 47.02,105.016 47.69,104.446L49.86,104.496C51.91,105.536 52.86,104.166 53.899,104.496C54.94,104.816 56.149,111.666 60.23,114.076C57.36,110.496 57.45,106.806 57.45,106.806L65.8,110.496Z" style="fill:rgb(8,36,63);fill-rule:nonzero;"/>
                    <path d="M40.17,148.221C47.606,146.329 60.323,139.808 61.17,138.764C62.019,137.721 68.214,127.793 72.649,123.105C64.497,127.742 59.801,135.829 59.149,137.134C58.497,138.438 42.714,146.329 40.17,148.221Z" style="fill:rgb(8,36,63);fill-rule:nonzero;"/>
                    <path d="M90.885,95.697C91.267,96.244 90.005,98.534 89.54,98.974C89.075,99.414 86.923,100.001 86.532,101.223C86.141,102.446 79.929,109.221 79.929,109.221C79.929,109.221 84.795,100.172 85.823,98.705C86.85,97.237 90.763,95.521 90.885,95.697Z" style="fill:rgb(8,36,63);fill-rule:nonzero;"/>
                    <path d="M119.606,84.87C119.149,88.743 118.627,97.354 118.497,99.146C118.367,100.938 112.041,104.655 111.127,106.025C110.214,107.395 107.345,116.395 107.345,116.395C107.345,116.395 108.323,107.068 109.954,104.786C111.584,102.503 116.019,100.352 116.671,97.547C117.323,94.743 119.606,84.87 119.606,84.87Z" style="fill:rgb(8,36,63);fill-rule:nonzero;"/>
                    <path d="M162.617,97.384C156.356,100.808 154.464,101.753 153.486,103.351C152.508,104.949 152.801,106.512 152.41,107.866C152.019,109.221 150.714,111.927 150.747,112.905C150.747,112.905 143.964,117.112 140.704,123.145C143.964,119.884 148.008,116.296 150.095,115.449C152.182,114.601 153.813,112.286 154.301,109.221C154.791,106.155 154.595,105.046 155.313,104.329C156.03,103.612 162.617,97.384 162.617,97.384Z" style="fill:rgb(8,36,63);fill-rule:nonzero;"/>
                    <path d="M305.03,141.856L304.2,144.506C304.2,144.506 298.3,139.876 297.58,139.386C296.87,138.896 296.77,137.656 294.52,136.126C292.39,134.666 290.06,132.346 289.81,132.106C289.97,132.396 291.36,134.786 293.25,137.236C295.27,139.836 295.79,144.276 295.33,144.336C294.88,144.406 292.69,143.786 291.71,142.936C290.74,142.086 287.18,135.766 285.62,134.916C284.05,134.066 283.17,133.216 280.3,129.206C282,133.576 284.87,135.826 285.13,136.546C285.39,137.266 285.13,138.666 285.13,138.666L283.67,138.156C283.83,138.446 286.43,143.126 288.45,145.776C290.54,148.516 290.57,146.756 292.37,148.286C294.16,149.816 295.99,152.316 295.99,152.316C295.99,152.316 292.79,149.816 291.62,149.036C290.44,148.256 289.3,148.416 288.49,147.956C287.67,147.506 287.25,146.366 285.45,144.636C283.66,142.906 280.06,139.836 279.45,138.296C278.83,136.756 275.8,133.336 274.36,132.186C272.92,131.036 271.06,129.156 271.06,129.156C271.06,129.156 271.23,129.906 272.21,131.036C273.18,132.156 272.55,133.606 273.16,135.956C273.73,138.146 276.07,140.356 276.36,140.616C276.05,140.376 273.59,138.356 273.06,137.806C272.5,137.226 271.89,137.686 270.81,136.096C269.74,134.506 270.96,133.066 270.01,132.556C269.05,132.036 268.05,129.376 267.76,128.076C267.46,126.776 269.2,124.796 268.24,123.426C267.29,122.056 263.94,115.926 263.77,115.846C263.6,115.776 266.36,124.436 266.36,124.436C266.36,124.436 265.6,125.706 265.14,126.976C264.67,128.246 264.65,130.766 264.65,130.766C264.65,130.766 263.33,128.176 262.57,127.486C261.81,126.806 260.609,127.196 259.78,126.876C258.95,126.556 253.28,121.696 253.28,121.696C253.28,121.696 258.12,127.876 259.12,128.616C260.12,129.346 260.299,128.276 261.2,129.026C262.109,129.786 263.5,133.626 264.84,135.366C266.19,137.096 265.33,138.446 266.9,140.576C268.46,142.706 269.34,142.576 270.47,143.606C271.59,144.636 271.13,145.956 271.4,147.686C271.66,149.356 274.41,152.096 274.62,152.306C274.31,152.166 269.47,149.876 268.76,149.256C268.02,148.616 268.61,147.686 267.49,146.716C266.36,145.736 263.62,144.116 262.18,142.406C260.739,140.696 260.049,138.176 259.76,136.906C259.459,135.636 258.66,135.416 258.019,134.386C257.39,133.356 257.7,132.426 257.13,131.816C256.549,131.206 254.7,130.276 254.7,130.276C254.7,130.276 256.43,131.796 256.6,132.576C256.769,133.356 256.51,133.946 256.95,134.676C257.39,135.416 256.92,135.956 256.73,136.736C256.53,137.516 257.09,140.236 257.09,140.236C257.09,140.236 253.59,140.716 252.18,141.426C250.76,142.136 248.85,144.366 248.29,144.316C247.73,144.266 243.91,141.746 243.54,141.846C243.18,141.946 243.05,142.556 243.98,143.606C244.91,144.656 246.62,147.296 245.67,147.936C244.72,148.566 242.39,151.726 240.73,151.626C239.9,151.316 240.71,147.666 240.75,146.886C240.78,146.096 240.13,145.576 238.76,143.006C237.39,140.426 236.7,135.206 236.7,135.206L239.8,138.866L244.07,136.416C244.07,136.416 241.24,133.776 240.42,133.126C239.61,132.466 238.5,134.426 237.42,133.286C236.37,132.186 234.32,127.156 234.2,126.846C234.44,127.106 238.28,131.306 238.5,131.526C238.73,131.756 239.41,131.426 240.29,131.196C241.17,130.966 243.81,133.676 245.05,134.986C246.29,136.286 252.09,139.346 252.09,139.346C252.09,139.346 251.38,137.756 249.71,135.926C248.1,134.156 245.82,129.916 245.68,129.646L249.65,132.636L250.56,130.086C248.54,129.336 245.7,125.946 244.73,125.136C243.79,124.346 239.68,125.126 239.33,125.186L243.58,121.156C243.58,121.156 242.18,118.386 241.04,115.806C241.2,115.806 250.56,124.966 250.56,124.966L247.24,119.326L250.99,115.906C250.99,115.906 248.15,112.126 249.03,111.696C249.88,111.286 257.73,118.816 258.209,119.276C257.92,118.776 252.42,109.626 251.41,106.936C250.43,104.336 249.02,101.056 248.85,100.657C249.15,101.056 253.1,106.366 256.04,109.086C252.98,104.266 253.07,100.707 253.24,98.987C253.4,97.257 254.48,95.197 253.63,94.937C252.78,94.677 251.67,96.566 248.44,98.066C245.21,99.566 243,100.086 242.08,101.326C241.17,102.566 239.18,104.786 238.01,106.056C236.83,107.326 237,107.986 236.96,109.186C236.93,110.356 232.31,113.916 232.02,114.136C232.25,113.886 236.11,109.766 235.69,108.536C235.27,107.266 236.51,105.406 236.51,105.406C236.51,105.406 230.34,108.956 229.27,109.876C228.19,110.786 225.58,114.306 225.03,116.426C224.48,118.546 224.51,121.746 224.21,123.506C223.92,125.266 221.05,128.266 219.13,133.486C219.42,130.776 220.89,126.766 221.61,125.166C222.32,123.566 222.06,122.816 222.09,121.386C222.13,119.946 223.04,116.266 223.95,114.826C224.87,113.396 225.36,111.406 227.12,110.066C228.88,108.736 235.3,104.886 236.77,103.906C238.24,102.926 239.26,101.936 240.19,100.757C241.12,99.586 246.21,97.387 248.41,96.257C250.61,95.137 253.2,92.347 254.52,92.347C255.84,92.347 262.27,101.066 262.99,102.696C263.7,104.326 265.86,108.206 267.03,110.366C268.2,112.516 267.55,113.946 267.55,115.386C267.55,116.776 271.29,119.876 271.52,120.066C271.37,119.836 268.95,116.156 269.02,115.026C269.08,113.846 269.74,111.636 268.4,109.346C267.06,107.066 266.38,104.556 266.38,104.556C266.38,104.556 268.4,105.636 269.44,106.516C270.49,107.396 270.09,109.806 273.13,114.436C276.16,119.066 276.98,123.176 278.15,124.316C279.32,125.456 280.24,124.906 282.84,127.186C285.37,129.396 288.82,134.646 289.03,134.966C288.83,134.506 285.54,127.106 284.34,125.526C283.11,123.896 280.11,122.066 279.84,120.116C279.78,119.636 279.98,118.876 280.33,117.996C282.84,118.916 286.36,120.086 289.37,120.636C289.76,123.636 292.24,125.916 294.78,129.956C297.32,134.006 300.65,135.116 304.89,141.636C304.94,141.706 304.99,141.786 305.03,141.856Z" style="fill:rgb(8,36,63);fill-rule:nonzero;"/>
                    <path d="M228.976,127.318C228.91,130.775 229.171,134.199 227.41,136.384C225.649,138.568 221.313,139.424 220.774,140.305C220.236,141.185 219.943,143.02 218.94,143.24C219.723,141.772 218.891,140.745 219.723,139.84C220.554,138.935 226.057,137.395 227.035,134.998C228.013,132.601 228.976,127.318 228.976,127.318Z" style="fill:rgb(8,36,63);fill-rule:nonzero;"/>
                </g>
                <g>
                    <path d="M4.405,152.526L310.466,152.526C308.86,150.242 306.318,146.571 303.774,142.677C303.711,142.571 303.689,142.535 303.667,142.503C301.388,139.002 299.4,137.124 297.646,135.466C296.155,134.058 294.748,132.728 293.51,130.753C292.73,129.514 291.967,128.46 291.229,127.441C289.852,125.539 288.633,123.856 288.101,121.912C285.216,121.288 282.059,120.228 279.813,119.405C277.852,118.691 276.509,118.121 276.452,118.097C276.171,117.977 275.934,117.774 275.771,117.516C274.944,116.203 270.808,109.509 270.527,106.632C270.457,105.902 270.375,105.876 269.382,105.553C268.69,105.329 267.83,105.05 267.016,104.365C265.554,103.144 258.097,94.65 255.468,91.641C252.628,93.302 244.996,97.72 241.64,99.182C240.6,99.63 239.432,99.786 238.159,99.648C233.018,99.073 226.715,93.745 220.849,85.022C219.444,83.721 217.058,82.312 214.306,80.686C212.896,79.854 211.439,78.993 209.957,78.054C206.911,76.135 204.607,74.407 202.711,72.618C200.187,70.233 198.938,68.822 198.111,67.888C196.997,66.628 196.732,66.329 194.881,65.354C191.813,63.734 189.529,63.026 187.244,62.987C186.015,63.122 180.526,67.016 176.19,70.567C175.748,70.932 175.136,71.01 174.614,70.77C174.215,70.586 164.773,66.237 161.359,63.125C159.834,61.739 158.214,59.954 156.499,58.063C154.437,55.79 152.305,53.439 150.138,51.56C146.68,48.562 140.155,45.792 136.729,45.763C134.528,49.688 132.101,52.54 126.544,55.828C122.081,58.473 114.255,70.442 111.615,74.83C111.484,75.048 111.3,75.229 111.08,75.356L85.517,90.111L69.663,111.393C69.303,111.874 68.696,112.093 68.109,111.955C67.202,111.737 59.169,109.734 56.584,106.54L55.976,105.788C54.067,103.411 53.804,103.166 52.103,103.666C50.541,104.128 49.522,104.866 48.655,105.595C48.441,105.777 48.229,105.964 48.021,106.147C47.578,106.538 47.154,106.91 46.717,107.241C45.662,108.033 45.23,109.191 44.683,110.658L44.471,111.22C43.764,113.101 39.175,117.842 37.467,119.51C36.17,120.774 34.377,122.426 33.131,123.173C32.326,123.652 31.264,124.386 29.969,125.356C27.905,126.898 25.529,128.842 24.19,130.085C23.586,130.643 22.687,131.271 21.548,132.065C18.748,134.021 14.513,136.977 12.175,140.86C10.327,143.918 7.739,147.735 5.893,150.4C5.348,151.184 4.844,151.903 4.405,152.526ZM313.37,155.526L1.5,155.526C0.937,155.526 0.421,155.211 0.165,154.71C-0.091,154.21 -0.045,153.607 0.282,153.15C0.286,153.146 1.638,151.266 3.428,148.69C5.249,146.062 7.799,142.299 9.607,139.31C12.273,134.882 16.822,131.707 19.832,129.605C20.835,128.905 21.702,128.3 22.152,127.884C23.557,126.58 26.034,124.551 28.172,122.955C29.568,121.908 30.688,121.136 31.592,120.598C32.355,120.14 33.73,118.964 35.363,117.373C38.795,114.02 41.387,110.862 41.667,110.157L41.872,109.61C42.504,107.914 43.158,106.16 44.911,104.846C45.284,104.563 45.651,104.237 46.038,103.897C46.257,103.702 46.483,103.504 46.717,103.304C47.788,102.405 49.157,101.409 51.253,100.789C54.935,99.706 56.354,101.467 58.316,103.91L58.912,104.648C60.24,106.289 64.752,107.946 67.858,108.793L83.296,88.071C83.419,87.907 83.573,87.77 83.75,87.667L109.247,72.95C110.719,70.539 119.396,56.578 125.016,53.247C130.339,50.097 132.382,47.529 134.489,43.607C134.717,43.184 135.133,42.895 135.609,42.831C140.005,42.229 148.091,45.814 152.103,49.293C154.406,51.291 156.6,53.709 158.721,56.047C160.386,57.883 161.958,59.617 163.379,60.907C165.905,63.209 172.649,66.519 175.024,67.648C178.898,64.517 184.964,59.902 187.303,59.987C190.083,60.036 192.77,60.847 196.28,62.7C198.503,63.871 199.063,64.436 200.358,65.9C201.148,66.794 202.344,68.145 204.771,70.437C206.521,72.088 208.679,73.703 211.56,75.518C213.005,76.433 214.441,77.282 215.832,78.103C218.82,79.868 221.4,81.393 223.039,82.965C223.116,83.04 223.187,83.123 223.247,83.212C228.568,91.165 234.266,96.194 238.487,96.666C239.232,96.749 239.894,96.668 240.447,96.429C244.35,94.729 254.91,88.489 255.017,88.426C255.642,88.058 256.437,88.187 256.911,88.732C261.125,93.572 267.806,101.116 268.942,102.065C269.313,102.377 269.773,102.526 270.308,102.7C271.48,103.08 273.252,103.655 273.514,106.341C273.662,107.868 276.179,112.478 278.059,115.515C278.595,115.734 279.595,116.133 280.843,116.587C283.243,117.467 286.715,118.626 289.64,119.161C290.281,119.278 290.773,119.796 290.857,120.443C291.074,122.113 292.158,123.61 293.659,125.682C294.39,126.691 295.218,127.834 296.05,129.158C297.086,130.81 298.301,131.958 299.706,133.286C301.582,135.058 303.708,137.067 306.148,140.818C306.191,140.878 306.27,141.002 306.331,141.11C310.418,147.361 314.546,153.092 314.587,153.149C314.916,153.605 314.962,154.209 314.705,154.71C314.449,155.211 313.934,155.526 313.37,155.526Z" style="fill:rgb(8,36,63);fill-rule:nonzero;"/>
                    <path d="M192.375,155.049L190.184,153.001C190.281,152.897 199.964,142.531 202.832,138.993C204.754,136.623 205.631,134.453 206.48,132.355C206.856,131.425 207.211,130.547 207.645,129.68C208.632,127.705 211.895,125.006 215.738,121.939C216.828,121.069 218.063,120.085 218.303,119.803C218.537,119.492 219.129,118 219.604,116.801C220.729,113.962 222.27,110.074 224.231,107.523C224.396,107.311 224.614,107.145 224.864,107.045C228.304,105.669 231.656,102.927 234.613,100.509C236.998,98.559 238.881,97.018 240.513,96.404L241.569,99.212C240.399,99.652 238.512,101.196 236.513,102.83C233.646,105.176 230.101,108.075 226.378,109.666C224.772,111.903 223.404,115.355 222.393,117.906C221.538,120.063 221.105,121.126 220.606,121.724C220.206,122.205 219.304,122.932 217.609,124.284C215.175,126.227 211.1,129.477 210.328,131.022C209.948,131.782 209.614,132.607 209.261,133.48C208.373,135.675 207.367,138.164 205.162,140.883C202.229,144.501 192.776,154.62 192.375,155.049Z" style="fill:rgb(8,36,63);fill-rule:nonzero;"/>
                    <path d="M97.359,154.967L95.025,153.083L118.798,123.637C119.011,123.335 125.346,114.525 132.44,109.829C137.171,106.698 137.764,105.128 138.66,102.752C139.01,101.828 139.405,100.781 140.059,99.527C142.12,95.575 143.813,94.118 145.605,92.575C145.97,92.26 146.346,91.937 146.735,91.581C147.444,90.934 147.733,90.178 148.1,89.22C148.648,87.785 149.332,85.999 151.654,84.564C154.715,82.674 164.347,78.097 166.4,77.126C167.353,75.743 170.942,70.707 174.347,68.198L176.126,70.613C172.66,73.167 168.698,79.081 168.658,79.14C168.507,79.367 168.296,79.549 168.049,79.666C167.934,79.72 156.446,85.131 153.23,87.117C151.771,88.018 151.388,89.021 150.901,90.292C150.476,91.407 149.992,92.67 148.759,93.796C148.346,94.173 147.949,94.515 147.562,94.849C145.859,96.315 144.515,97.473 142.719,100.915C142.147,102.008 141.802,102.925 141.467,103.812C140.331,106.82 139.367,108.841 134.097,112.331C127.459,116.724 121.247,125.365 121.186,125.451L97.359,154.967Z" style="fill:rgb(8,36,63);fill-rule:nonzero;"/>
                    <path d="M51.415,155.005L49.143,153.045L74.579,123.567C79.266,118.766 91.695,105.476 93.636,100.877C96.124,94.987 103.329,82.579 103.635,82.054C103.725,81.886 106.429,76.88 109.468,72.592L111.915,74.327C108.981,78.465 106.279,83.469 106.252,83.52C106.154,83.689 98.813,96.33 96.4,102.043C93.841,108.105 77.482,124.884 76.788,125.595L51.415,155.005Z" style="fill:rgb(8,36,63);fill-rule:nonzero;"/>
                    <path d="M27.709,155.167L25.763,152.883C25.981,152.698 47.609,134.263 53.281,128.783C58.855,123.398 64.851,113.537 67.109,109.825L67.177,109.713L69.74,111.272L69.672,111.384C67.36,115.186 61.217,125.287 55.365,130.94C49.626,136.485 28.601,154.407 27.709,155.167Z" style="fill:rgb(8,36,63);fill-rule:nonzero;"/>
                </g>
            </g>
        </g>
    </g>
    <defs>
        <linearGradient id="_Linear1" x1="0" y1="0" x2="1" y2="0" gradientUnits="userSpaceOnUse" gradientTransform="matrix(311.87,0,0,109.761,1.5,99.1453)"><stop offset="0" style="stop-color:rgb(255,86,119);stop-opacity:1"/><stop offset="1" style="stop-color:black;stop-opacity:1"/></linearGradient>
    </defs>
</svg>
