<?xml version="1.0" encoding="UTF-8" standalone="no"?>
<!DOCTYPE svg PUBLIC "-//W3C//DTD SVG 1.1//EN" "http://www.w3.org/Graphics/SVG/1.1/DTD/svg11.dtd">
<svg width="100%" height="100%" viewBox="0 0 308 126" version="1.1" xmlns="http://www.w3.org/2000/svg" xmlns:xlink="http://www.w3.org/1999/xlink" xml:space="preserve" xmlns:serif="http://www.serif.com/" style="fill-rule:evenodd;clip-rule:evenodd;stroke-linejoin:round;stroke-miterlimit:2;">
    <g transform="matrix(1,0,0,1,-343.411,-436.937)">
        <g>
            <g>
                <path d="M649.033,560.185L345.226,560.185C355.329,556.144 381.078,526.28 390.649,517.158C390.661,517.133 390.673,517.122 390.673,517.122C392.307,515.56 393.457,514.616 393.989,514.495C397.619,513.709 402.979,512.365 407.48,508.264C411.981,504.162 423.585,489.642 426.973,487.984C430.374,486.326 436.919,484.355 439.207,485.612C441.493,486.883 443.466,491.844 446.382,493.502C454.828,492.485 455.142,497.531 459.329,496.502C463.515,495.474 466.588,486.326 472.748,480.64C478.894,474.965 485.998,462.889 488.998,460.444C491.999,458.001 498.472,458.001 502.889,455.701C507.305,453.415 512.677,444.025 517.965,440.48C523.253,436.922 528.383,439.136 529.642,444.739C530.9,450.341 531.057,451.285 533.659,452.821C536.273,454.37 544.198,462.296 545.735,468.092C547.272,473.899 550.587,480.047 552.366,482.769C553.587,484.645 557.677,487.984 560.714,489.533C561.634,490.005 562.457,490.308 563.074,490.356C563.389,490.38 563.655,490.344 563.848,490.234C565.749,489.17 571.072,487.863 574.981,487.863C578.876,487.863 584.092,494.252 586.814,496.975C589.537,499.697 592.38,508.106 593.083,509.05C593.796,509.994 596.398,510.587 603.149,510.236C609.889,509.885 615.818,514.023 617.706,518.054C619.605,522.07 623.03,528.7 627.773,531.072C632.504,533.432 636.17,539.349 638.893,545.629C640.211,548.666 642.644,552.187 644.786,555.006C647.073,557.994 649.033,560.185 649.033,560.185Z" style="fill:url(#_Linear1);fill-rule:nonzero;"/>
                <g>
                    <path d="M620.82,549.692C619.987,545.825 619.601,544.642 616.129,543.221C612.657,541.801 614.156,537.776 614.314,530.516C615.339,533.041 616.287,540.301 617.628,540.933C618.97,541.564 623.468,541.88 623.468,545.825C623.468,549.771 624.649,555.452 624.649,555.452C624.649,555.452 621.653,553.559 620.82,549.692ZM644.786,555.006C642.644,552.187 640.211,548.666 638.893,545.629C636.17,539.349 632.504,533.432 627.773,531.072C623.03,528.7 619.605,522.07 617.706,518.054C615.818,514.023 609.889,509.885 603.149,510.236C596.398,510.587 593.796,509.994 593.083,509.05C592.38,508.106 589.537,499.697 586.814,496.975C584.092,494.252 578.876,487.863 574.981,487.863C571.072,487.863 565.749,489.17 563.848,490.234C563.655,490.344 563.389,490.38 563.074,490.356C563.062,490.622 562.88,495.087 560.243,498.753C557.52,502.54 556.516,504.67 552.487,507.223C548.458,509.764 544.972,511.591 544.258,516.273C543.544,520.945 543.484,520.945 537.87,525.688C532.425,530.273 525.032,538.139 524.572,538.622C525.128,538.163 533.961,530.83 537.688,528.942C541.537,526.982 546.388,522.542 546.691,519.589C546.981,516.625 547.695,511.543 553.733,508.397C559.771,505.263 563.026,501.125 564.09,499.104C565.156,497.096 565.506,494.966 566.571,494.373C567.636,493.78 572.077,491.953 572.427,491.953C572.791,491.953 572.548,496.382 571.774,497.749C571.012,499.104 571.072,500.592 572.016,501.476C572.959,502.358 573.141,503.375 573.383,503.484C573.613,503.606 576.13,501.947 576.154,500.798C576.191,499.637 576.251,497.979 576.251,497.979C576.251,497.979 576.517,500.12 577.11,501.233C577.703,502.358 578.465,505.734 577.763,507.187C577.049,508.639 576.009,509.498 576.663,511.446C577.316,513.406 578.175,515.234 578.175,515.234C578.175,515.234 575.271,513.491 574.883,511.361C574.497,509.231 574.472,508.518 575.307,507.514C576.13,506.509 575.525,505.565 574.763,505.674C573.529,505.856 570.238,509.11 567.224,509.135C564.2,509.171 561.961,507.635 558.404,508.76C554.858,509.885 550.708,518.671 550.708,518.671C550.708,518.671 557.254,511.422 559.553,511.011C561.864,510.587 562.844,511.627 564.09,511.894C565.325,512.16 568.229,510.829 569.233,511.651C567.938,513.104 566.487,515.766 564.889,517.278C563.292,518.791 561.623,520.085 561.744,522.275C561.901,524.792 561.61,526.038 560.714,527.696C559.843,529.306 556.262,534.932 556.044,535.283C556.395,534.992 562.034,530.395 562.869,526.837C563.728,523.171 564.792,520.775 567.455,518.814C570.128,516.867 572.609,512.777 572.609,512.777C572.609,512.777 574.763,519.25 575.682,522.578C575.839,523.11 571.012,527.636 571.012,527.636L571.834,522.336C571.834,522.336 569.644,524.828 567.902,527.842C566.16,530.866 567.43,530.866 566.656,533.081C565.893,535.295 566.329,535.683 565.506,537.194C564.719,538.635 561.089,542.24 560.739,542.604C561.138,542.434 567.527,539.688 568.58,536.251C569.681,532.693 572.282,531.181 573.408,530.83C574.533,530.48 579.325,526.45 579.893,520.327C581.37,522.578 580.51,526.365 580.51,526.365C580.51,526.365 584.685,522.312 583.027,518.367C581.37,514.424 579.748,514.495 579.748,511.809C579.748,509.135 580.304,504.283 580.304,504.283C580.304,504.283 580.692,508.493 582.87,511.773C585.036,515.052 585.75,518.96 588.787,519.554C586.463,516.153 586.185,508.978 586.185,508.978C586.185,508.978 588.702,517.218 592.731,518.754L592.731,514.459C592.731,514.459 596.519,513.357 598.333,513.83C600.149,514.302 605.158,517.182 608.401,517.774C606.15,519.589 602.908,519.227 600.463,522.978C598.479,526.026 597.837,527.2 597.668,527.526C598.043,526.861 600.088,523.425 603.622,522.747C607.53,521.997 609.623,521.09 610.639,519.432C611.946,521.791 610.215,526.886 609.974,532.089C609.732,537.304 610.252,540.244 609.126,541.369C608.183,542.314 601.419,545.132 599.326,546.052C601.213,545.048 606.792,541.744 606.634,540.534C606.464,539.118 606.284,532.367 605.811,532.367C605.339,532.367 590.25,540.837 586.1,540.426C586.778,542.398 586.378,543.971 584.806,544.721C583.22,545.471 583.777,547.201 582.12,548.23C580.474,549.259 575.44,553.796 572.948,553.796C578.889,555.163 582.749,551.823 583.85,550.565C584.963,549.295 586.694,548 588.508,548.75C590.324,549.5 595.175,551.509 599.592,550.323C604.021,549.138 605.714,549.222 607.167,547.686C608.63,546.137 610.615,544.963 611.124,545.471C611.631,545.98 609.853,548.545 607.965,550.13C606.066,551.703 605.013,553.228 603.27,554.328C601.516,555.417 600.246,556.047 600.306,556.494C600.367,556.93 609.333,556.494 610.215,556.494C611.111,556.494 613.059,555.865 613.47,553.614C613.894,551.364 613.858,550.069 613.858,550.069C613.858,550.069 614.838,552.429 615.456,553.772C616.084,555.103 615.782,556.869 615.782,556.869L639.147,556.869L643.043,559.398L647.024,559.398L644.786,555.006Z" style="fill:rgb(8,36,63);fill-rule:nonzero;"/>
                    <path d="M560.714,489.533C560.703,489.812 559.808,494.175 559.469,494.453C559.106,494.755 556.274,498.16 556.274,498.16C555.5,495.909 552.245,493.901 550.768,493.429C549.292,492.957 547.272,491.529 543.254,484.196C547.393,498.039 550.745,495.97 550.805,497.398C550.853,498.814 551.18,503.847 551.18,503.847C551.18,503.847 549.07,505.643 547.159,506.566C545.261,507.482 542.961,509.432 542.187,512.445C541.425,515.471 541.294,516.093 539.225,519.528C537.156,522.965 531.651,525.324 527.742,526.45C523.664,530.067 519.755,533.142 517.505,534.981C515.255,536.808 516.562,538.235 512.956,541.72C509.338,545.217 501.473,545.919 496.73,549.767C498.327,546.693 508.987,539.773 509.519,538.768C510.052,537.751 509.108,537.582 509.338,533.432C512.593,533.613 514.964,529.233 517.625,528.41C520.289,527.575 523.193,525.627 525.081,518.054C521.705,523.849 516.15,525.918 513.537,526.692C510.935,527.454 510.052,528.942 507.451,529.414C504.836,529.887 501.763,531.955 501.049,531.241C500.348,530.54 496.439,531.362 496.439,531.362C496.439,531.362 508.043,524.382 511.528,522.19C515.025,520.002 518.098,516.504 517.748,512.717C520.82,509.523 526.448,501.233 526.448,501.233C526.448,501.233 528.457,500.943 529.4,498.995C530.332,497.096 534.627,490.149 534.893,489.727C534.518,490.09 526.713,497.81 525.794,497.931C524.85,498.039 523.604,496.273 522.719,495.68C521.826,495.087 520.289,495.087 516.38,498.511C516.03,500.06 514.601,502.54 514.021,504.67C513.427,506.8 513.779,508.106 512.422,510.236C511.056,512.365 505.853,513.672 500.288,517.629C503.13,512.668 510.173,509.11 510.052,507.756C509.931,506.388 510.052,504.549 510.875,502.358C511.709,500.169 510.584,498.16 512.06,496.502C513.537,494.845 514.662,493.72 518.932,490.997C516.03,487.572 510.403,492.654 503.954,492.715C507.33,490.767 508.987,482.479 512.12,480.106C515.255,477.747 521.171,471.177 521.171,471.177C521.171,471.177 521.353,475.376 520.7,477.566C520.046,479.756 510.645,487.512 510.584,487.682C510.524,487.863 524.197,480.288 523.955,477.445C523.724,474.602 524.911,471.286 526.084,466.325C527.27,461.352 525.492,456.258 525.492,456.258C525.492,456.258 524.79,462.647 523.724,463.953C522.661,465.261 517.917,466.676 513.185,472C514.021,465.49 519.465,459.573 520.76,457.323C522.067,455.072 522.539,449.99 520.76,444.775C516.744,445.719 510.234,459.102 502.889,461.231C495.544,463.36 488.925,467.269 488.925,467.269C488.925,467.269 480.637,480.761 476.97,483.604C473.292,486.447 468.15,495.788 465.548,498.342C462.934,500.883 459.039,501.778 459.389,502.722C459.74,503.666 458.796,507.453 457.138,509.353C455.481,511.24 450.387,513.781 448.197,515.148C446.007,516.504 446.127,517.218 443.647,521.247C441.154,525.264 429.623,531.218 429.623,531.218L437.343,522.869L435.359,522.844C435.359,522.844 440.392,517.133 439.448,516.334C438.493,515.536 435.831,517.072 432.128,518.429C428.438,519.796 425.884,521.477 425.884,521.477C425.884,521.477 425.654,522.252 425.413,524.103C425.183,525.941 421.396,528.459 417.015,531.483C412.635,534.496 408.424,535.331 404.467,539.832C405.29,536.626 408.605,530.177 412.453,528.579C416.301,526.982 419.435,523.317 419.435,523.317C419.435,523.317 418.903,521.309 420.331,518.754C421.746,516.213 426.84,515.439 427.965,513.611C429.091,511.773 432.576,507.102 438.021,501.233C434.052,503.314 427.131,503.314 427.131,503.314C427.131,503.314 433.168,494.313 431.45,493.659C429.732,493.018 427.905,495.909 425.473,498.692C423.053,501.476 416.12,506.86 414.704,507.756C413.288,508.639 412.333,511.591 408.666,515.209C405,518.814 398.49,520.412 396.953,521.127C395.404,521.84 385.47,531.302 381.199,537.703C376.94,544.092 368.179,550.831 359.189,554.619C359.189,554.619 368.772,544.914 376.589,537.703C384.164,530.709 390.286,517.956 390.649,517.158C390.661,517.133 390.673,517.122 390.673,517.122C392.307,515.56 393.457,514.616 393.989,514.495C397.619,513.709 402.979,512.365 407.48,508.264C411.981,504.162 423.585,489.642 426.973,487.984C430.374,486.326 436.919,484.355 439.207,485.612C441.493,486.883 443.466,491.844 446.382,493.502C454.828,492.485 455.142,497.531 459.329,496.502C463.515,495.474 466.588,486.326 472.748,480.64C478.894,474.965 485.998,462.889 488.998,460.444C491.999,458.001 498.472,458.001 502.889,455.701C507.305,453.415 512.677,444.025 517.965,440.48C523.253,436.922 528.383,439.136 529.642,444.739C530.9,450.341 531.057,451.285 533.659,452.821C536.273,454.37 544.198,462.296 545.735,468.092C547.272,473.899 550.587,480.047 552.366,482.769C553.587,484.645 557.677,487.984 560.714,489.533Z" style="fill:rgb(8,36,63);fill-rule:nonzero;"/>
                </g>
                <g>
                    <path d="M394.535,516.221M351.62,558.37L645.125,558.37C644.578,557.695 643.974,556.934 643.343,556.109C640.432,552.275 638.375,548.995 637.228,546.352C634.096,539.126 630.642,534.531 626.962,532.696C621.87,530.149 618.303,523.563 616.065,518.83C614.426,515.33 609.076,511.745 603.245,512.049C595.121,512.469 592.73,511.593 591.634,510.146C591.293,509.687 590.978,508.949 590.232,507.175C589.087,504.453 587.17,499.897 585.532,498.258C585.06,497.786 584.514,497.206 583.915,496.569C581.65,494.161 577.432,489.678 574.981,489.678C571.252,489.678 566.273,490.956 564.736,491.818C564.23,492.101 563.627,492.219 562.935,492.165C562.086,492.099 561.09,491.766 559.885,491.148C556.577,489.46 552.265,485.938 550.844,483.761C549.193,481.231 545.631,474.798 543.98,468.557C542.572,463.245 534.948,455.695 532.734,454.383C529.521,452.484 529.158,450.871 527.958,445.525L527.871,445.136C527.396,443.018 526.271,441.508 524.707,440.885C523.052,440.225 521.013,440.615 518.978,441.985C516.597,443.582 514.073,446.619 511.634,449.556C508.89,452.859 506.297,455.98 503.723,457.313C501.488,458.477 498.913,459.072 496.422,459.648C493.858,460.24 491.435,460.8 490.144,461.852C489.019,462.768 486.877,465.74 484.61,468.888C481.312,473.465 477.575,478.653 473.979,481.973C471.346,484.403 469.245,487.61 467.39,490.439C464.895,494.246 462.74,497.533 459.762,498.265C457.195,498.894 455.57,497.859 454.132,496.946C452.471,495.893 450.756,494.802 446.599,495.304C446.207,495.353 445.823,495.272 445.485,495.08C443.594,494.005 442.154,491.978 440.883,490.189C440.021,488.975 439.043,487.599 438.325,487.199C437.073,486.509 431.545,487.773 427.768,489.615C426.064,490.449 420.65,496.549 416.696,501.004C413.551,504.547 410.58,507.895 408.704,509.606C403.645,514.214 397.52,515.588 394.49,516.244C394.31,516.346 393.691,516.755 392.031,518.334C391.991,518.382 391.947,518.429 391.902,518.471C389.251,520.997 385.333,525.148 380.797,529.95C371.209,540.104 359.77,552.217 351.62,558.37ZM649.033,562L345.226,562C344.356,562 343.608,561.383 343.444,560.528C343.279,559.674 343.744,558.823 344.552,558.5C351.45,555.74 366.887,539.394 378.158,527.457C382.673,522.677 386.58,518.541 389.295,515.94C389.326,515.904 389.358,515.869 389.39,515.838C391.875,513.463 392.807,512.903 393.588,512.726C397.891,511.792 402.39,510.446 406.258,506.922C407.994,505.341 410.901,502.064 413.982,498.594C419.928,491.895 423.988,487.424 426.175,486.355C428.673,485.137 436.581,482.099 440.082,484.023C441.526,484.825 442.651,486.409 443.843,488.087C444.809,489.447 445.804,490.848 446.835,491.63C451.827,491.179 454.269,492.735 456.077,493.881C457.386,494.712 457.888,494.986 458.896,494.74C460.488,494.349 462.366,491.483 464.354,488.449C466.323,485.444 468.555,482.04 471.516,479.306C474.842,476.234 478.626,470.984 481.666,466.766C484.285,463.129 486.354,460.257 487.851,459.037C489.796,457.453 492.618,456.801 495.606,456.11C497.874,455.586 500.22,455.044 502.051,454.091C503.976,453.094 506.451,450.116 508.842,447.236C511.448,444.101 514.14,440.858 516.955,438.972C520.013,436.914 523.245,436.396 526.049,437.513C528.722,438.576 530.677,441.065 531.414,444.341L531.501,444.73C532.684,450.006 532.77,450.189 534.582,451.259C537.601,453.047 545.811,461.296 547.49,467.626C549.022,473.421 552.342,479.416 553.885,481.776C554.848,483.254 558.644,486.439 561.54,487.916C562.5,488.409 563.001,488.517 563.167,488.541C565.49,487.342 570.887,486.048 574.981,486.048C579.001,486.048 583.371,490.691 586.559,494.082C587.13,494.689 587.649,495.241 588.098,495.69C590.242,497.834 592.25,502.608 593.578,505.768C593.935,506.617 594.335,507.57 594.521,507.925C594.821,508.104 596.409,508.77 603.055,508.424C610.47,508.037 617.167,512.624 619.349,517.283C620.503,519.724 624.025,527.169 628.584,529.448C633.047,531.675 637.077,536.876 640.558,544.907C641.589,547.282 643.499,550.311 646.23,553.908C648.44,556.795 650.366,558.953 650.386,558.975C650.863,559.508 650.981,560.273 650.69,560.926C650.398,561.579 649.749,562 649.033,562Z" style="fill:rgb(8,36,63);fill-rule:nonzero;"/>
                    <path d="M446.107,490.981C447.036,491.867 447.561,493.07 448.258,494.138L450.244,497.425C451.553,499.63 452.851,501.843 454.121,504.08C452.243,502.324 450.394,500.544 448.554,498.755L445.819,496.052C444.943,495.123 443.894,494.329 443.249,493.219L446.107,490.981Z" style="fill:rgb(8,36,63);fill-rule:nonzero;"/>
                    <path d="M531.558,445.025C532.181,447.303 532.524,449.666 532.599,452.049C532.626,452.641 532.635,453.231 532.625,453.804L532.625,455.268C532.587,455.369 532.732,455.874 532.941,456.333C533.134,456.801 533.388,457.31 533.639,457.819L535.198,460.963C535.691,462.043 536.126,463.155 536.526,464.277C537.345,466.51 537.911,468.836 538.163,471.174C537.354,469.002 536.344,466.923 535.19,464.941C534.042,462.949 532.727,461.092 531.381,459.191C531.046,458.71 530.708,458.232 530.385,457.705C530.064,457.178 529.727,456.648 529.515,455.824L529.447,455.504L529.416,455.272L529.36,454.828L529.261,453.952L529.069,452.237C528.799,449.98 528.408,447.744 527.959,445.502L531.558,445.025Z" style="fill:rgb(8,36,63);fill-rule:nonzero;"/>
                    <path d="M622.482,523.143C623.093,524.612 623.733,526.07 624.275,527.57C624.856,529.054 625.386,530.559 625.898,532.072C626.43,533.576 626.943,535.09 627.382,536.635C627.839,538.172 628.215,539.744 628.479,541.366L619.157,524.599L622.482,523.143Z" style="fill:rgb(8,36,63);fill-rule:nonzero;"/>
                    <path d="M642.393,561.395C640.972,560.128 639.709,558.731 638.451,557.431C637.218,556.152 635.917,554.829 634.776,554.521C634.822,554.516 633.971,554.343 633.651,554.136C633.364,553.937 633.019,553.718 632.841,553.512C632.395,553.093 632.075,552.675 631.756,552.256C631.146,551.408 630.656,550.552 630.18,549.685C629.256,547.942 628.474,546.157 627.808,544.326C629.056,545.817 630.307,547.29 631.591,548.686C632.234,549.375 632.876,550.07 633.552,550.648C634.214,551.231 634.935,551.755 635.166,551.548C636.513,551.641 637.637,552.189 638.578,552.739C639.534,553.299 640.346,553.948 641.119,554.607C642.645,555.947 643.964,557.392 645.104,558.981L642.393,561.395Z" style="fill:rgb(8,36,63);fill-rule:nonzero;"/>
                </g>
                <g>
                    <path d="M405.589,525.86C401.446,528.938 398.724,532.41 396.514,537.224C394.304,542.037 378.995,548.902 378.995,548.902C378.995,548.902 389.017,541.248 392.292,538.25C395.567,535.251 394.699,531.227 405.589,525.86Z" style="fill:rgb(8,36,63);fill-rule:nonzero;"/>
                    <path d="M431.512,547.522C437.549,543.023 440.39,538.763 442.165,535.804C443.941,532.844 449.563,528.05 451.28,524.145C445.894,528.819 442.58,530.181 440.626,533.081C438.673,535.981 437.608,537.007 435.655,537.382C433.702,537.756 432.104,535.014 423.877,548.902C427.665,544.622 435.122,539.887 435.122,539.887C435.122,539.887 433.465,545.45 431.512,547.522Z" style="fill:rgb(8,36,63);fill-rule:nonzero;"/>
                    <path d="M466.076,516.391C461.341,521.067 456.666,525.683 456.666,527.576C456.666,529.471 457.909,529.115 458.323,529.529C458.737,529.944 453.173,537.52 453.173,537.52C453.173,537.52 459.98,532.134 460.926,529.707C461.874,527.28 459.944,528.03 459.952,527.123C459.96,526.215 466.076,516.391 466.076,516.391Z" style="fill:rgb(8,36,63);fill-rule:nonzero;"/>
                    <path d="M471.639,502.699C476.176,499.425 481.662,495.321 482.845,495.399C484.029,495.479 483.2,498.754 481.78,500.45C480.359,502.147 472.981,514.221 472.981,514.221C472.981,514.221 481.622,505.382 484.108,502.344C486.593,499.306 485.725,497.294 486.672,496.11C487.619,494.927 491.289,493.032 493.774,488.061C496.26,483.089 497.483,476.697 500.364,473.936C495.471,478.078 492.749,482.103 490.973,485.457C489.198,488.811 485.015,491.099 482.134,491.572C479.254,492.046 477.439,492.678 476.137,495.281C474.835,497.886 471.639,502.699 471.639,502.699Z" style="fill:rgb(8,36,63);fill-rule:nonzero;"/>
                    <path d="M592.495,522.724C589.476,525.86 587.345,528.464 587.405,529.057C587.463,529.648 588.884,530.832 588.115,532.134C587.345,533.436 577.995,540.42 578.171,540.36C578.349,540.302 585.198,532.726 585.798,531.778C586.399,530.832 584.623,529.057 584.978,528.405C585.333,527.754 592.495,522.724 592.495,522.724Z" style="fill:rgb(8,36,63);fill-rule:nonzero;"/>
                    <path d="M552.544,526.57C549.171,531.542 547.632,534.147 547.632,536.572C547.632,538.999 546.981,541.426 543.844,543.615C540.708,545.806 534.908,550.304 534.908,550.304C534.908,550.304 538.163,546.575 539.05,544.563C539.938,542.551 542.01,542.255 543.076,540.361C544.14,538.467 543.134,536.928 544.377,534.915C545.621,532.903 552.544,526.57 552.544,526.57Z" style="fill:rgb(8,36,63);fill-rule:nonzero;"/>
                </g>
            </g>
        </g>
    </g>
    <defs>
        <linearGradient id="_Linear1" x1="0" y1="0" x2="1" y2="0" gradientUnits="userSpaceOnUse" gradientTransform="matrix(303.807,0,0,121.427,345.226,499.471)"><stop offset="0" style="stop-color:rgb(255,86,119);stop-opacity:1"/><stop offset="1" style="stop-color:black;stop-opacity:1"/></linearGradient>
    </defs>
</svg>
