<?xml version="1.0" encoding="UTF-8" standalone="no"?>
<!DOCTYPE svg PUBLIC "-//W3C//DTD SVG 1.1//EN" "http://www.w3.org/Graphics/SVG/1.1/DTD/svg11.dtd">
<svg width="100%" height="100%" viewBox="0 0 286 125" version="1.1" xmlns="http://www.w3.org/2000/svg" xmlns:xlink="http://www.w3.org/1999/xlink" xml:space="preserve" xmlns:serif="http://www.serif.com/" style="fill-rule:evenodd;clip-rule:evenodd;stroke-linejoin:round;stroke-miterlimit:2;">
    <g transform="matrix(1,0,0,1,-14.7124,-231.09)">
        <g>
            <g>
                <path d="M298.807,354.069L16.063,354.069C17.341,349.578 26.413,345.087 26.413,345.087C26.413,345.087 28.087,342.45 30.679,338.967L30.688,338.967C32.416,336.645 34.558,333.945 36.889,331.398C42.703,325.062 49.345,321.984 49.345,321.984C49.345,321.984 49.084,318.942 55.771,313.569C56.482,312.993 57.148,312.507 57.751,312.093C60.271,310.347 61.9,309.834 62.89,309.753C63.907,309.681 64.267,310.05 64.267,310.05C64.267,310.05 66.814,306.756 70.063,302.625C75.031,296.307 81.646,288.054 83.248,286.722C84.751,285.462 86.587,284.994 87.892,284.814L87.919,284.814C88.882,284.697 89.539,284.733 89.539,284.733C89.539,284.733 95.218,277.47 97.9,274.437C100.591,271.395 104.731,270.297 105.523,270.648C105.586,270.675 105.649,270.729 105.712,270.81L105.721,270.819C106.189,271.368 106.873,273.069 107.782,275.652C108.565,277.857 109.51,280.692 110.626,283.986C113.263,291.735 114.235,292.833 117.628,294.993C121.012,297.153 124.315,301.734 127.438,307.233C129.804,305.055 136.456,297.081 140.749,291.384C142.513,289.026 143.89,287.064 144.394,286.056C146.104,282.627 146.194,276.552 148.615,274.572C150.523,273.006 154.015,271.197 157.039,267.939C157.867,267.066 158.65,266.085 159.361,264.969C160.369,263.385 161.485,262.053 162.691,260.91C162.727,260.865 162.772,260.829 162.817,260.784C162.925,260.676 163.042,260.577 163.15,260.496C165.157,258.678 167.389,257.382 169.747,256.392C169.792,256.374 169.828,256.356 169.846,256.347L169.855,256.347L169.855,256.338C170.611,256.023 171.385,255.735 172.168,255.465C173.617,251.586 179.17,243.531 180.709,241.02C182.248,238.518 182.95,238.599 187.27,236.664C191.581,234.729 192.202,232.524 193.957,232.443C195.721,232.353 197.701,238.95 199.024,241.461C199.465,241.668 199.897,241.911 200.329,242.19L200.329,242.199C203.767,244.413 206.998,248.76 208.798,252.207C210.823,256.077 212.668,257.58 215.575,259.425C218.482,261.27 226.402,279.054 227.815,282.051C229.219,285.048 236.527,296.577 245.419,300.015C254.311,303.444 258.892,314.631 259.945,316.917C261.006,319.203 271.393,326.43 277.378,329.769C281.167,331.884 288.484,337.815 293.506,343.935L293.515,343.944C296.431,347.49 298.573,351.099 298.807,354.069Z" style="fill:url(#_Linear1);fill-rule:nonzero;"/>
                <path d="M138.796,319.734C135.979,322.902 126.124,325.485 126.124,325.485C133.711,318.933 146.59,309.942 147.121,309.573C146.797,309.987 141.523,316.665 138.796,319.734ZM262.852,331.353C260.295,328.194 258.316,322.236 258.199,321.867C258.388,322.065 264.724,328.914 271.483,330.741C278.242,332.559 293.047,343.593 293.506,343.935C288.484,337.815 281.167,331.884 277.378,329.769C271.393,326.43 261.006,319.203 259.945,316.917C258.892,314.631 254.311,303.444 245.419,300.015C236.527,296.577 229.219,285.048 227.815,282.051C226.402,279.054 218.482,261.27 215.575,259.425C212.668,257.58 210.823,256.077 208.798,252.207C206.998,248.76 203.767,244.413 200.329,242.199C199.897,244.836 201.508,248.508 201.679,248.913C201.454,248.526 199.528,245.268 197.917,242.172C196.207,238.869 194.929,233.496 194.929,233.496C194.929,233.496 193.696,233.28 191.806,236.709C189.907,240.147 184.849,246.348 184.849,246.348L188.017,238.869C184.849,240.939 182.383,240.714 182.383,240.714C182.383,240.714 176.659,249.741 174.454,253.791C172.258,257.841 169.441,268.407 167.506,269.73C165.562,271.044 163.807,272.106 160.72,276.768C161.863,271.395 165.913,268.758 166.885,266.112C167.839,263.52 169.792,256.563 169.846,256.347C169.828,256.356 169.792,256.374 169.747,256.392C169.072,256.761 165.418,258.75 163.15,260.496C163.114,260.514 163.087,260.541 163.06,260.559C162.979,260.622 162.898,260.694 162.817,260.784C162.772,260.829 162.727,260.865 162.691,260.91C160.063,263.853 155.086,277.299 155.086,277.299L157.039,267.939C154.015,271.197 150.523,273.006 148.615,274.572C146.194,276.552 146.104,282.627 144.394,286.056C143.89,287.064 142.513,289.026 140.749,291.384C140.929,291.573 141.136,291.636 141.352,291.564C143.917,290.709 154.159,281.844 154.798,281.286C143.107,294.651 134.035,303.453 123.658,311.634C113.272,319.815 115.558,316.665 111.085,323.586C111.427,323.262 116.989,317.961 121.363,315.684C125.89,313.335 137.041,306.054 137.041,306.054C137.041,306.054 132.928,310.869 128.239,315.684C123.541,320.499 112.39,329.13 107.782,330.831C103.174,332.532 92.023,340.101 88.729,343.566C85.741,346.716 78.271,350.208 76.957,350.82C78.901,350.037 95.002,343.512 101.941,339.165C109.222,334.602 123.127,328.428 123.559,328.239C123.109,328.617 108.799,340.677 96.055,348.174C104.812,346.239 127.177,333.423 133.162,329.508C129.382,334.566 125.593,336.681 122.992,338.445C120.4,340.209 116.881,344.916 111.418,347.598C114.811,347.472 126.034,341.352 131.974,337.077C130.957,339.165 125.926,343.845 125.611,344.142C125.953,343.989 131.542,341.532 137.563,338.337C143.791,335.052 148.543,330.183 159.343,325.485C152.71,328.599 142.792,339.93 142.792,339.93C142.792,339.93 161.989,333.054 166.444,333.234C170.908,333.414 187.045,329.949 187.045,329.949L167.029,329.832L171.61,320.616C171.61,320.616 165.328,320.787 161.224,321.498C157.174,322.191 137.32,333.405 136.708,333.756C137.329,333.27 157.228,317.826 160.513,316.386C163.861,314.919 179.539,313.803 187.927,313.749C196.324,313.686 202.309,318.033 204.307,319.149C206.296,320.265 206.125,324.018 207.529,326.952C208.897,329.796 214.117,333.198 214.441,333.405C214.162,333.063 209.59,327.681 209.473,326.484C209.356,325.251 209.239,323.316 207.358,319.5C218.158,320.058 228.58,332.622 229.534,333.792C228.724,332.676 220.462,321.543 215.278,319.086C209.824,316.503 193.957,308.07 190.258,306.747C186.568,305.424 174.193,306.837 174.193,306.837C174.193,306.837 180.844,302.877 188.458,302.211C196.072,301.554 200.428,303.183 200.428,303.183C200.428,303.183 196.558,300.06 193.471,299.304C190.393,298.557 183.967,299.349 178.684,298.602C184.579,297.594 184.849,297.279 184.453,296.181C184.057,295.083 180.754,290.196 180.133,289.665C179.521,289.143 177.316,289.269 175.381,289.62C173.446,289.98 162.835,297.765 157.111,301.158C162.043,296.271 171.07,289.89 173.185,288.612C175.291,287.334 176.794,287.028 180.574,286.236C184.363,285.444 188.107,292.266 188.107,292.266C188.107,292.266 187.396,283.635 184.228,280.287C196.459,282.123 204.19,293.256 204.19,293.256C204.19,293.256 200.023,283.05 198.376,281.934C196.729,280.818 187.108,273.834 182.995,273.537C178.891,273.249 176.776,277.65 172.843,278.298C168.91,278.937 166.624,280.935 155.995,288.684C161.341,283.104 168.379,278.064 171.025,277.002C173.662,275.949 172.843,275.184 179.476,270.369C186.109,265.554 187.396,265.383 190.456,266.202C193.408,267.003 202.372,272.979 202.93,273.348C202.417,272.844 194.083,264.915 192.04,263.151C189.925,261.333 188.863,262.359 188.251,260.361C187.639,258.372 185.524,255.231 184.498,254.79C183.463,254.349 179.215,259.164 175.363,263.241C177.388,258.66 186.523,248.445 187.72,248.364C188.926,248.274 189.952,248.508 189.925,247.977C189.898,247.455 189.043,246.249 189.277,245.106C189.511,243.954 191.014,242.928 191.302,240.993C191.599,239.058 192.715,237.681 193.3,237.915C193.885,238.149 193.156,239.436 194.002,240.111C194.857,240.786 195.676,243.441 196.288,245.385C196.909,247.32 197.962,251.676 201.427,252.234C201.427,251.415 202.363,250.236 203.596,250.353C204.829,250.47 206.008,257.049 208.294,259.452C210.589,261.864 212.173,261.801 214.225,264.564C216.277,267.318 220.813,275.841 220.813,275.841C220.813,275.841 217.42,274.437 214.576,275.535C221.749,276.966 226.798,285.426 227.014,285.795C226.879,285.714 225.673,284.994 224.791,285.165C227.14,287.217 228.958,295.254 229.84,298.953C230.713,302.652 236.824,309.816 236.824,309.816C236.824,309.816 233.773,302.481 232.774,298.719C235.411,301.365 248.56,309.348 250.144,313.569C251.728,317.799 254.185,323.964 258.055,329.283C261.924,334.611 267.694,339.939 269.584,342.63C271.483,345.312 272.536,349.929 272.536,349.929C272.536,349.929 272.626,343.242 272.014,342.009C271.393,340.776 265.498,334.611 262.852,331.353Z" style="fill:rgb(8,36,63);fill-rule:nonzero;"/>
                <path d="M109.861,291.294C104.641,283.401 105.136,274.158 102.877,274.068C100.708,273.978 98.746,277.452 98.611,277.722C98.791,277.533 100.456,275.859 100.798,276.327C101.149,276.831 100.357,278.064 99.412,279.882C98.476,281.7 97.621,281.556 96.127,282.582C94.633,283.608 92.257,289.476 92.257,289.476C92.257,289.476 97.009,283.581 98.179,283.401C99.358,283.23 100.411,286.542 100.411,286.542C100.411,286.542 98.656,285.219 98.035,285.219C97.423,285.219 96.892,288.387 96.541,289.755C96.19,291.123 93.895,291.6 90.466,293.463C87.154,295.254 81.07,299.718 80.629,300.042C80.926,299.898 83.419,298.656 87.379,296.712C91.609,294.642 98.296,292.482 101.554,293.94C104.812,295.389 108.16,296.712 108.952,298.386C109.717,300.006 111.526,304.641 111.634,304.929C111.445,304.623 108.988,300.663 107.719,299.349C106.396,297.99 101.518,296.361 98.917,295.785C96.315,295.218 94.12,296.091 94.12,296.091C94.12,296.091 97.288,298.161 95.839,298.386C94.381,298.602 85.138,301.203 76.642,308.331C83.86,304.236 92.977,300.852 95.218,300.501C97.468,300.141 103.579,305.469 104.065,311.148C102.436,307.845 98.656,305.298 98.476,305.298C98.296,305.298 95.875,305.739 95.263,306.441C94.642,307.143 92.797,312.03 92.005,312.516C91.213,313.002 90.16,312.255 87.739,312.516C85.39,312.768 80.565,317.988 80.269,318.321C80.629,318.105 86.884,314.424 87.648,314.937C88.44,315.468 92.095,315.99 94.336,313.398C93.058,317.313 90.592,321.714 90.592,321.714C90.592,321.714 89.764,321.012 86.794,320.67C89.674,322.497 93.013,329.247 93.013,329.247C93.013,329.247 86.74,322.785 85.624,322.668C84.508,322.551 80.161,322.848 67.489,331.065C75.643,326.781 80.809,326.133 82.861,326.304C84.85,326.475 90.151,333.477 90.475,333.918C90.07,333.621 83.599,328.833 80.692,328.833C77.695,328.833 68.479,336.987 65.544,338.337C62.611,339.687 60.091,337.815 56.041,338.868C51.991,339.93 42.127,347.202 42.127,347.202C42.127,347.202 50.695,342.567 54.808,342.918C49.057,345.15 45.007,349.785 42.244,350.316C39.49,350.847 34.963,354.069 34.963,354.069L30.742,354.069C30.742,354.069 38.374,348.084 40.363,344.565C35.845,348.669 26.989,352.431 26.989,352.431C26.989,352.431 36.727,345.33 38.374,343.566C39.958,341.856 47.455,335.529 47.914,335.133C47.509,335.385 42.613,338.454 37.843,342.216C32.857,346.149 28.51,347.967 25.396,348.669C22.435,349.344 18.565,351.396 18.205,351.585C18.529,351.27 22.957,347.121 25.99,346.5C29.131,345.852 35.26,342.333 38.077,339.804C40.894,337.284 47.41,331.587 53.161,330.597C58.912,329.598 65.842,325.251 73.996,315.981C59.911,326.187 57.679,325.485 53.395,325.899C49.111,326.304 39.436,333.522 30.688,338.967C32.416,336.645 34.558,333.945 36.889,331.398C42.703,325.062 49.345,321.984 49.345,321.984C49.345,321.984 49.084,318.942 55.771,313.569C56.482,312.993 57.148,312.507 57.751,312.093C57.751,312.093 54.277,316.872 54.277,319.644C56.653,315.684 62.89,309.753 62.89,309.753C62.71,312.309 58.048,318.123 57.76,318.483C58.075,318.204 62.098,314.595 65.374,310.815C66.499,309.519 68.236,306.324 70.063,302.625C75.031,296.307 81.646,288.054 83.248,286.722C84.751,285.462 86.587,284.994 87.892,284.814L88,284.814C88,284.814 86.974,287.631 83.743,291.681C88.558,288.63 89.143,286.569 94.012,280.287C98.89,274.014 103.894,269.991 105.712,270.81L105.721,270.819C106.261,271.08 106.963,273.006 107.782,275.652C109.735,281.934 112.363,292.23 115.09,293.517C118.96,295.353 122.074,301.536 123.19,306.468C118.492,298.431 114.208,298.548 109.744,294.435C105.289,290.331 104.551,285.705 104.551,285.705C104.551,285.705 107.548,290.412 109.861,291.294Z" style="fill:rgb(8,36,63);fill-rule:nonzero;"/>
                <path d="M104.693,271.694C104.693,271.694 104.693,271.695 104.694,271.697C104.693,271.695 104.693,271.694 104.693,271.694ZM63.301,310.994C63.302,310.994 63.303,310.995 63.304,310.996C63.303,310.995 63.302,310.994 63.301,310.994ZM63.304,310.996C63.309,311.002 63.314,311.007 63.318,311.011C63.314,311.007 63.309,311.002 63.304,310.996ZM63.481,311.137M18.292,352.72L297.188,352.72C296.567,350.531 294.963,347.829 292.473,344.802C287.734,339.028 280.609,333.119 276.72,330.948C271.979,328.304 260.135,320.532 258.721,317.486L258.5,316.999C254.72,308.579 250.155,303.289 244.933,301.274C235.983,297.814 228.357,286.393 226.593,282.623C226.432,282.283 226.185,281.746 225.869,281.062C218.614,265.295 215.874,261.214 214.852,260.565C211.603,258.503 209.688,256.82 207.602,252.833C206.025,249.813 202.982,245.513 199.598,243.334C199.56,243.309 199.523,243.283 199.488,243.254C199.133,243.031 198.793,242.844 198.452,242.684C198.186,242.559 197.967,242.351 197.83,242.091C197.419,241.312 196.969,240.214 196.493,239.053C195.871,237.538 194.608,234.46 193.867,233.818C193.568,233.905 193.224,234.201 192.628,234.727C191.644,235.597 190.295,236.786 187.823,237.896C187.072,238.232 186.43,238.508 185.873,238.748C183.304,239.851 182.909,240.02 181.859,241.728C181.505,242.305 180.939,243.176 180.259,244.221C178.105,247.536 174.5,253.082 173.433,255.938C173.292,256.315 172.989,256.61 172.607,256.741C171.841,257.006 171.148,257.265 170.497,257.533C170.449,257.56 170.4,257.583 170.35,257.603C170.323,257.615 170.293,257.627 170.262,257.64C167.822,258.664 165.79,259.927 164.057,261.496C164.026,261.525 163.993,261.551 163.959,261.577C163.898,261.623 163.833,261.678 163.772,261.739C163.76,261.751 163.7,261.808 163.687,261.82C163.649,261.867 163.664,261.848 163.62,261.89C162.433,263.015 161.412,264.259 160.501,265.694C159.781,266.824 158.946,267.892 158.019,268.868C155.872,271.183 153.521,272.781 151.632,274.066C150.776,274.649 150.037,275.152 149.472,275.616C148.384,276.505 147.808,278.964 147.251,281.343C146.816,283.204 146.365,285.128 145.602,286.659C145.104,287.655 143.871,289.465 141.83,292.193C137.702,297.672 130.917,305.867 128.352,308.227C128.048,308.505 127.638,308.63 127.229,308.568C126.823,308.503 126.468,308.258 126.264,307.9C122.792,301.786 119.73,297.937 116.901,296.131C113.21,293.781 112.07,292.419 109.348,284.421L108.56,282.09C107.782,279.785 107.1,277.765 106.51,276.104C105.588,273.486 105.106,272.397 104.856,271.947C103.788,272.072 100.934,273.046 98.912,275.332C96.286,278.299 90.659,285.493 90.603,285.565C90.33,285.914 89.903,286.104 89.465,286.082C89.462,286.082 88.897,286.055 88.081,286.155C88.056,286.157 88.033,286.16 88.008,286.162C86.895,286.323 85.339,286.731 84.115,287.757C82.951,288.725 78.096,294.594 71.123,303.46C67.88,307.585 65.336,310.874 65.335,310.877C65.096,311.185 64.734,311.376 64.344,311.398C64.023,311.419 63.707,311.319 63.454,311.128C63.398,311.112 63.251,311.08 62.985,311.1C62.389,311.149 60.994,311.488 58.52,313.203C57.846,313.666 57.226,314.127 56.621,314.618C50.815,319.283 50.694,321.913 50.693,321.939C50.742,322.504 50.428,322.969 49.914,323.209C49.849,323.238 43.432,326.265 37.884,332.311C35.894,334.485 33.837,336.996 31.77,339.773C31.743,339.81 31.714,339.845 31.683,339.879C29.199,343.225 27.568,345.785 27.552,345.811C27.419,346.019 27.232,346.188 27.012,346.296C25.053,347.268 20.38,349.995 18.292,352.72ZM298.807,355.419L16.063,355.419C15.639,355.419 15.241,355.221 14.985,354.883C14.73,354.545 14.648,354.107 14.764,353.7C16.062,349.14 23.59,345.019 25.477,344.048C26,343.243 27.491,340.991 29.596,338.161C29.623,338.125 29.653,338.088 29.684,338.054C31.778,335.247 33.867,332.701 35.893,330.487C40.796,325.144 46.206,322.076 48.093,321.099C48.423,319.609 49.772,316.658 54.925,312.518C55.582,311.985 56.257,311.481 56.987,310.981C59.264,309.402 61.215,308.536 62.78,308.408C63.172,308.379 63.511,308.399 63.802,308.446C64.743,307.233 66.696,304.723 69.002,301.792C74.161,295.23 80.672,287.108 82.385,285.685C83.758,284.532 85.601,283.768 87.708,283.477C87.746,283.471 87.785,283.468 87.824,283.466C88.235,283.419 88.594,283.395 88.881,283.385C90.237,281.659 94.596,276.135 96.888,273.543C99.764,270.292 104.504,268.718 106.07,269.414C106.33,269.526 106.572,269.717 106.776,269.978L106.775,269.979C107.357,270.707 107.978,272.142 109.056,275.204C109.648,276.873 110.334,278.905 111.118,281.227L111.905,283.553C114.498,291.173 115.314,291.92 118.354,293.854C121.303,295.737 124.376,299.402 127.722,305.034C130.558,302.02 135.879,295.605 139.67,290.572C142.054,287.385 142.898,286.029 143.186,285.453C143.809,284.206 144.222,282.438 144.622,280.728C145.313,277.78 145.964,274.995 147.761,273.527C148.417,272.988 149.204,272.454 150.114,271.834C151.89,270.626 154.1,269.122 156.05,267.021C156.868,266.158 157.596,265.227 158.223,264.244C159.244,262.639 160.389,261.239 161.721,259.969C161.763,259.925 161.807,259.881 161.854,259.837C161.999,259.693 162.147,259.564 162.288,259.456C164.233,257.703 166.494,256.297 169.196,255.16C169.24,255.135 169.288,255.112 169.336,255.091C169.908,254.854 170.503,254.624 171.143,254.395C172.505,251.198 175.781,246.156 177.996,242.75C178.66,241.73 179.211,240.879 179.558,240.314C181.058,237.876 182.079,237.438 184.808,236.266C185.354,236.032 185.983,235.762 186.718,235.432C188.816,234.491 189.938,233.5 190.84,232.703C191.743,231.907 192.596,231.154 193.895,231.095C195.956,230.962 197.192,233.644 198.991,238.028C199.363,238.937 199.719,239.804 200.028,240.453C200.371,240.631 200.711,240.83 201.061,241.056C201.103,241.083 201.142,241.111 201.18,241.142C204.959,243.628 208.284,248.306 209.995,251.582C211.807,255.045 213.405,256.449 216.299,258.286C218.34,259.581 221.936,266.055 228.322,279.933C228.632,280.607 228.876,281.136 229.036,281.476C230.614,284.844 237.827,295.632 245.906,298.755C251.814,301.035 256.881,306.801 260.963,315.894L261.17,316.352C261.95,318.028 271.407,324.893 278.036,328.591C282.14,330.88 289.62,337.071 294.55,343.079C298.035,347.315 299.918,350.974 300.153,353.963C300.183,354.338 300.054,354.71 299.798,354.986C299.542,355.262 299.183,355.419 298.807,355.419Z" style="fill:rgb(8,36,63);fill-rule:nonzero;"/>
                <path d="M105.637,303.417C106.518,306.469 107.457,307.526 107.691,308.993C107.926,310.46 107.633,315.685 107.633,315.685C107.633,315.685 105.109,309.287 105.637,303.417Z" style="fill:rgb(8,36,63);fill-rule:nonzero;"/>
                <path d="M168.735,340.396C179.652,334.526 184.113,334.761 186.872,335.23C189.63,335.7 197.202,336.698 197.202,336.698C197.202,336.698 178.126,337.167 168.735,340.396Z" style="fill:rgb(8,36,63);fill-rule:nonzero;"/>
                <path d="M246.917,328.011C251.672,332.677 253.345,331.621 255.37,339.28C252.2,336.199 248.855,332.017 246.917,328.011Z" style="fill:rgb(8,36,63);fill-rule:nonzero;"/>
            </g>
        </g>
    </g>
    <defs>
        <linearGradient id="_Linear1" x1="0" y1="0" x2="1" y2="0" gradientUnits="userSpaceOnUse" gradientTransform="matrix(282.744,0,0,121.627,16.063,293.256)"><stop offset="0" style="stop-color:rgb(255,86,119);stop-opacity:1"/><stop offset="1" style="stop-color:black;stop-opacity:1"/></linearGradient>
    </defs>
</svg>
